M48
; DRILL file {KiCad 6.0.4} date 2022年06月18日 星期六 10时37分32秒
; FORMAT={-:-/ absolute / inch / decimal}
; #@! TF.CreationDate,2022-06-18T10:37:32+08:00
; #@! TF.GenerationSoftware,Kicad,Pcbnew,6.0.4
; #@! TF.FileFunction,Plated,1,2,PTH
FMAT,2
INCH
; #@! TA.AperFunction,Plated,PTH,ViaDrill
T1C0.0157
%
G90
G05
T1
X5.0906Y-3.7323
X5.0906Y-3.7717
X5.0906Y-4.0079
X5.0906Y-4.0472
X5.3268Y-3.7717
X5.3268Y-4.0472
X5.3661Y-3.7717
X5.3661Y-4.0472
X5.4134Y-3.9291
X5.4606Y-3.8858
X5.563Y-3.8858
X5.6268Y-4.0819
X5.6693Y-3.9843
X5.6811Y-4.1654
X5.6836Y-4.0963
X5.6949Y-3.874
X5.6949Y-4.0669
X5.7008Y-3.8366
X5.7598Y-3.811
X5.7992Y-3.811
T0
M30
