%TF.GenerationSoftware,KiCad,Pcbnew,6.0.4*%
%TF.CreationDate,2022-06-18T10:37:32+08:00*%
%TF.ProjectId,screen_sub_board,73637265-656e-45f7-9375-625f626f6172,rev?*%
%TF.SameCoordinates,Original*%
%TF.FileFunction,Copper,L2,Bot*%
%TF.FilePolarity,Positive*%
%FSLAX46Y46*%
G04 Gerber Fmt 4.6, Leading zero omitted, Abs format (unit mm)*
G04 Created by KiCad (PCBNEW 6.0.4) date 2022-06-18 10:37:32*
%MOMM*%
%LPD*%
G01*
G04 APERTURE LIST*
%TA.AperFunction,ViaPad*%
%ADD10C,0.600000*%
%TD*%
%TA.AperFunction,Conductor*%
%ADD11C,0.250000*%
%TD*%
G04 APERTURE END LIST*
D10*
%TO.N,GND*%
X144300000Y-105800000D03*
X147300000Y-96800000D03*
X146300000Y-96800000D03*
X129300000Y-102800000D03*
X129300000Y-101800000D03*
X129300000Y-95800000D03*
X129300000Y-94800000D03*
X136300000Y-95800000D03*
X135300000Y-95800000D03*
X136300000Y-102800000D03*
X135300000Y-102800000D03*
%TO.N,+5V*%
X144800000Y-97450000D03*
%TO.N,+3V3*%
X144650000Y-98400000D03*
%TO.N,+5V*%
X144363196Y-104046289D03*
%TO.N,+3V3*%
X144650000Y-103300000D03*
%TO.N,GND*%
X142920000Y-103680000D03*
%TO.N,/MOSI*%
X141300000Y-98700000D03*
%TO.N,/DC*%
X144000000Y-101200000D03*
%TO.N,/MOSI*%
X137500000Y-99800000D03*
%TO.N,/DC*%
X138700000Y-98700000D03*
%TD*%
D11*
%TO.N,+5V*%
X144363196Y-104046289D02*
X145003711Y-104046289D01*
X145003711Y-104046289D02*
X145274511Y-103775489D01*
X145274511Y-103775489D02*
X145274511Y-97924511D01*
X145274511Y-97924511D02*
X144800000Y-97450000D01*
%TO.N,+3V3*%
X144650000Y-103300000D02*
X144650000Y-98400000D01*
%TO.N,/DC*%
X140700000Y-97900000D02*
X142300000Y-97900000D01*
X138700000Y-98700000D02*
X139900000Y-98700000D01*
X139900000Y-98700000D02*
X140700000Y-97900000D01*
X142300000Y-97900000D02*
X144000000Y-99600000D01*
X144000000Y-99600000D02*
X144000000Y-101200000D01*
%TO.N,/MOSI*%
X137500000Y-99800000D02*
X140200000Y-99800000D01*
X140200000Y-99800000D02*
X141300000Y-98700000D01*
%TD*%
%TA.AperFunction,Conductor*%
%TO.N,+5V*%
G36*
X144501363Y-103780019D02*
G01*
X144543807Y-103801408D01*
X144544053Y-103801535D01*
X144587557Y-103824763D01*
X144626833Y-103845960D01*
X144663835Y-103864897D01*
X144700617Y-103881400D01*
X144700812Y-103881470D01*
X144700819Y-103881473D01*
X144738994Y-103895207D01*
X144739002Y-103895210D01*
X144739237Y-103895294D01*
X144739476Y-103895357D01*
X144739481Y-103895358D01*
X144781495Y-103906339D01*
X144781503Y-103906341D01*
X144781749Y-103906405D01*
X144782008Y-103906449D01*
X144782010Y-103906449D01*
X144829989Y-103914520D01*
X144830209Y-103914557D01*
X144830431Y-103914577D01*
X144830433Y-103914577D01*
X144839121Y-103915349D01*
X144886673Y-103919577D01*
X144886856Y-103919582D01*
X144886861Y-103919582D01*
X144941797Y-103920996D01*
X144949979Y-103924634D01*
X144953196Y-103932692D01*
X144953196Y-104159886D01*
X144949769Y-104168159D01*
X144941797Y-104171582D01*
X144886861Y-104172995D01*
X144886856Y-104172995D01*
X144886673Y-104173000D01*
X144839121Y-104177228D01*
X144830433Y-104178000D01*
X144830431Y-104178000D01*
X144830209Y-104178020D01*
X144829989Y-104178057D01*
X144782010Y-104186128D01*
X144782008Y-104186128D01*
X144781749Y-104186172D01*
X144781503Y-104186236D01*
X144781495Y-104186238D01*
X144739481Y-104197219D01*
X144739476Y-104197220D01*
X144739237Y-104197283D01*
X144739002Y-104197367D01*
X144738994Y-104197370D01*
X144700819Y-104211104D01*
X144700812Y-104211107D01*
X144700617Y-104211177D01*
X144663835Y-104227680D01*
X144626833Y-104246617D01*
X144626811Y-104246629D01*
X144626803Y-104246633D01*
X144587603Y-104267789D01*
X144587557Y-104267814D01*
X144544053Y-104291042D01*
X144543807Y-104291169D01*
X144501363Y-104312559D01*
X144492433Y-104313222D01*
X144487988Y-104310544D01*
X144401820Y-104227680D01*
X144221965Y-104054722D01*
X144218377Y-104046518D01*
X144221965Y-104037856D01*
X144331323Y-103932692D01*
X144467709Y-103801535D01*
X144487988Y-103782034D01*
X144496327Y-103778769D01*
X144501363Y-103780019D01*
G37*
%TD.AperFunction*%
%TD*%
%TA.AperFunction,Conductor*%
%TO.N,+5V*%
G36*
X145075099Y-97351386D02*
G01*
X145083303Y-97354974D01*
X145085981Y-97359419D01*
X145100867Y-97404553D01*
X145100951Y-97404816D01*
X145115290Y-97452006D01*
X145128073Y-97494766D01*
X145140846Y-97534321D01*
X145140901Y-97534465D01*
X145155104Y-97571785D01*
X145155109Y-97571797D01*
X145155186Y-97571999D01*
X145172670Y-97609132D01*
X145194874Y-97647048D01*
X145223376Y-97687079D01*
X145259752Y-97730554D01*
X145259878Y-97730687D01*
X145259881Y-97730690D01*
X145297727Y-97770535D01*
X145300940Y-97778894D01*
X145297517Y-97786866D01*
X145136866Y-97947517D01*
X145128593Y-97950944D01*
X145120535Y-97947727D01*
X145080690Y-97909881D01*
X145080687Y-97909878D01*
X145080554Y-97909752D01*
X145037079Y-97873376D01*
X144997048Y-97844874D01*
X144996811Y-97844735D01*
X144959365Y-97822806D01*
X144959357Y-97822802D01*
X144959132Y-97822670D01*
X144921999Y-97805186D01*
X144921797Y-97805109D01*
X144921785Y-97805104D01*
X144894177Y-97794597D01*
X144884321Y-97790846D01*
X144844766Y-97778073D01*
X144844717Y-97778058D01*
X144844697Y-97778052D01*
X144802057Y-97765305D01*
X144802006Y-97765290D01*
X144754816Y-97750951D01*
X144754553Y-97750867D01*
X144709419Y-97735981D01*
X144702636Y-97730136D01*
X144701386Y-97725099D01*
X144694172Y-97356099D01*
X144697437Y-97347760D01*
X144706099Y-97344172D01*
X145075099Y-97351386D01*
G37*
%TD.AperFunction*%
%TD*%
%TA.AperFunction,Conductor*%
%TO.N,+3V3*%
G36*
X144658433Y-98258769D02*
G01*
X144914255Y-98524792D01*
X144917520Y-98533131D01*
X144916270Y-98538167D01*
X144894880Y-98580611D01*
X144894753Y-98580857D01*
X144871525Y-98624361D01*
X144850328Y-98663637D01*
X144831391Y-98700639D01*
X144814888Y-98737421D01*
X144800994Y-98776041D01*
X144789883Y-98818553D01*
X144781731Y-98867013D01*
X144776711Y-98923477D01*
X144776706Y-98923660D01*
X144776706Y-98923665D01*
X144775293Y-98978601D01*
X144771655Y-98986783D01*
X144763597Y-98990000D01*
X144536403Y-98990000D01*
X144528130Y-98986573D01*
X144524707Y-98978601D01*
X144523293Y-98923665D01*
X144523293Y-98923660D01*
X144523288Y-98923477D01*
X144518268Y-98867013D01*
X144510116Y-98818553D01*
X144499005Y-98776041D01*
X144485111Y-98737421D01*
X144468608Y-98700639D01*
X144449671Y-98663637D01*
X144428474Y-98624361D01*
X144405246Y-98580857D01*
X144405119Y-98580611D01*
X144383730Y-98538167D01*
X144383067Y-98529237D01*
X144385745Y-98524792D01*
X144641567Y-98258769D01*
X144649771Y-98255181D01*
X144658433Y-98258769D01*
G37*
%TD.AperFunction*%
%TD*%
%TA.AperFunction,Conductor*%
%TO.N,+3V3*%
G36*
X144771870Y-102713427D02*
G01*
X144775293Y-102721399D01*
X144776711Y-102776522D01*
X144781731Y-102832986D01*
X144789883Y-102881446D01*
X144800994Y-102923958D01*
X144814888Y-102962578D01*
X144831391Y-102999360D01*
X144831457Y-102999490D01*
X144831458Y-102999491D01*
X144850309Y-103036324D01*
X144850328Y-103036362D01*
X144871500Y-103075592D01*
X144871525Y-103075638D01*
X144894753Y-103119142D01*
X144894880Y-103119388D01*
X144916270Y-103161833D01*
X144916933Y-103170763D01*
X144914255Y-103175208D01*
X144658433Y-103441231D01*
X144650229Y-103444819D01*
X144641567Y-103441231D01*
X144385745Y-103175208D01*
X144382480Y-103166869D01*
X144383730Y-103161833D01*
X144405119Y-103119388D01*
X144405246Y-103119142D01*
X144428449Y-103075684D01*
X144428474Y-103075638D01*
X144449671Y-103036362D01*
X144449690Y-103036324D01*
X144468541Y-102999491D01*
X144468542Y-102999490D01*
X144468608Y-102999360D01*
X144485111Y-102962578D01*
X144499005Y-102923958D01*
X144510116Y-102881446D01*
X144518268Y-102832986D01*
X144523288Y-102776522D01*
X144524707Y-102721399D01*
X144528345Y-102713217D01*
X144536403Y-102710000D01*
X144763597Y-102710000D01*
X144771870Y-102713427D01*
G37*
%TD.AperFunction*%
%TD*%
%TA.AperFunction,Conductor*%
%TO.N,/DC*%
G36*
X138838167Y-98433730D02*
G01*
X138880611Y-98455119D01*
X138880857Y-98455246D01*
X138924361Y-98478474D01*
X138963637Y-98499671D01*
X139000639Y-98518608D01*
X139037421Y-98535111D01*
X139037616Y-98535181D01*
X139037623Y-98535184D01*
X139075798Y-98548918D01*
X139075806Y-98548921D01*
X139076041Y-98549005D01*
X139076280Y-98549068D01*
X139076285Y-98549069D01*
X139118299Y-98560050D01*
X139118307Y-98560052D01*
X139118553Y-98560116D01*
X139118812Y-98560160D01*
X139118814Y-98560160D01*
X139166793Y-98568231D01*
X139167013Y-98568268D01*
X139167235Y-98568288D01*
X139167237Y-98568288D01*
X139175925Y-98569060D01*
X139223477Y-98573288D01*
X139223660Y-98573293D01*
X139223665Y-98573293D01*
X139278601Y-98574707D01*
X139286783Y-98578345D01*
X139290000Y-98586403D01*
X139290000Y-98813597D01*
X139286573Y-98821870D01*
X139278601Y-98825293D01*
X139223665Y-98826706D01*
X139223660Y-98826706D01*
X139223477Y-98826711D01*
X139175925Y-98830939D01*
X139167237Y-98831711D01*
X139167235Y-98831711D01*
X139167013Y-98831731D01*
X139166793Y-98831768D01*
X139118814Y-98839839D01*
X139118812Y-98839839D01*
X139118553Y-98839883D01*
X139118307Y-98839947D01*
X139118299Y-98839949D01*
X139076285Y-98850930D01*
X139076280Y-98850931D01*
X139076041Y-98850994D01*
X139075806Y-98851078D01*
X139075798Y-98851081D01*
X139037623Y-98864815D01*
X139037616Y-98864818D01*
X139037421Y-98864888D01*
X139000639Y-98881391D01*
X138963637Y-98900328D01*
X138963615Y-98900340D01*
X138963607Y-98900344D01*
X138924407Y-98921500D01*
X138924361Y-98921525D01*
X138880857Y-98944753D01*
X138880611Y-98944880D01*
X138838167Y-98966270D01*
X138829237Y-98966933D01*
X138824792Y-98964255D01*
X138738624Y-98881391D01*
X138558769Y-98708433D01*
X138555181Y-98700229D01*
X138558769Y-98691567D01*
X138668127Y-98586403D01*
X138804513Y-98455246D01*
X138824792Y-98435745D01*
X138833131Y-98432480D01*
X138838167Y-98433730D01*
G37*
%TD.AperFunction*%
%TD*%
%TA.AperFunction,Conductor*%
%TO.N,/DC*%
G36*
X144121870Y-100613427D02*
G01*
X144125293Y-100621399D01*
X144126711Y-100676522D01*
X144131731Y-100732986D01*
X144139883Y-100781446D01*
X144150994Y-100823958D01*
X144164888Y-100862578D01*
X144181391Y-100899360D01*
X144181457Y-100899490D01*
X144181458Y-100899491D01*
X144200309Y-100936324D01*
X144200328Y-100936362D01*
X144221500Y-100975592D01*
X144221525Y-100975638D01*
X144244753Y-101019142D01*
X144244880Y-101019388D01*
X144266270Y-101061833D01*
X144266933Y-101070763D01*
X144264255Y-101075208D01*
X144008433Y-101341231D01*
X144000229Y-101344819D01*
X143991567Y-101341231D01*
X143735745Y-101075208D01*
X143732480Y-101066869D01*
X143733730Y-101061833D01*
X143755119Y-101019388D01*
X143755246Y-101019142D01*
X143778449Y-100975684D01*
X143778474Y-100975638D01*
X143799671Y-100936362D01*
X143799690Y-100936324D01*
X143818541Y-100899491D01*
X143818542Y-100899490D01*
X143818608Y-100899360D01*
X143835111Y-100862578D01*
X143849005Y-100823958D01*
X143860116Y-100781446D01*
X143868268Y-100732986D01*
X143873288Y-100676522D01*
X143874707Y-100621399D01*
X143878345Y-100613217D01*
X143886403Y-100610000D01*
X144113597Y-100610000D01*
X144121870Y-100613427D01*
G37*
%TD.AperFunction*%
%TD*%
%TA.AperFunction,Conductor*%
%TO.N,/MOSI*%
G36*
X141402240Y-98597437D02*
G01*
X141405828Y-98606099D01*
X141398614Y-98975099D01*
X141395026Y-98983303D01*
X141390581Y-98985981D01*
X141345446Y-99000867D01*
X141345183Y-99000951D01*
X141297993Y-99015290D01*
X141297942Y-99015305D01*
X141255302Y-99028052D01*
X141255282Y-99028058D01*
X141255233Y-99028073D01*
X141215678Y-99040846D01*
X141205822Y-99044597D01*
X141178214Y-99055104D01*
X141178202Y-99055109D01*
X141178000Y-99055186D01*
X141140867Y-99072670D01*
X141140642Y-99072802D01*
X141140634Y-99072806D01*
X141103188Y-99094735D01*
X141102951Y-99094874D01*
X141062920Y-99123376D01*
X141019445Y-99159752D01*
X141019312Y-99159878D01*
X141019309Y-99159881D01*
X140979465Y-99197727D01*
X140971106Y-99200940D01*
X140963134Y-99197517D01*
X140802482Y-99036865D01*
X140799055Y-99028592D01*
X140802271Y-99020537D01*
X140840247Y-98980554D01*
X140876623Y-98937079D01*
X140905125Y-98897048D01*
X140927329Y-98859132D01*
X140944813Y-98821999D01*
X140944890Y-98821797D01*
X140944895Y-98821785D01*
X140959098Y-98784465D01*
X140959153Y-98784321D01*
X140971926Y-98744766D01*
X140984709Y-98702006D01*
X140999048Y-98654816D01*
X140999132Y-98654553D01*
X141014019Y-98609419D01*
X141019865Y-98602636D01*
X141024901Y-98601386D01*
X141393901Y-98594172D01*
X141402240Y-98597437D01*
G37*
%TD.AperFunction*%
%TD*%
%TA.AperFunction,Conductor*%
%TO.N,/MOSI*%
G36*
X137638167Y-99533730D02*
G01*
X137680611Y-99555119D01*
X137680857Y-99555246D01*
X137724361Y-99578474D01*
X137763637Y-99599671D01*
X137800639Y-99618608D01*
X137837421Y-99635111D01*
X137837616Y-99635181D01*
X137837623Y-99635184D01*
X137875798Y-99648918D01*
X137875806Y-99648921D01*
X137876041Y-99649005D01*
X137876280Y-99649068D01*
X137876285Y-99649069D01*
X137918299Y-99660050D01*
X137918307Y-99660052D01*
X137918553Y-99660116D01*
X137918812Y-99660160D01*
X137918814Y-99660160D01*
X137966793Y-99668231D01*
X137967013Y-99668268D01*
X137967235Y-99668288D01*
X137967237Y-99668288D01*
X137975925Y-99669060D01*
X138023477Y-99673288D01*
X138023660Y-99673293D01*
X138023665Y-99673293D01*
X138078601Y-99674707D01*
X138086783Y-99678345D01*
X138090000Y-99686403D01*
X138090000Y-99913597D01*
X138086573Y-99921870D01*
X138078601Y-99925293D01*
X138023665Y-99926706D01*
X138023660Y-99926706D01*
X138023477Y-99926711D01*
X137975925Y-99930939D01*
X137967237Y-99931711D01*
X137967235Y-99931711D01*
X137967013Y-99931731D01*
X137966793Y-99931768D01*
X137918814Y-99939839D01*
X137918812Y-99939839D01*
X137918553Y-99939883D01*
X137918307Y-99939947D01*
X137918299Y-99939949D01*
X137876285Y-99950930D01*
X137876280Y-99950931D01*
X137876041Y-99950994D01*
X137875806Y-99951078D01*
X137875798Y-99951081D01*
X137837623Y-99964815D01*
X137837616Y-99964818D01*
X137837421Y-99964888D01*
X137800639Y-99981391D01*
X137763637Y-100000328D01*
X137763615Y-100000340D01*
X137763607Y-100000344D01*
X137724407Y-100021500D01*
X137724361Y-100021525D01*
X137680857Y-100044753D01*
X137680611Y-100044880D01*
X137638167Y-100066270D01*
X137629237Y-100066933D01*
X137624792Y-100064255D01*
X137538624Y-99981391D01*
X137358769Y-99808433D01*
X137355181Y-99800229D01*
X137358769Y-99791567D01*
X137468127Y-99686403D01*
X137604513Y-99555246D01*
X137624792Y-99535745D01*
X137633131Y-99532480D01*
X137638167Y-99533730D01*
G37*
%TD.AperFunction*%
%TD*%
%TA.AperFunction,Conductor*%
%TO.N,GND*%
G36*
X148742121Y-93320002D02*
G01*
X148788614Y-93373658D01*
X148800000Y-93426000D01*
X148800000Y-106174000D01*
X148779998Y-106242121D01*
X148726342Y-106288614D01*
X148674000Y-106300000D01*
X128926000Y-106300000D01*
X128857879Y-106279998D01*
X128811386Y-106226342D01*
X128800000Y-106174000D01*
X128800000Y-99800000D01*
X136940715Y-99800000D01*
X136959772Y-99944754D01*
X137015645Y-100079642D01*
X137039850Y-100111186D01*
X137094225Y-100182049D01*
X137104526Y-100195474D01*
X137111076Y-100200500D01*
X137111079Y-100200503D01*
X137208771Y-100275465D01*
X137220357Y-100284355D01*
X137355246Y-100340228D01*
X137500000Y-100359285D01*
X137508188Y-100358207D01*
X137636568Y-100341306D01*
X137636570Y-100341305D01*
X137644754Y-100340228D01*
X137652382Y-100337068D01*
X137652387Y-100337067D01*
X137722835Y-100307886D01*
X137737384Y-100302876D01*
X137754952Y-100298006D01*
X137760480Y-100295220D01*
X137760483Y-100295219D01*
X137797396Y-100276616D01*
X137799473Y-100275557D01*
X137799522Y-100275532D01*
X137799653Y-100275465D01*
X137799899Y-100275338D01*
X137803081Y-100273667D01*
X137846585Y-100250439D01*
X137847609Y-100249889D01*
X137883179Y-100230692D01*
X137885563Y-100229439D01*
X137910065Y-100216899D01*
X137915892Y-100214103D01*
X137930208Y-100207680D01*
X137939128Y-100204081D01*
X137947602Y-100201032D01*
X137958386Y-100197689D01*
X137964381Y-100196122D01*
X137967568Y-100195289D01*
X137978521Y-100192940D01*
X137995238Y-100190128D01*
X138004974Y-100188879D01*
X138034368Y-100186266D01*
X138042284Y-100185813D01*
X138079289Y-100184861D01*
X138085274Y-100184707D01*
X138095727Y-100182417D01*
X138122681Y-100179500D01*
X140146080Y-100179500D01*
X140170028Y-100182049D01*
X140171693Y-100182128D01*
X140181876Y-100184320D01*
X140192217Y-100183096D01*
X140197946Y-100182418D01*
X140215223Y-100180373D01*
X140221154Y-100180023D01*
X140221146Y-100179928D01*
X140226324Y-100179500D01*
X140231524Y-100179500D01*
X140236653Y-100178646D01*
X140236656Y-100178646D01*
X140250565Y-100176331D01*
X140256443Y-100175494D01*
X140297001Y-100170694D01*
X140297002Y-100170694D01*
X140307341Y-100169470D01*
X140315593Y-100165507D01*
X140324626Y-100164004D01*
X140333795Y-100159057D01*
X140333797Y-100159056D01*
X140369732Y-100139666D01*
X140375025Y-100136969D01*
X140414082Y-100118215D01*
X140414086Y-100118212D01*
X140421232Y-100114781D01*
X140425508Y-100111186D01*
X140427431Y-100109263D01*
X140429363Y-100107491D01*
X140429442Y-100107448D01*
X140429555Y-100107572D01*
X140430095Y-100107096D01*
X140435814Y-100104010D01*
X140472417Y-100064413D01*
X140475846Y-100060848D01*
X141128255Y-99408439D01*
X141150063Y-99391005D01*
X141158181Y-99385878D01*
X141189369Y-99356254D01*
X141195282Y-99350982D01*
X141217910Y-99332050D01*
X141225680Y-99326047D01*
X141227805Y-99324534D01*
X141239485Y-99316218D01*
X141248888Y-99310134D01*
X141257062Y-99305347D01*
X141267066Y-99300077D01*
X141275220Y-99296238D01*
X141284067Y-99292478D01*
X141292784Y-99289160D01*
X141298752Y-99286888D01*
X141304822Y-99284754D01*
X141330975Y-99276309D01*
X141333576Y-99275500D01*
X141372270Y-99263932D01*
X141373384Y-99263597D01*
X141420625Y-99249243D01*
X141424136Y-99248149D01*
X141424356Y-99248079D01*
X141424406Y-99248063D01*
X141426618Y-99247345D01*
X141426680Y-99247325D01*
X141426725Y-99247310D01*
X141471860Y-99232424D01*
X141524497Y-99208257D01*
X141527107Y-99206685D01*
X141537255Y-99201913D01*
X141579643Y-99184355D01*
X141586196Y-99179327D01*
X141688921Y-99100503D01*
X141688924Y-99100500D01*
X141695474Y-99095474D01*
X141705776Y-99082049D01*
X141772016Y-98995722D01*
X141784355Y-98979642D01*
X141801474Y-98938315D01*
X141820422Y-98892570D01*
X141840228Y-98844754D01*
X141841566Y-98834596D01*
X141858207Y-98708188D01*
X141859285Y-98700000D01*
X141855037Y-98667731D01*
X141841306Y-98563432D01*
X141841305Y-98563430D01*
X141840228Y-98555246D01*
X141835882Y-98544754D01*
X141798174Y-98453718D01*
X141790585Y-98383128D01*
X141822364Y-98319641D01*
X141883422Y-98283414D01*
X141914583Y-98279500D01*
X142090616Y-98279500D01*
X142158737Y-98299502D01*
X142179711Y-98316405D01*
X143583595Y-99720289D01*
X143617621Y-99782601D01*
X143620500Y-99809384D01*
X143620500Y-100577612D01*
X143617406Y-100605361D01*
X143615293Y-100614721D01*
X143615134Y-100620909D01*
X143614186Y-100657717D01*
X143613733Y-100665630D01*
X143611121Y-100695016D01*
X143609869Y-100704767D01*
X143607057Y-100721479D01*
X143604711Y-100732426D01*
X143602317Y-100741588D01*
X143598969Y-100752393D01*
X143595916Y-100760878D01*
X143592322Y-100769785D01*
X143585888Y-100784125D01*
X143583116Y-100789902D01*
X143570578Y-100814400D01*
X143569324Y-100816785D01*
X143550178Y-100852264D01*
X143550106Y-100852398D01*
X143549560Y-100853414D01*
X143526332Y-100896918D01*
X143524661Y-100900100D01*
X143524534Y-100900346D01*
X143523380Y-100902609D01*
X143501991Y-100945054D01*
X143481872Y-100999319D01*
X143481130Y-101002310D01*
X143477320Y-101012881D01*
X143459772Y-101055246D01*
X143440715Y-101200000D01*
X143459772Y-101344754D01*
X143515645Y-101479642D01*
X143604526Y-101595474D01*
X143611076Y-101600500D01*
X143611079Y-101600503D01*
X143713804Y-101679327D01*
X143720357Y-101684355D01*
X143855246Y-101740228D01*
X144000000Y-101759285D01*
X144008188Y-101758207D01*
X144008189Y-101758207D01*
X144128054Y-101742427D01*
X144198203Y-101753367D01*
X144251301Y-101800495D01*
X144270500Y-101867349D01*
X144270500Y-102677612D01*
X144267406Y-102705361D01*
X144265293Y-102714721D01*
X144265134Y-102720909D01*
X144264186Y-102757717D01*
X144263733Y-102765630D01*
X144261121Y-102795016D01*
X144259869Y-102804767D01*
X144257057Y-102821479D01*
X144254711Y-102832426D01*
X144252317Y-102841588D01*
X144248969Y-102852393D01*
X144245916Y-102860878D01*
X144242322Y-102869785D01*
X144235888Y-102884125D01*
X144233116Y-102889902D01*
X144220578Y-102914400D01*
X144219324Y-102916785D01*
X144200178Y-102952264D01*
X144200106Y-102952398D01*
X144199560Y-102953414D01*
X144176332Y-102996918D01*
X144174661Y-103000100D01*
X144174534Y-103000346D01*
X144173380Y-103002609D01*
X144151991Y-103045054D01*
X144131872Y-103099319D01*
X144131130Y-103102310D01*
X144127320Y-103112881D01*
X144109772Y-103155246D01*
X144090715Y-103300000D01*
X144109772Y-103444754D01*
X144110407Y-103446288D01*
X144108789Y-103514210D01*
X144065477Y-103575805D01*
X143967722Y-103650815D01*
X143878841Y-103766647D01*
X143875682Y-103774273D01*
X143875681Y-103774275D01*
X143847778Y-103841638D01*
X143822968Y-103901535D01*
X143821891Y-103909719D01*
X143821890Y-103909721D01*
X143816297Y-103952208D01*
X143803911Y-104046289D01*
X143822968Y-104191043D01*
X143878841Y-104325931D01*
X143903046Y-104357475D01*
X143956135Y-104426662D01*
X143967722Y-104441763D01*
X143974272Y-104446789D01*
X143974275Y-104446792D01*
X144071967Y-104521754D01*
X144083553Y-104530644D01*
X144218442Y-104586517D01*
X144363196Y-104605574D01*
X144371384Y-104604496D01*
X144499764Y-104587595D01*
X144499766Y-104587594D01*
X144507950Y-104586517D01*
X144515578Y-104583357D01*
X144515583Y-104583356D01*
X144586031Y-104554175D01*
X144600580Y-104549165D01*
X144618148Y-104544295D01*
X144623676Y-104541509D01*
X144623679Y-104541508D01*
X144660592Y-104522905D01*
X144662669Y-104521846D01*
X144662718Y-104521821D01*
X144662849Y-104521754D01*
X144663095Y-104521627D01*
X144666277Y-104519956D01*
X144709781Y-104496728D01*
X144710805Y-104496178D01*
X144746375Y-104476981D01*
X144748759Y-104475728D01*
X144773261Y-104463188D01*
X144779088Y-104460392D01*
X144793404Y-104453969D01*
X144802324Y-104450370D01*
X144810798Y-104447321D01*
X144821582Y-104443978D01*
X144827577Y-104442411D01*
X144830764Y-104441578D01*
X144841717Y-104439229D01*
X144858434Y-104436417D01*
X144868170Y-104435168D01*
X144897564Y-104432555D01*
X144905480Y-104432102D01*
X144932215Y-104431414D01*
X144948470Y-104430996D01*
X144954320Y-104429715D01*
X144957410Y-104429340D01*
X144976441Y-104428640D01*
X144985587Y-104430609D01*
X145018934Y-104426662D01*
X145024865Y-104426312D01*
X145024857Y-104426217D01*
X145030035Y-104425789D01*
X145035235Y-104425789D01*
X145040364Y-104424935D01*
X145040367Y-104424935D01*
X145054276Y-104422620D01*
X145060154Y-104421783D01*
X145100712Y-104416983D01*
X145100713Y-104416983D01*
X145111052Y-104415759D01*
X145119304Y-104411796D01*
X145128337Y-104410293D01*
X145137506Y-104405346D01*
X145137508Y-104405345D01*
X145173443Y-104385955D01*
X145178736Y-104383258D01*
X145217793Y-104364504D01*
X145217797Y-104364501D01*
X145224943Y-104361070D01*
X145229219Y-104357475D01*
X145231142Y-104355552D01*
X145233074Y-104353780D01*
X145233153Y-104353737D01*
X145233266Y-104353861D01*
X145233806Y-104353385D01*
X145239525Y-104350299D01*
X145276128Y-104310702D01*
X145279557Y-104307137D01*
X145504727Y-104081967D01*
X145523475Y-104066825D01*
X145524700Y-104065710D01*
X145533451Y-104060060D01*
X145539898Y-104051882D01*
X145539900Y-104051880D01*
X145554240Y-104033689D01*
X145558186Y-104029248D01*
X145558113Y-104029186D01*
X145561472Y-104025222D01*
X145565149Y-104021545D01*
X145576403Y-104005797D01*
X145579909Y-104001127D01*
X145611667Y-103960842D01*
X145614699Y-103952208D01*
X145620025Y-103944755D01*
X145634714Y-103895639D01*
X145636547Y-103889997D01*
X145650901Y-103849122D01*
X145650901Y-103849121D01*
X145653529Y-103841638D01*
X145654011Y-103836073D01*
X145654011Y-103833365D01*
X145654125Y-103830731D01*
X145654154Y-103830633D01*
X145654318Y-103830640D01*
X145654362Y-103829936D01*
X145656224Y-103823711D01*
X145654108Y-103769854D01*
X145654011Y-103764907D01*
X145654011Y-97978431D01*
X145656560Y-97954483D01*
X145656639Y-97952818D01*
X145658831Y-97942635D01*
X145654884Y-97909288D01*
X145654534Y-97903357D01*
X145654439Y-97903365D01*
X145654011Y-97898187D01*
X145654011Y-97892987D01*
X145652158Y-97881854D01*
X145650842Y-97873946D01*
X145650005Y-97868068D01*
X145645205Y-97827510D01*
X145645205Y-97827509D01*
X145643981Y-97817170D01*
X145640018Y-97808918D01*
X145638515Y-97799885D01*
X145614176Y-97754777D01*
X145611480Y-97749486D01*
X145592726Y-97710429D01*
X145592723Y-97710425D01*
X145589292Y-97703279D01*
X145585697Y-97699003D01*
X145583774Y-97697080D01*
X145582002Y-97695148D01*
X145581959Y-97695069D01*
X145582083Y-97694956D01*
X145581607Y-97694416D01*
X145578521Y-97688697D01*
X145538924Y-97652094D01*
X145535359Y-97648665D01*
X145508442Y-97621748D01*
X145491006Y-97599937D01*
X145489182Y-97597049D01*
X145489182Y-97597048D01*
X145485880Y-97591821D01*
X145481620Y-97587336D01*
X145481617Y-97587332D01*
X145456262Y-97560637D01*
X145450986Y-97554721D01*
X145432050Y-97532090D01*
X145426041Y-97524311D01*
X145425932Y-97524157D01*
X145416218Y-97510514D01*
X145410138Y-97501117D01*
X145405348Y-97492939D01*
X145400070Y-97482922D01*
X145396234Y-97474773D01*
X145392478Y-97465933D01*
X145386895Y-97451266D01*
X145384756Y-97445183D01*
X145376306Y-97419016D01*
X145375493Y-97416400D01*
X145363918Y-97377680D01*
X145363894Y-97377601D01*
X145363608Y-97376650D01*
X145363581Y-97376561D01*
X145363527Y-97376382D01*
X145349312Y-97329600D01*
X145349181Y-97329174D01*
X145348266Y-97326237D01*
X145348225Y-97326108D01*
X145348149Y-97325863D01*
X145348065Y-97325600D01*
X145347309Y-97323272D01*
X145332423Y-97278138D01*
X145308257Y-97225503D01*
X145306683Y-97222890D01*
X145301904Y-97212726D01*
X145287516Y-97177989D01*
X145287515Y-97177988D01*
X145284355Y-97170358D01*
X145195474Y-97054526D01*
X145188924Y-97049500D01*
X145188921Y-97049497D01*
X145086196Y-96970673D01*
X145086194Y-96970672D01*
X145079643Y-96965645D01*
X144944754Y-96909772D01*
X144800000Y-96890715D01*
X144791812Y-96891793D01*
X144663432Y-96908694D01*
X144663430Y-96908695D01*
X144655246Y-96909772D01*
X144607430Y-96929578D01*
X144527986Y-96962485D01*
X144527984Y-96962486D01*
X144520358Y-96965645D01*
X144404526Y-97054526D01*
X144315645Y-97170358D01*
X144259772Y-97305246D01*
X144258695Y-97313430D01*
X144258694Y-97313432D01*
X144250246Y-97377601D01*
X144240715Y-97450000D01*
X144241793Y-97458188D01*
X144258517Y-97585219D01*
X144259772Y-97594754D01*
X144276685Y-97635586D01*
X144307687Y-97710429D01*
X144315645Y-97729642D01*
X144320673Y-97736195D01*
X144320675Y-97736198D01*
X144349049Y-97773176D01*
X144374650Y-97839396D01*
X144360385Y-97908945D01*
X144325790Y-97949843D01*
X144261075Y-97999500D01*
X144261072Y-97999503D01*
X144254526Y-98004526D01*
X144165645Y-98120358D01*
X144162486Y-98127984D01*
X144162485Y-98127986D01*
X144140165Y-98181872D01*
X144109772Y-98255246D01*
X144108695Y-98263430D01*
X144108694Y-98263432D01*
X144101560Y-98317621D01*
X144090715Y-98400000D01*
X144109772Y-98544754D01*
X144142113Y-98622833D01*
X144147121Y-98637380D01*
X144150337Y-98648982D01*
X144150340Y-98648990D01*
X144151992Y-98654948D01*
X144173381Y-98697392D01*
X144174534Y-98699653D01*
X144174661Y-98699899D01*
X144174714Y-98700000D01*
X144174796Y-98700157D01*
X144176274Y-98702971D01*
X144176332Y-98703081D01*
X144199560Y-98746585D01*
X144200039Y-98747478D01*
X144200109Y-98747608D01*
X144219304Y-98783174D01*
X144220587Y-98785614D01*
X144233105Y-98810074D01*
X144235900Y-98815900D01*
X144242317Y-98830203D01*
X144245916Y-98839121D01*
X144248969Y-98847606D01*
X144252317Y-98858411D01*
X144254711Y-98867573D01*
X144257057Y-98878520D01*
X144259869Y-98895232D01*
X144261121Y-98904983D01*
X144263733Y-98934369D01*
X144264186Y-98942282D01*
X144265293Y-98985279D01*
X144267581Y-98995722D01*
X144270500Y-99022686D01*
X144270500Y-99029616D01*
X144250498Y-99097737D01*
X144196842Y-99144230D01*
X144126568Y-99154334D01*
X144061988Y-99124840D01*
X144055405Y-99118711D01*
X142606478Y-97669784D01*
X142591336Y-97651036D01*
X142590221Y-97649811D01*
X142584571Y-97641060D01*
X142576393Y-97634613D01*
X142576391Y-97634611D01*
X142558200Y-97620271D01*
X142553759Y-97616325D01*
X142553697Y-97616398D01*
X142549733Y-97613039D01*
X142546056Y-97609362D01*
X142530308Y-97598108D01*
X142525638Y-97594602D01*
X142485353Y-97562844D01*
X142476719Y-97559812D01*
X142469266Y-97554486D01*
X142420150Y-97539797D01*
X142414508Y-97537964D01*
X142373633Y-97523610D01*
X142373632Y-97523610D01*
X142366149Y-97520982D01*
X142360584Y-97520500D01*
X142357876Y-97520500D01*
X142355242Y-97520386D01*
X142355144Y-97520357D01*
X142355151Y-97520193D01*
X142354447Y-97520149D01*
X142348222Y-97518287D01*
X142294365Y-97520403D01*
X142289418Y-97520500D01*
X140753920Y-97520500D01*
X140729972Y-97517951D01*
X140728307Y-97517872D01*
X140718124Y-97515680D01*
X140707783Y-97516904D01*
X140684777Y-97519627D01*
X140678846Y-97519977D01*
X140678854Y-97520072D01*
X140673676Y-97520500D01*
X140668476Y-97520500D01*
X140663347Y-97521354D01*
X140663344Y-97521354D01*
X140649435Y-97523669D01*
X140643557Y-97524506D01*
X140602999Y-97529306D01*
X140602998Y-97529306D01*
X140592659Y-97530530D01*
X140584407Y-97534493D01*
X140575374Y-97535996D01*
X140566205Y-97540943D01*
X140566203Y-97540944D01*
X140530268Y-97560334D01*
X140524975Y-97563031D01*
X140485918Y-97581785D01*
X140485914Y-97581788D01*
X140478768Y-97585219D01*
X140474492Y-97588814D01*
X140472569Y-97590737D01*
X140470637Y-97592509D01*
X140470558Y-97592552D01*
X140470445Y-97592428D01*
X140469905Y-97592904D01*
X140464186Y-97595990D01*
X140457119Y-97603635D01*
X140427584Y-97635586D01*
X140424154Y-97639152D01*
X139779711Y-98283595D01*
X139717399Y-98317621D01*
X139690616Y-98320500D01*
X139322387Y-98320500D01*
X139294638Y-98317406D01*
X139292831Y-98316998D01*
X139285278Y-98315293D01*
X139253293Y-98314470D01*
X139242287Y-98314186D01*
X139234374Y-98313733D01*
X139211097Y-98311664D01*
X139204987Y-98311121D01*
X139195245Y-98309871D01*
X139178510Y-98307055D01*
X139167571Y-98304710D01*
X139158386Y-98302310D01*
X139147599Y-98298967D01*
X139139143Y-98295925D01*
X139130217Y-98292323D01*
X139115899Y-98285899D01*
X139110074Y-98283105D01*
X139085614Y-98270587D01*
X139083174Y-98269304D01*
X139047608Y-98250109D01*
X139046585Y-98249560D01*
X139003081Y-98226332D01*
X139002971Y-98226274D01*
X139000157Y-98224796D01*
X139000057Y-98224744D01*
X138999899Y-98224661D01*
X138999653Y-98224534D01*
X138997392Y-98223381D01*
X138954948Y-98201992D01*
X138924597Y-98190739D01*
X138903986Y-98183097D01*
X138903980Y-98183095D01*
X138900681Y-98181872D01*
X138897691Y-98181130D01*
X138887109Y-98177316D01*
X138852383Y-98162932D01*
X138844754Y-98159772D01*
X138700000Y-98140715D01*
X138691812Y-98141793D01*
X138563432Y-98158694D01*
X138563430Y-98158695D01*
X138555246Y-98159772D01*
X138507430Y-98179578D01*
X138427986Y-98212485D01*
X138427984Y-98212486D01*
X138420358Y-98215645D01*
X138378687Y-98247620D01*
X138311771Y-98298967D01*
X138304526Y-98304526D01*
X138299503Y-98311072D01*
X138294643Y-98317406D01*
X138215645Y-98420358D01*
X138212486Y-98427984D01*
X138212485Y-98427986D01*
X138180352Y-98505562D01*
X138159772Y-98555246D01*
X138158695Y-98563430D01*
X138158694Y-98563432D01*
X138144963Y-98667731D01*
X138140715Y-98700000D01*
X138141793Y-98708188D01*
X138158435Y-98834596D01*
X138159772Y-98844754D01*
X138179578Y-98892570D01*
X138198527Y-98938315D01*
X138215645Y-98979642D01*
X138227984Y-98995722D01*
X138294225Y-99082049D01*
X138304526Y-99095474D01*
X138311076Y-99100500D01*
X138311079Y-99100503D01*
X138375439Y-99149888D01*
X138420357Y-99184355D01*
X138425240Y-99186378D01*
X138473284Y-99236765D01*
X138486719Y-99306479D01*
X138460332Y-99372389D01*
X138402499Y-99413571D01*
X138361290Y-99420500D01*
X138122387Y-99420500D01*
X138094638Y-99417406D01*
X138092831Y-99416998D01*
X138085278Y-99415293D01*
X138053293Y-99414470D01*
X138042287Y-99414186D01*
X138034374Y-99413733D01*
X138011097Y-99411664D01*
X138004987Y-99411121D01*
X137995245Y-99409871D01*
X137978510Y-99407055D01*
X137967571Y-99404710D01*
X137958386Y-99402310D01*
X137947599Y-99398967D01*
X137939143Y-99395925D01*
X137930217Y-99392323D01*
X137915899Y-99385899D01*
X137910074Y-99383105D01*
X137907171Y-99381619D01*
X137885598Y-99370579D01*
X137883174Y-99369304D01*
X137847608Y-99350109D01*
X137846585Y-99349560D01*
X137841494Y-99346842D01*
X137803081Y-99326332D01*
X137802971Y-99326274D01*
X137800157Y-99324796D01*
X137800057Y-99324744D01*
X137799899Y-99324661D01*
X137799653Y-99324534D01*
X137797392Y-99323381D01*
X137754948Y-99301992D01*
X137739429Y-99296238D01*
X137703986Y-99283097D01*
X137703980Y-99283095D01*
X137700681Y-99281872D01*
X137697691Y-99281130D01*
X137687109Y-99277316D01*
X137652383Y-99262932D01*
X137644754Y-99259772D01*
X137500000Y-99240715D01*
X137491812Y-99241793D01*
X137363432Y-99258694D01*
X137363430Y-99258695D01*
X137355246Y-99259772D01*
X137307430Y-99279578D01*
X137227986Y-99312485D01*
X137227984Y-99312486D01*
X137220358Y-99315645D01*
X137148756Y-99370587D01*
X137122150Y-99391003D01*
X137104526Y-99404526D01*
X137099503Y-99411072D01*
X137094643Y-99417406D01*
X137015645Y-99520358D01*
X136959772Y-99655246D01*
X136940715Y-99800000D01*
X128800000Y-99800000D01*
X128800000Y-93426000D01*
X128820002Y-93357879D01*
X128873658Y-93311386D01*
X128926000Y-93300000D01*
X148674000Y-93300000D01*
X148742121Y-93320002D01*
G37*
%TD.AperFunction*%
%TD*%
M02*
