%TF.GenerationSoftware,KiCad,Pcbnew,6.0.4*%
%TF.CreationDate,2022-06-18T10:37:32+08:00*%
%TF.ProjectId,screen_sub_board,73637265-656e-45f7-9375-625f626f6172,rev?*%
%TF.SameCoordinates,Original*%
%TF.FileFunction,Legend,Top*%
%TF.FilePolarity,Positive*%
%FSLAX46Y46*%
G04 Gerber Fmt 4.6, Leading zero omitted, Abs format (unit mm)*
G04 Created by KiCad (PCBNEW 6.0.4) date 2022-06-18 10:37:32*
%MOMM*%
%LPD*%
G01*
G04 APERTURE LIST*
G04 Aperture macros list*
%AMRoundRect*
0 Rectangle with rounded corners*
0 $1 Rounding radius*
0 $2 $3 $4 $5 $6 $7 $8 $9 X,Y pos of 4 corners*
0 Add a 4 corners polygon primitive as box body*
4,1,4,$2,$3,$4,$5,$6,$7,$8,$9,$2,$3,0*
0 Add four circle primitives for the rounded corners*
1,1,$1+$1,$2,$3*
1,1,$1+$1,$4,$5*
1,1,$1+$1,$6,$7*
1,1,$1+$1,$8,$9*
0 Add four rect primitives between the rounded corners*
20,1,$1+$1,$2,$3,$4,$5,0*
20,1,$1+$1,$4,$5,$6,$7,0*
20,1,$1+$1,$6,$7,$8,$9,0*
20,1,$1+$1,$8,$9,$2,$3,0*%
%AMOutline5P*
0 Free polygon, 5 corners , with rotation*
0 The origin of the aperture is its center*
0 number of corners: always 5*
0 $1 to $10 corner X, Y*
0 $11 Rotation angle, in degrees counterclockwise*
0 create outline with 5 corners*
4,1,5,$1,$2,$3,$4,$5,$6,$7,$8,$9,$10,$1,$2,$11*%
%AMOutline6P*
0 Free polygon, 6 corners , with rotation*
0 The origin of the aperture is its center*
0 number of corners: always 6*
0 $1 to $12 corner X, Y*
0 $13 Rotation angle, in degrees counterclockwise*
0 create outline with 6 corners*
4,1,6,$1,$2,$3,$4,$5,$6,$7,$8,$9,$10,$11,$12,$1,$2,$13*%
%AMOutline7P*
0 Free polygon, 7 corners , with rotation*
0 The origin of the aperture is its center*
0 number of corners: always 7*
0 $1 to $14 corner X, Y*
0 $15 Rotation angle, in degrees counterclockwise*
0 create outline with 7 corners*
4,1,7,$1,$2,$3,$4,$5,$6,$7,$8,$9,$10,$11,$12,$13,$14,$1,$2,$15*%
%AMOutline8P*
0 Free polygon, 8 corners , with rotation*
0 The origin of the aperture is its center*
0 number of corners: always 8*
0 $1 to $16 corner X, Y*
0 $17 Rotation angle, in degrees counterclockwise*
0 create outline with 8 corners*
4,1,8,$1,$2,$3,$4,$5,$6,$7,$8,$9,$10,$11,$12,$13,$14,$15,$16,$1,$2,$17*%
G04 Aperture macros list end*
%ADD10C,0.200000*%
%ADD11C,0.150000*%
%ADD12C,0.120000*%
%ADD13RoundRect,0.150000X-0.150000X0.587500X-0.150000X-0.587500X0.150000X-0.587500X0.150000X0.587500X0*%
%ADD14RoundRect,0.135000X0.135000X0.185000X-0.135000X0.185000X-0.135000X-0.185000X0.135000X-0.185000X0*%
%ADD15R,1.100000X0.300000*%
%ADD16R,3.100000X2.300000*%
%ADD17RoundRect,0.140000X0.140000X0.170000X-0.140000X0.170000X-0.140000X-0.170000X0.140000X-0.170000X0*%
%ADD18Outline5P,-1.250000X0.000000X-1.075000X0.175000X1.250000X0.175000X1.250000X-0.175000X-1.250000X-0.175000X0.000000*%
%ADD19RoundRect,0.087500X-1.162500X-0.087500X1.162500X-0.087500X1.162500X0.087500X-1.162500X0.087500X0*%
%ADD20RoundRect,0.135000X-0.135000X-0.185000X0.135000X-0.185000X0.135000X0.185000X-0.135000X0.185000X0*%
G04 APERTURE END LIST*
D10*
X129037142Y-109002857D02*
X129037142Y-107802857D01*
X129037142Y-108374285D02*
X129722857Y-108374285D01*
X129722857Y-109002857D02*
X129722857Y-107802857D01*
X130465714Y-109002857D02*
X130351428Y-108945714D01*
X130294285Y-108888571D01*
X130237142Y-108774285D01*
X130237142Y-108431428D01*
X130294285Y-108317142D01*
X130351428Y-108260000D01*
X130465714Y-108202857D01*
X130637142Y-108202857D01*
X130751428Y-108260000D01*
X130808571Y-108317142D01*
X130865714Y-108431428D01*
X130865714Y-108774285D01*
X130808571Y-108888571D01*
X130751428Y-108945714D01*
X130637142Y-109002857D01*
X130465714Y-109002857D01*
X131551428Y-109002857D02*
X131437142Y-108945714D01*
X131380000Y-108831428D01*
X131380000Y-107802857D01*
X132180000Y-109002857D02*
X132065714Y-108945714D01*
X132008571Y-108888571D01*
X131951428Y-108774285D01*
X131951428Y-108431428D01*
X132008571Y-108317142D01*
X132065714Y-108260000D01*
X132180000Y-108202857D01*
X132351428Y-108202857D01*
X132465714Y-108260000D01*
X132522857Y-108317142D01*
X132580000Y-108431428D01*
X132580000Y-108774285D01*
X132522857Y-108888571D01*
X132465714Y-108945714D01*
X132351428Y-109002857D01*
X132180000Y-109002857D01*
X133780000Y-108888571D02*
X133722857Y-108945714D01*
X133551428Y-109002857D01*
X133437142Y-109002857D01*
X133265714Y-108945714D01*
X133151428Y-108831428D01*
X133094285Y-108717142D01*
X133037142Y-108488571D01*
X133037142Y-108317142D01*
X133094285Y-108088571D01*
X133151428Y-107974285D01*
X133265714Y-107860000D01*
X133437142Y-107802857D01*
X133551428Y-107802857D01*
X133722857Y-107860000D01*
X133780000Y-107917142D01*
X134808571Y-108202857D02*
X134808571Y-109002857D01*
X134294285Y-108202857D02*
X134294285Y-108831428D01*
X134351428Y-108945714D01*
X134465714Y-109002857D01*
X134637142Y-109002857D01*
X134751428Y-108945714D01*
X134808571Y-108888571D01*
X135380000Y-109002857D02*
X135380000Y-107802857D01*
X135380000Y-108260000D02*
X135494285Y-108202857D01*
X135722857Y-108202857D01*
X135837142Y-108260000D01*
X135894285Y-108317142D01*
X135951428Y-108431428D01*
X135951428Y-108774285D01*
X135894285Y-108888571D01*
X135837142Y-108945714D01*
X135722857Y-109002857D01*
X135494285Y-109002857D01*
X135380000Y-108945714D01*
X136465714Y-109002857D02*
X136465714Y-108202857D01*
X136465714Y-107802857D02*
X136408571Y-107860000D01*
X136465714Y-107917142D01*
X136522857Y-107860000D01*
X136465714Y-107802857D01*
X136465714Y-107917142D01*
X137551428Y-108945714D02*
X137437142Y-109002857D01*
X137208571Y-109002857D01*
X137094285Y-108945714D01*
X137037142Y-108888571D01*
X136980000Y-108774285D01*
X136980000Y-108431428D01*
X137037142Y-108317142D01*
X137094285Y-108260000D01*
X137208571Y-108202857D01*
X137437142Y-108202857D01*
X137551428Y-108260000D01*
X138065714Y-108545714D02*
X138980000Y-108545714D01*
X140122857Y-109002857D02*
X139551428Y-109002857D01*
X139551428Y-107802857D01*
X141208571Y-108888571D02*
X141151428Y-108945714D01*
X140980000Y-109002857D01*
X140865714Y-109002857D01*
X140694285Y-108945714D01*
X140580000Y-108831428D01*
X140522857Y-108717142D01*
X140465714Y-108488571D01*
X140465714Y-108317142D01*
X140522857Y-108088571D01*
X140580000Y-107974285D01*
X140694285Y-107860000D01*
X140865714Y-107802857D01*
X140980000Y-107802857D01*
X141151428Y-107860000D01*
X141208571Y-107917142D01*
X141722857Y-109002857D02*
X141722857Y-107802857D01*
X142008571Y-107802857D01*
X142180000Y-107860000D01*
X142294285Y-107974285D01*
X142351428Y-108088571D01*
X142408571Y-108317142D01*
X142408571Y-108488571D01*
X142351428Y-108717142D01*
X142294285Y-108831428D01*
X142180000Y-108945714D01*
X142008571Y-109002857D01*
X141722857Y-109002857D01*
X142922857Y-108545714D02*
X143837142Y-108545714D01*
X144237142Y-107802857D02*
X144637142Y-109002857D01*
X145037142Y-107802857D01*
X146065714Y-109002857D02*
X145380000Y-109002857D01*
X145722857Y-109002857D02*
X145722857Y-107802857D01*
X145608571Y-107974285D01*
X145494285Y-108088571D01*
X145380000Y-108145714D01*
X146580000Y-108888571D02*
X146637142Y-108945714D01*
X146580000Y-109002857D01*
X146522857Y-108945714D01*
X146580000Y-108888571D01*
X146580000Y-109002857D01*
X147380000Y-107802857D02*
X147494285Y-107802857D01*
X147608571Y-107860000D01*
X147665714Y-107917142D01*
X147722857Y-108031428D01*
X147780000Y-108260000D01*
X147780000Y-108545714D01*
X147722857Y-108774285D01*
X147665714Y-108888571D01*
X147608571Y-108945714D01*
X147494285Y-109002857D01*
X147380000Y-109002857D01*
X147265714Y-108945714D01*
X147208571Y-108888571D01*
X147151428Y-108774285D01*
X147094285Y-108545714D01*
X147094285Y-108260000D01*
X147151428Y-108031428D01*
X147208571Y-107917142D01*
X147265714Y-107860000D01*
X147380000Y-107802857D01*
D11*
%TO.C,Q1*%
X140523809Y-101638095D02*
X140447619Y-101600000D01*
X140371428Y-101523809D01*
X140257142Y-101409523D01*
X140180952Y-101371428D01*
X140104761Y-101371428D01*
X140142857Y-101561904D02*
X140066666Y-101523809D01*
X139990476Y-101447619D01*
X139952380Y-101295238D01*
X139952380Y-101028571D01*
X139990476Y-100876190D01*
X140066666Y-100800000D01*
X140142857Y-100761904D01*
X140295238Y-100761904D01*
X140371428Y-100800000D01*
X140447619Y-100876190D01*
X140485714Y-101028571D01*
X140485714Y-101295238D01*
X140447619Y-101447619D01*
X140371428Y-101523809D01*
X140295238Y-101561904D01*
X140142857Y-101561904D01*
X141247619Y-101561904D02*
X140790476Y-101561904D01*
X141019047Y-101561904D02*
X141019047Y-100761904D01*
X140942857Y-100876190D01*
X140866666Y-100952380D01*
X140790476Y-100990476D01*
%TO.C,R1*%
X143316666Y-101611904D02*
X143050000Y-101230952D01*
X142859523Y-101611904D02*
X142859523Y-100811904D01*
X143164285Y-100811904D01*
X143240476Y-100850000D01*
X143278571Y-100888095D01*
X143316666Y-100964285D01*
X143316666Y-101078571D01*
X143278571Y-101154761D01*
X143240476Y-101192857D01*
X143164285Y-101230952D01*
X142859523Y-101230952D01*
X144078571Y-101611904D02*
X143621428Y-101611904D01*
X143850000Y-101611904D02*
X143850000Y-100811904D01*
X143773809Y-100926190D01*
X143697619Y-101002380D01*
X143621428Y-101040476D01*
%TO.C,J1*%
X128308333Y-98361904D02*
X128308333Y-98933333D01*
X128270238Y-99047619D01*
X128194047Y-99123809D01*
X128079761Y-99161904D01*
X128003571Y-99161904D01*
X129108333Y-99161904D02*
X128651190Y-99161904D01*
X128879761Y-99161904D02*
X128879761Y-98361904D01*
X128803571Y-98476190D01*
X128727380Y-98552380D01*
X128651190Y-98590476D01*
%TO.C,C1*%
X143316666Y-99485714D02*
X143278571Y-99523809D01*
X143164285Y-99561904D01*
X143088095Y-99561904D01*
X142973809Y-99523809D01*
X142897619Y-99447619D01*
X142859523Y-99371428D01*
X142821428Y-99219047D01*
X142821428Y-99104761D01*
X142859523Y-98952380D01*
X142897619Y-98876190D01*
X142973809Y-98800000D01*
X143088095Y-98761904D01*
X143164285Y-98761904D01*
X143278571Y-98800000D01*
X143316666Y-98838095D01*
X144078571Y-99561904D02*
X143621428Y-99561904D01*
X143850000Y-99561904D02*
X143850000Y-98761904D01*
X143773809Y-98876190D01*
X143697619Y-98952380D01*
X143621428Y-98990476D01*
%TO.C,U1*%
X145790476Y-94761904D02*
X145790476Y-95409523D01*
X145828571Y-95485714D01*
X145866666Y-95523809D01*
X145942857Y-95561904D01*
X146095238Y-95561904D01*
X146171428Y-95523809D01*
X146209523Y-95485714D01*
X146247619Y-95409523D01*
X146247619Y-94761904D01*
X147047619Y-95561904D02*
X146590476Y-95561904D01*
X146819047Y-95561904D02*
X146819047Y-94761904D01*
X146742857Y-94876190D01*
X146666666Y-94952380D01*
X146590476Y-94990476D01*
%TO.C,R2*%
X143316666Y-98511904D02*
X143050000Y-98130952D01*
X142859523Y-98511904D02*
X142859523Y-97711904D01*
X143164285Y-97711904D01*
X143240476Y-97750000D01*
X143278571Y-97788095D01*
X143316666Y-97864285D01*
X143316666Y-97978571D01*
X143278571Y-98054761D01*
X143240476Y-98092857D01*
X143164285Y-98130952D01*
X142859523Y-98130952D01*
X143621428Y-97788095D02*
X143659523Y-97750000D01*
X143735714Y-97711904D01*
X143926190Y-97711904D01*
X144002380Y-97750000D01*
X144040476Y-97788095D01*
X144078571Y-97864285D01*
X144078571Y-97940476D01*
X144040476Y-98054761D01*
X143583333Y-98511904D01*
X144078571Y-98511904D01*
%TO.C,C2*%
X143266666Y-100485714D02*
X143228571Y-100523809D01*
X143114285Y-100561904D01*
X143038095Y-100561904D01*
X142923809Y-100523809D01*
X142847619Y-100447619D01*
X142809523Y-100371428D01*
X142771428Y-100219047D01*
X142771428Y-100104761D01*
X142809523Y-99952380D01*
X142847619Y-99876190D01*
X142923809Y-99800000D01*
X143038095Y-99761904D01*
X143114285Y-99761904D01*
X143228571Y-99800000D01*
X143266666Y-99838095D01*
X143571428Y-99838095D02*
X143609523Y-99800000D01*
X143685714Y-99761904D01*
X143876190Y-99761904D01*
X143952380Y-99800000D01*
X143990476Y-99838095D01*
X144028571Y-99914285D01*
X144028571Y-99990476D01*
X143990476Y-100104761D01*
X143533333Y-100561904D01*
X144028571Y-100561904D01*
D12*
%TO.C,Q1*%
X142360000Y-103700000D02*
X142360000Y-104350000D01*
X139240000Y-103700000D02*
X139240000Y-104350000D01*
X142360000Y-103700000D02*
X142360000Y-102025000D01*
X139240000Y-103700000D02*
X139240000Y-103050000D01*
%TO.C,R1*%
X143553641Y-105380000D02*
X143246359Y-105380000D01*
X143553641Y-104620000D02*
X143246359Y-104620000D01*
%TO.C,J1*%
X133715000Y-103515000D02*
X133715000Y-103625000D01*
X133715000Y-103625000D02*
X134315000Y-103625000D01*
X131125000Y-100750000D02*
X131525000Y-100550000D01*
X131525000Y-100550000D02*
X131125000Y-100350000D01*
X131125000Y-100350000D02*
X131125000Y-100750000D01*
X133715000Y-93975000D02*
X134315000Y-93975000D01*
X133715000Y-94085000D02*
X133715000Y-93975000D01*
%TO.C,C1*%
X143507836Y-102840000D02*
X143292164Y-102840000D01*
X143507836Y-103560000D02*
X143292164Y-103560000D01*
%TO.C,U1*%
X145725000Y-107250000D02*
X148225000Y-107250000D01*
X145775000Y-95850000D02*
X149475000Y-95850000D01*
%TO.C,R2*%
X143246359Y-101920000D02*
X143553641Y-101920000D01*
X143246359Y-102680000D02*
X143553641Y-102680000D01*
%TO.C,C2*%
X143507836Y-103740000D02*
X143292164Y-103740000D01*
X143507836Y-104460000D02*
X143292164Y-104460000D01*
%TD*%
%LPC*%
D13*
%TO.C,Q1*%
X141750000Y-102762500D03*
X139850000Y-102762500D03*
X140800000Y-104637500D03*
%TD*%
D14*
%TO.C,R1*%
X143910000Y-105000000D03*
X142890000Y-105000000D03*
%TD*%
D15*
%TO.C,J1*%
X130325000Y-100550000D03*
X130325000Y-100050000D03*
X130325000Y-99550000D03*
X130325000Y-99050000D03*
X130325000Y-98550000D03*
X130325000Y-98050000D03*
X130325000Y-97550000D03*
X130325000Y-97050000D03*
D16*
X132025000Y-102220000D03*
X132025000Y-95380000D03*
%TD*%
D17*
%TO.C,C1*%
X143880000Y-103200000D03*
X142920000Y-103200000D03*
%TD*%
D18*
%TO.C,U1*%
X146975000Y-105400000D03*
D19*
X146975000Y-104700000D03*
X146975000Y-104000000D03*
X146975000Y-103300000D03*
X146975000Y-102600000D03*
X146975000Y-101900000D03*
X146975000Y-101200000D03*
X146975000Y-100500000D03*
X146975000Y-99800000D03*
X146975000Y-99100000D03*
X146975000Y-98400000D03*
X146975000Y-97700000D03*
%TD*%
D20*
%TO.C,R2*%
X142890000Y-102300000D03*
X143910000Y-102300000D03*
%TD*%
D17*
%TO.C,C2*%
X143880000Y-104100000D03*
X142920000Y-104100000D03*
%TD*%
M02*
