M48
; DRILL file {KiCad 6.0.4} date 2022年06月17日 星期五 20时55分26秒
; FORMAT={-:-/ absolute / inch / decimal}
; #@! TF.CreationDate,2022-06-17T20:55:26+08:00
; #@! TF.GenerationSoftware,Kicad,Pcbnew,6.0.4
; #@! TF.FileFunction,Plated,1,4,PTH
FMAT,2
INCH
; #@! TA.AperFunction,Plated,PTH,ViaDrill
T1C0.0118
; #@! TA.AperFunction,Plated,PTH,ComponentDrill
T2C0.0118
; #@! TA.AperFunction,Plated,PTH,ViaDrill
T3C0.0157
; #@! TA.AperFunction,Plated,PTH,ViaDrill
T4C0.0197
; #@! TA.AperFunction,Plated,PTH,ComponentDrill
T5C0.0236
%
G90
G05
T1
X4.752Y-4.1831
X4.752Y-4.2126
X4.752Y-4.2402
X4.752Y-4.2677
X4.752Y-4.2953
X4.752Y-4.3228
X4.7677Y-4.3465
X4.7953Y-4.3307
X4.8169Y-4.2709
X4.8181Y-4.1976
X4.8228Y-4.3504
X4.8602Y-4.1122
X4.8661Y-4.0531
X4.8698Y-4.1831
X4.8701Y-4.5157
X4.8701Y-4.5551
X4.8701Y-4.5945
X4.8701Y-4.6378
X4.8701Y-4.6772
X4.876Y-4.0827
X4.8819Y-4.0217
X4.8856Y-4.2232
X4.8856Y-4.246
X4.8926Y-4.1786
X4.8937Y-4.6969
X4.8938Y-4.1558
X4.8957Y-4.2028
X4.8996Y-4.0551
X4.9055Y-4.0925
X4.9213Y-4.0217
X4.9213Y-4.6969
X4.9272Y-4.1358
X4.937Y-4.065
X4.9439Y-4.1181
X4.9469Y-4.6949
X4.9528Y-4.4685
X4.9606Y-4.0217
X4.9724Y-4.0827
X4.9843Y-4.0512
X4.9921Y-4.2283
X5.0Y-4.0217
X5.0039Y-4.5787
X5.0059Y-4.624
X5.0176Y-4.067
X5.0394Y-4.0217
X5.0394Y-4.3504
X5.0433Y-4.2953
X5.0433Y-4.3228
X5.0433Y-4.378
X5.0433Y-4.6063
X5.0439Y-4.5368
X5.0463Y-4.6329
X5.0527Y-4.0709
X5.0591Y-4.5571
X5.0748Y-4.2953
X5.0748Y-4.3228
X5.0748Y-4.3504
X5.0748Y-4.378
X5.0763Y-4.0492
X5.0787Y-4.0217
X5.1024Y-4.378
X5.1033Y-4.3504
X5.1053Y-4.3228
X5.1063Y-4.2953
X5.1181Y-4.0217
X5.122Y-4.0866
X5.1339Y-4.3504
X5.1339Y-4.378
X5.1368Y-4.2953
X5.1378Y-4.3228
X5.1417Y-4.0551
X5.1575Y-4.0217
X5.1732Y-4.6811
X5.1772Y-4.5906
X5.1969Y-4.0217
X5.1988Y-4.5138
X5.2047Y-4.4685
X5.2047Y-4.5906
X5.2065Y-4.1589
X5.2087Y-4.7008
X5.2106Y-4.5354
X5.2126Y-4.1142
X5.2165Y-4.563
X5.2205Y-4.0886
X5.2323Y-4.6772
X5.2362Y-4.0217
X5.2423Y-4.1634
X5.2472Y-4.2646
X5.2479Y-4.314
X5.252Y-4.0984
X5.2638Y-4.6772
X5.2756Y-4.0217
X5.2756Y-4.6378
X5.2783Y-4.3622
X5.2795Y-4.1378
X5.2835Y-4.6634
X5.2913Y-4.0925
X5.2992Y-4.2953
X5.3012Y-4.1181
X5.3031Y-4.0236
X5.311Y-4.3386
X5.3228Y-4.0925
X5.3228Y-4.1535
X5.3366Y-4.1181
X5.3406Y-4.0669
X5.3563Y-4.0453
X5.3661Y-4.0197
X5.3661Y-4.0866
X5.3661Y-4.4173
X5.372Y-4.248
X5.374Y-4.3898
X5.378Y-4.128
X5.378Y-4.1732
X5.3878Y-4.0512
X5.3878Y-4.2008
X5.3937Y-4.0217
X5.3976Y-4.0827
X5.3976Y-4.2362
X5.3976Y-4.2717
X5.4016Y-4.1102
X5.4134Y-4.2087
X5.4173Y-4.1339
X5.4173Y-4.1811
X5.4193Y-4.0492
X5.4331Y-4.0945
X5.437Y-4.7008
X5.4409Y-4.0315
X5.4469Y-4.4783
X5.4508Y-4.061
X5.4685Y-4.685
X5.4724Y-4.0217
X5.4882Y-4.0492
X5.5Y-4.7047
X5.5059Y-4.0236
X5.5236Y-4.2264
X5.5256Y-4.3071
X5.5285Y-4.0433
X5.5315Y-4.6378
X5.5354Y-4.689
X5.5472Y-4.0217
X5.5689Y-4.0492
X5.5689Y-4.1378
X5.5709Y-4.689
X5.5768Y-4.0807
X5.5807Y-4.1732
X5.5846Y-4.0236
X5.5846Y-4.2677
X5.5906Y-4.2303
X5.5965Y-4.3031
X5.6024Y-4.0492
X5.6063Y-4.689
X5.6102Y-4.4567
X5.6122Y-4.0866
X5.6142Y-4.122
X5.6142Y-4.3937
X5.6181Y-4.4921
X5.6201Y-4.0236
X5.626Y-4.1654
X5.626Y-4.2126
X5.626Y-4.2677
X5.626Y-4.3543
X5.6358Y-4.315
X5.6693Y-4.1535
X5.6693Y-4.2126
X5.6693Y-4.252
X5.6693Y-4.3701
X5.6772Y-4.311
T2
X5.4193Y-4.0089
T3
X5.4902Y-4.6083
X5.5669Y-4.5394
X5.5669Y-4.5945
X5.6024Y-4.5669
X5.6024Y-4.6299
T4
X5.247Y-4.4213
X5.3159Y-4.4213
T5
G00X5.485Y-4.0917
M15
G01X5.5283Y-4.0917
M16
G05
G00X5.485Y-4.4319
M15
G01X5.5283Y-4.4319
M16
G05
G00X5.6594Y-4.0917
M15
G01X5.6831Y-4.0917
M16
G05
G00X5.6594Y-4.4319
M15
G01X5.6831Y-4.4319
M16
G05
T0
M30
