%TF.GenerationSoftware,KiCad,Pcbnew,6.0.4*%
%TF.CreationDate,2022-06-17T20:55:26+08:00*%
%TF.ProjectId,holocubic,686f6c6f-6375-4626-9963-2e6b69636164,rev?*%
%TF.SameCoordinates,Original*%
%TF.FileFunction,Copper,L2,Inr*%
%TF.FilePolarity,Positive*%
%FSLAX46Y46*%
G04 Gerber Fmt 4.6, Leading zero omitted, Abs format (unit mm)*
G04 Created by KiCad (PCBNEW 6.0.4) date 2022-06-17 20:55:26*
%MOMM*%
%LPD*%
G01*
G04 APERTURE LIST*
%TA.AperFunction,ComponentPad*%
%ADD10R,0.900000X0.500000*%
%TD*%
%TA.AperFunction,ComponentPad*%
%ADD11O,1.600000X1.000000*%
%TD*%
%TA.AperFunction,ComponentPad*%
%ADD12O,2.100000X1.000000*%
%TD*%
%TA.AperFunction,ViaPad*%
%ADD13C,0.450000*%
%TD*%
%TA.AperFunction,ViaPad*%
%ADD14C,0.600000*%
%TD*%
%TA.AperFunction,ViaPad*%
%ADD15C,0.800000*%
%TD*%
G04 APERTURE END LIST*
D10*
%TO.N,GND*%
%TO.C,AE1*%
X137650000Y-101825000D03*
%TD*%
D11*
%TO.N,GND*%
%TO.C,J2*%
X144050000Y-112570000D03*
D12*
X139870000Y-103930000D03*
D11*
X144050000Y-103930000D03*
D12*
X139870000Y-112570000D03*
%TD*%
D13*
%TO.N,GND*%
X142700000Y-114100000D03*
X134900000Y-110200000D03*
X142150000Y-109300000D03*
X129675000Y-109800000D03*
X120700000Y-107000000D03*
X132900000Y-118800000D03*
X126800000Y-107400000D03*
X123700000Y-117800000D03*
X142600000Y-104700000D03*
X135200000Y-103950000D03*
X128000000Y-110500000D03*
X136300000Y-112200000D03*
X128000000Y-102150000D03*
X137000000Y-102150000D03*
X142400000Y-119100000D03*
X142900000Y-110600000D03*
X125800000Y-113500000D03*
X123450000Y-104450000D03*
X135650000Y-103300000D03*
X129700000Y-109100000D03*
X128100000Y-117000000D03*
X128175000Y-117675000D03*
X130475000Y-109100000D03*
X139850000Y-102200000D03*
X137200000Y-104400000D03*
X125000000Y-119300000D03*
X131500000Y-116600000D03*
X124300000Y-119300000D03*
X137500000Y-106900000D03*
X134400000Y-103950000D03*
X138000000Y-104000000D03*
X124600000Y-103950000D03*
X134600000Y-109100000D03*
X132600000Y-103850000D03*
X134650000Y-104600000D03*
X130000000Y-102150000D03*
X128100000Y-111200000D03*
X140900000Y-102150000D03*
X123600000Y-102950000D03*
X142900000Y-107000000D03*
X123700000Y-116700000D03*
X128900000Y-109100000D03*
X133000000Y-102150000D03*
X135200000Y-105500000D03*
X136850000Y-102900000D03*
X134700000Y-102200000D03*
X143150000Y-109600000D03*
X144200000Y-109500000D03*
X120700000Y-108400000D03*
X142750000Y-102200000D03*
X144000000Y-105500000D03*
X128900000Y-110500000D03*
X134000000Y-102150000D03*
X131000000Y-102150000D03*
X141500000Y-119100000D03*
X120700000Y-107700000D03*
X142500000Y-113200000D03*
X138450000Y-103150000D03*
X139400000Y-102850000D03*
X130400000Y-111200000D03*
X123700000Y-114700000D03*
X137100000Y-103700000D03*
X138100000Y-119400000D03*
X136300000Y-102100000D03*
X142900000Y-105800000D03*
X126000000Y-102150000D03*
X124000000Y-102150000D03*
X125650000Y-119250000D03*
X139000000Y-102150000D03*
X138200000Y-102400000D03*
X136500000Y-111500000D03*
X136600000Y-104850000D03*
X141450000Y-105100000D03*
X142900000Y-108400000D03*
X123700000Y-118800000D03*
X136050000Y-102750000D03*
X137600000Y-106200000D03*
X136850000Y-106700000D03*
X141650000Y-103650000D03*
X127000000Y-102150000D03*
X138900000Y-119000000D03*
X130400000Y-110500000D03*
X128337500Y-103400000D03*
X128100000Y-109100000D03*
X134200000Y-118450000D03*
X136600000Y-106000000D03*
X129600000Y-111200000D03*
X137650000Y-102850000D03*
X128900000Y-111200000D03*
X132200000Y-116600000D03*
X122500000Y-110500000D03*
X136300000Y-103800000D03*
X130500000Y-109800000D03*
X135550000Y-104600000D03*
X120700000Y-106250000D03*
X144000000Y-111000000D03*
X123700000Y-115700000D03*
X141450000Y-102850000D03*
X132200000Y-113500000D03*
X126300000Y-103700000D03*
X141850000Y-102200000D03*
X137100000Y-108500000D03*
X141750000Y-106000000D03*
X132400000Y-104500000D03*
X144000000Y-108000000D03*
X142600000Y-111600000D03*
X120700000Y-109100000D03*
X132500000Y-115900000D03*
X128900000Y-109800000D03*
X131400000Y-118900000D03*
X137100000Y-107600000D03*
X144000000Y-107000000D03*
X140600000Y-119100000D03*
X133700000Y-118800000D03*
X121100000Y-110400000D03*
X136450000Y-107900000D03*
X129000000Y-102150000D03*
X132000000Y-102150000D03*
X142300000Y-102850000D03*
X121800000Y-110000000D03*
X125000000Y-102150000D03*
X124450000Y-103000000D03*
X128100000Y-109800000D03*
X120700000Y-109800000D03*
X140425000Y-102700000D03*
X137600000Y-105000000D03*
X123850000Y-103700000D03*
X142000000Y-107450000D03*
X139700000Y-119500000D03*
X141850000Y-108400000D03*
X133400000Y-104100000D03*
X129625000Y-110500000D03*
X128937500Y-102850000D03*
X142550000Y-103800000D03*
%TO.N,+5V*%
X132300000Y-119400000D03*
X127150000Y-117450000D03*
D14*
X139450000Y-117050000D03*
D13*
%TO.N,+3V3*%
X134100000Y-105100000D03*
X140500000Y-117800000D03*
X123694020Y-106250000D03*
D14*
X141400000Y-116700000D03*
X142300000Y-117600000D03*
D13*
X134000000Y-117800000D03*
X134070000Y-110800000D03*
X127100000Y-116300000D03*
X126600000Y-102900000D03*
D14*
X141400000Y-115300000D03*
X142300000Y-116000000D03*
D13*
X138350000Y-113750000D03*
X130600000Y-103000000D03*
X130100000Y-103800000D03*
%TO.N,/RST*%
X127447500Y-103302500D03*
%TO.N,Net-(C12-Pad2)*%
X122350000Y-108480000D03*
%TO.N,Net-(C17-Pad1)*%
X122380000Y-106620000D03*
%TO.N,Net-(J2-PadA5)*%
X140350000Y-109400000D03*
%TO.N,/USB_D+*%
X128114309Y-115235691D03*
X132050000Y-114650000D03*
%TO.N,/USB_D-*%
X132350000Y-115200000D03*
X128500000Y-115750000D03*
%TO.N,Net-(J2-PadB5)*%
X140300000Y-107350000D03*
D15*
%TO.N,Net-(TP7-Pad1)*%
X133275000Y-112300000D03*
%TO.N,Net-(TP8-Pad1)*%
X135025000Y-112300000D03*
D13*
%TO.N,/TX0*%
X133297279Y-109575500D03*
%TO.N,/RX0*%
X133278619Y-108321381D03*
%TO.N,/IO0*%
X125400000Y-103250000D03*
%TO.N,/I2S_DACDAT*%
X124272270Y-106135368D03*
%TO.N,/I2S_MCK*%
X124302137Y-105556637D03*
%TO.N,/I2C_SDA*%
X125575000Y-104600000D03*
%TO.N,/I2C_SCL*%
X133154500Y-105750000D03*
X132245500Y-105635500D03*
X125150000Y-105050000D03*
%TO.N,/I2S_LRCK*%
X124093540Y-107849166D03*
%TO.N,/I2S_BCLK*%
X124093540Y-107269663D03*
%TO.N,/I2S_ADCDAT*%
X124350000Y-106750000D03*
%TD*%
%TA.AperFunction,Conductor*%
%TO.N,GND*%
G36*
X143072429Y-101867313D02*
G01*
X143097739Y-101911150D01*
X143098863Y-101923956D01*
X143099483Y-102970464D01*
X143096962Y-102989658D01*
X143094191Y-103000000D01*
X143099512Y-103019858D01*
X143099512Y-103019903D01*
X143099545Y-103020026D01*
X143104606Y-103038871D01*
X143104594Y-103038874D01*
X143104616Y-103038909D01*
X143115065Y-103077904D01*
X143115099Y-103077938D01*
X143115111Y-103077984D01*
X143144069Y-103106908D01*
X143172096Y-103134935D01*
X143172141Y-103134947D01*
X143172175Y-103134981D01*
X143184490Y-103138273D01*
X143211207Y-103145415D01*
X143211246Y-103145426D01*
X143230062Y-103150467D01*
X143230065Y-103150468D01*
X143230186Y-103150500D01*
X143230226Y-103150500D01*
X143230231Y-103150501D01*
X143240677Y-103153293D01*
X143240680Y-103153293D01*
X143250092Y-103155809D01*
X143259501Y-103153282D01*
X143259502Y-103153282D01*
X143260429Y-103153033D01*
X143279623Y-103150500D01*
X145275500Y-103150500D01*
X145323066Y-103167813D01*
X145348376Y-103211650D01*
X145349500Y-103224500D01*
X145349500Y-113275500D01*
X145332187Y-113323066D01*
X145288350Y-113348376D01*
X145275500Y-113349500D01*
X143279557Y-113349500D01*
X143260406Y-113346979D01*
X143250000Y-113344191D01*
X143230186Y-113349500D01*
X143172096Y-113365065D01*
X143115065Y-113422095D01*
X143094191Y-113500000D01*
X143096712Y-113509408D01*
X143096979Y-113510404D01*
X143099500Y-113529557D01*
X143099500Y-119470443D01*
X143096979Y-119489594D01*
X143094191Y-119500000D01*
X143096713Y-119509411D01*
X143096713Y-119516318D01*
X143096080Y-119525980D01*
X143088862Y-119580801D01*
X143083862Y-119599459D01*
X143056404Y-119665749D01*
X143046748Y-119682476D01*
X143003060Y-119739411D01*
X142989411Y-119753060D01*
X142932476Y-119796748D01*
X142915749Y-119806404D01*
X142849459Y-119833862D01*
X142830801Y-119838862D01*
X142801756Y-119842686D01*
X142775976Y-119846080D01*
X142766318Y-119846713D01*
X142759411Y-119846713D01*
X142750000Y-119844191D01*
X142740591Y-119846712D01*
X142740429Y-119846756D01*
X142739594Y-119846979D01*
X142720443Y-119849500D01*
X132553149Y-119849500D01*
X132505583Y-119832187D01*
X132480273Y-119788350D01*
X132489063Y-119738500D01*
X132514257Y-119714590D01*
X132513566Y-119713638D01*
X132518273Y-119710219D01*
X132523465Y-119707573D01*
X132607573Y-119623465D01*
X132610217Y-119618276D01*
X132610219Y-119618273D01*
X132658928Y-119522676D01*
X132658929Y-119522673D01*
X132661574Y-119517482D01*
X132662485Y-119511730D01*
X132662486Y-119511727D01*
X132679270Y-119405752D01*
X132680181Y-119400000D01*
X132679270Y-119394248D01*
X132662486Y-119288273D01*
X132662485Y-119288270D01*
X132661574Y-119282518D01*
X132658928Y-119277324D01*
X132610219Y-119181727D01*
X132610217Y-119181724D01*
X132607573Y-119176535D01*
X132523465Y-119092427D01*
X132518276Y-119089783D01*
X132518273Y-119089781D01*
X132422676Y-119041072D01*
X132422673Y-119041071D01*
X132417482Y-119038426D01*
X132411730Y-119037515D01*
X132411727Y-119037514D01*
X132305752Y-119020730D01*
X132300000Y-119019819D01*
X132294248Y-119020730D01*
X132188273Y-119037514D01*
X132188270Y-119037515D01*
X132182518Y-119038426D01*
X132177327Y-119041071D01*
X132177324Y-119041072D01*
X132081727Y-119089781D01*
X132081724Y-119089783D01*
X132076535Y-119092427D01*
X131992427Y-119176535D01*
X131989783Y-119181724D01*
X131989781Y-119181727D01*
X131941072Y-119277324D01*
X131938426Y-119282518D01*
X131937515Y-119288270D01*
X131937514Y-119288273D01*
X131920730Y-119394248D01*
X131919819Y-119400000D01*
X131920730Y-119405752D01*
X131937514Y-119511727D01*
X131937515Y-119511730D01*
X131938426Y-119517482D01*
X131941071Y-119522673D01*
X131941072Y-119522676D01*
X131989781Y-119618273D01*
X131989783Y-119618276D01*
X131992427Y-119623465D01*
X132076535Y-119707573D01*
X132081727Y-119710219D01*
X132086434Y-119713638D01*
X132085476Y-119714957D01*
X132114970Y-119746589D01*
X132117616Y-119797139D01*
X132087151Y-119837564D01*
X132046851Y-119849500D01*
X123529557Y-119849500D01*
X123510406Y-119846979D01*
X123509571Y-119846756D01*
X123509409Y-119846712D01*
X123500000Y-119844191D01*
X123490589Y-119846713D01*
X123483682Y-119846713D01*
X123474024Y-119846080D01*
X123448244Y-119842686D01*
X123419199Y-119838862D01*
X123400541Y-119833862D01*
X123334251Y-119806404D01*
X123317524Y-119796748D01*
X123260589Y-119753060D01*
X123246940Y-119739411D01*
X123203252Y-119682476D01*
X123193596Y-119665749D01*
X123166138Y-119599459D01*
X123161138Y-119580801D01*
X123153920Y-119525980D01*
X123153287Y-119516318D01*
X123153287Y-119509411D01*
X123155809Y-119500000D01*
X123153021Y-119489594D01*
X123150500Y-119470443D01*
X123150500Y-117450000D01*
X126769819Y-117450000D01*
X126770730Y-117455752D01*
X126787514Y-117561727D01*
X126787515Y-117561730D01*
X126788426Y-117567482D01*
X126791071Y-117572673D01*
X126791072Y-117572676D01*
X126839781Y-117668273D01*
X126839783Y-117668276D01*
X126842427Y-117673465D01*
X126926535Y-117757573D01*
X126931724Y-117760217D01*
X126931727Y-117760219D01*
X127027324Y-117808928D01*
X127027327Y-117808929D01*
X127032518Y-117811574D01*
X127038270Y-117812485D01*
X127038273Y-117812486D01*
X127144248Y-117829270D01*
X127150000Y-117830181D01*
X127155752Y-117829270D01*
X127261727Y-117812486D01*
X127261730Y-117812485D01*
X127267482Y-117811574D01*
X127272673Y-117808929D01*
X127272676Y-117808928D01*
X127290198Y-117800000D01*
X133619819Y-117800000D01*
X133620730Y-117805752D01*
X133637514Y-117911727D01*
X133637515Y-117911730D01*
X133638426Y-117917482D01*
X133641071Y-117922673D01*
X133641072Y-117922676D01*
X133689781Y-118018273D01*
X133689783Y-118018276D01*
X133692427Y-118023465D01*
X133776535Y-118107573D01*
X133781724Y-118110217D01*
X133781727Y-118110219D01*
X133877324Y-118158928D01*
X133877327Y-118158929D01*
X133882518Y-118161574D01*
X133888270Y-118162485D01*
X133888273Y-118162486D01*
X133994248Y-118179270D01*
X134000000Y-118180181D01*
X134005752Y-118179270D01*
X134111727Y-118162486D01*
X134111730Y-118162485D01*
X134117482Y-118161574D01*
X134122673Y-118158929D01*
X134122676Y-118158928D01*
X134218273Y-118110219D01*
X134218276Y-118110217D01*
X134223465Y-118107573D01*
X134307573Y-118023465D01*
X134310217Y-118018276D01*
X134310219Y-118018273D01*
X134358928Y-117922676D01*
X134358929Y-117922673D01*
X134361574Y-117917482D01*
X134362485Y-117911730D01*
X134362486Y-117911727D01*
X134379270Y-117805752D01*
X134380181Y-117800000D01*
X140119819Y-117800000D01*
X140120730Y-117805752D01*
X140137514Y-117911727D01*
X140137515Y-117911730D01*
X140138426Y-117917482D01*
X140141071Y-117922673D01*
X140141072Y-117922676D01*
X140189781Y-118018273D01*
X140189783Y-118018276D01*
X140192427Y-118023465D01*
X140276535Y-118107573D01*
X140281724Y-118110217D01*
X140281727Y-118110219D01*
X140377324Y-118158928D01*
X140377327Y-118158929D01*
X140382518Y-118161574D01*
X140388270Y-118162485D01*
X140388273Y-118162486D01*
X140494248Y-118179270D01*
X140500000Y-118180181D01*
X140505752Y-118179270D01*
X140611727Y-118162486D01*
X140611730Y-118162485D01*
X140617482Y-118161574D01*
X140622673Y-118158929D01*
X140622676Y-118158928D01*
X140718273Y-118110219D01*
X140718276Y-118110217D01*
X140723465Y-118107573D01*
X140807573Y-118023465D01*
X140810217Y-118018276D01*
X140810219Y-118018273D01*
X140858928Y-117922676D01*
X140858929Y-117922673D01*
X140861574Y-117917482D01*
X140862485Y-117911730D01*
X140862486Y-117911727D01*
X140879270Y-117805752D01*
X140880181Y-117800000D01*
X140879270Y-117794248D01*
X140862486Y-117688273D01*
X140862485Y-117688270D01*
X140861574Y-117682518D01*
X140858928Y-117677324D01*
X140816697Y-117594440D01*
X141844901Y-117594440D01*
X141845584Y-117599663D01*
X141845584Y-117599666D01*
X141856419Y-117682518D01*
X141861633Y-117722394D01*
X141913605Y-117840510D01*
X141996639Y-117939291D01*
X142104060Y-118010796D01*
X142109092Y-118012368D01*
X142109094Y-118012369D01*
X142144611Y-118023465D01*
X142227233Y-118049278D01*
X142232501Y-118049375D01*
X142232504Y-118049375D01*
X142286552Y-118050365D01*
X142356255Y-118051643D01*
X142361338Y-118050257D01*
X142361340Y-118050257D01*
X142475671Y-118019086D01*
X142480755Y-118017700D01*
X142590724Y-117950179D01*
X142677322Y-117854507D01*
X142733588Y-117738375D01*
X142754997Y-117611120D01*
X142755133Y-117600000D01*
X142741047Y-117501643D01*
X142737586Y-117477472D01*
X142737585Y-117477469D01*
X142736839Y-117472259D01*
X142729334Y-117455752D01*
X142685610Y-117359586D01*
X142685608Y-117359583D01*
X142683428Y-117354788D01*
X142676003Y-117346170D01*
X142602633Y-117261020D01*
X142602632Y-117261019D01*
X142599193Y-117257028D01*
X142594774Y-117254164D01*
X142594772Y-117254162D01*
X142523931Y-117208247D01*
X142490906Y-117186841D01*
X142485857Y-117185331D01*
X142485855Y-117185330D01*
X142372326Y-117151377D01*
X142372325Y-117151377D01*
X142367273Y-117149866D01*
X142301771Y-117149466D01*
X142243501Y-117149110D01*
X142243500Y-117149110D01*
X142238231Y-117149078D01*
X142114155Y-117184539D01*
X142005019Y-117253399D01*
X142001531Y-117257348D01*
X142001529Y-117257350D01*
X141998288Y-117261020D01*
X141919596Y-117350122D01*
X141917357Y-117354891D01*
X141917355Y-117354894D01*
X141901206Y-117389291D01*
X141864754Y-117466932D01*
X141844901Y-117594440D01*
X140816697Y-117594440D01*
X140810219Y-117581727D01*
X140810217Y-117581724D01*
X140807573Y-117576535D01*
X140723465Y-117492427D01*
X140718276Y-117489783D01*
X140718273Y-117489781D01*
X140622676Y-117441072D01*
X140622673Y-117441071D01*
X140617482Y-117438426D01*
X140611730Y-117437515D01*
X140611727Y-117437514D01*
X140505752Y-117420730D01*
X140500000Y-117419819D01*
X140494248Y-117420730D01*
X140388273Y-117437514D01*
X140388270Y-117437515D01*
X140382518Y-117438426D01*
X140377327Y-117441071D01*
X140377324Y-117441072D01*
X140281727Y-117489781D01*
X140281724Y-117489783D01*
X140276535Y-117492427D01*
X140192427Y-117576535D01*
X140189783Y-117581724D01*
X140189781Y-117581727D01*
X140141072Y-117677324D01*
X140138426Y-117682518D01*
X140137515Y-117688270D01*
X140137514Y-117688273D01*
X140120730Y-117794248D01*
X140119819Y-117800000D01*
X134380181Y-117800000D01*
X134379270Y-117794248D01*
X134362486Y-117688273D01*
X134362485Y-117688270D01*
X134361574Y-117682518D01*
X134358928Y-117677324D01*
X134310219Y-117581727D01*
X134310217Y-117581724D01*
X134307573Y-117576535D01*
X134223465Y-117492427D01*
X134218276Y-117489783D01*
X134218273Y-117489781D01*
X134122676Y-117441072D01*
X134122673Y-117441071D01*
X134117482Y-117438426D01*
X134111730Y-117437515D01*
X134111727Y-117437514D01*
X134005752Y-117420730D01*
X134000000Y-117419819D01*
X133994248Y-117420730D01*
X133888273Y-117437514D01*
X133888270Y-117437515D01*
X133882518Y-117438426D01*
X133877327Y-117441071D01*
X133877324Y-117441072D01*
X133781727Y-117489781D01*
X133781724Y-117489783D01*
X133776535Y-117492427D01*
X133692427Y-117576535D01*
X133689783Y-117581724D01*
X133689781Y-117581727D01*
X133641072Y-117677324D01*
X133638426Y-117682518D01*
X133637515Y-117688270D01*
X133637514Y-117688273D01*
X133620730Y-117794248D01*
X133619819Y-117800000D01*
X127290198Y-117800000D01*
X127368273Y-117760219D01*
X127368276Y-117760217D01*
X127373465Y-117757573D01*
X127457573Y-117673465D01*
X127460217Y-117668276D01*
X127460219Y-117668273D01*
X127508928Y-117572676D01*
X127508929Y-117572673D01*
X127511574Y-117567482D01*
X127512485Y-117561730D01*
X127512486Y-117561727D01*
X127529270Y-117455752D01*
X127530181Y-117450000D01*
X127521671Y-117396269D01*
X127512486Y-117338273D01*
X127512485Y-117338270D01*
X127511574Y-117332518D01*
X127508928Y-117327324D01*
X127460219Y-117231727D01*
X127460217Y-117231724D01*
X127457573Y-117226535D01*
X127373465Y-117142427D01*
X127368276Y-117139783D01*
X127368273Y-117139781D01*
X127272676Y-117091072D01*
X127272673Y-117091071D01*
X127267482Y-117088426D01*
X127261730Y-117087515D01*
X127261727Y-117087514D01*
X127155752Y-117070730D01*
X127150000Y-117069819D01*
X127144248Y-117070730D01*
X127038273Y-117087514D01*
X127038270Y-117087515D01*
X127032518Y-117088426D01*
X127027327Y-117091071D01*
X127027324Y-117091072D01*
X126931727Y-117139781D01*
X126931724Y-117139783D01*
X126926535Y-117142427D01*
X126842427Y-117226535D01*
X126839783Y-117231724D01*
X126839781Y-117231727D01*
X126791072Y-117327324D01*
X126788426Y-117332518D01*
X126787515Y-117338270D01*
X126787514Y-117338273D01*
X126778329Y-117396269D01*
X126769819Y-117450000D01*
X123150500Y-117450000D01*
X123150500Y-117044440D01*
X138994901Y-117044440D01*
X138995584Y-117049663D01*
X138995584Y-117049666D01*
X139008907Y-117151546D01*
X139011633Y-117172394D01*
X139013756Y-117177219D01*
X139046039Y-117250587D01*
X139063605Y-117290510D01*
X139146639Y-117389291D01*
X139254060Y-117460796D01*
X139259092Y-117462368D01*
X139259094Y-117462369D01*
X139290376Y-117472142D01*
X139377233Y-117499278D01*
X139382501Y-117499375D01*
X139382504Y-117499375D01*
X139436552Y-117500365D01*
X139506255Y-117501643D01*
X139511338Y-117500257D01*
X139511340Y-117500257D01*
X139625671Y-117469086D01*
X139630755Y-117467700D01*
X139740724Y-117400179D01*
X139827322Y-117304507D01*
X139883588Y-117188375D01*
X139904997Y-117061120D01*
X139905133Y-117050000D01*
X139903591Y-117039234D01*
X139887586Y-116927472D01*
X139887585Y-116927469D01*
X139886839Y-116922259D01*
X139882247Y-116912159D01*
X139835610Y-116809586D01*
X139835608Y-116809583D01*
X139833428Y-116804788D01*
X139826003Y-116796170D01*
X139752633Y-116711020D01*
X139752632Y-116711019D01*
X139749193Y-116707028D01*
X139744774Y-116704164D01*
X139744772Y-116704162D01*
X139729772Y-116694440D01*
X140944901Y-116694440D01*
X140945584Y-116699663D01*
X140945584Y-116699666D01*
X140959345Y-116804894D01*
X140961633Y-116822394D01*
X140963756Y-116827219D01*
X141003465Y-116917464D01*
X141013605Y-116940510D01*
X141096639Y-117039291D01*
X141204060Y-117110796D01*
X141209092Y-117112368D01*
X141209094Y-117112369D01*
X141244714Y-117123497D01*
X141327233Y-117149278D01*
X141332501Y-117149375D01*
X141332504Y-117149375D01*
X141386552Y-117150365D01*
X141456255Y-117151643D01*
X141461338Y-117150257D01*
X141461340Y-117150257D01*
X141575671Y-117119086D01*
X141580755Y-117117700D01*
X141690724Y-117050179D01*
X141777322Y-116954507D01*
X141833588Y-116838375D01*
X141854997Y-116711120D01*
X141855133Y-116700000D01*
X141849251Y-116658928D01*
X141837586Y-116577472D01*
X141837585Y-116577469D01*
X141836839Y-116572259D01*
X141832247Y-116562159D01*
X141785610Y-116459586D01*
X141785608Y-116459583D01*
X141783428Y-116454788D01*
X141778681Y-116449278D01*
X141702633Y-116361020D01*
X141702632Y-116361019D01*
X141699193Y-116357028D01*
X141694774Y-116354164D01*
X141694772Y-116354162D01*
X141595329Y-116289708D01*
X141595330Y-116289708D01*
X141590906Y-116286841D01*
X141585857Y-116285331D01*
X141585855Y-116285330D01*
X141472326Y-116251377D01*
X141472325Y-116251377D01*
X141467273Y-116249866D01*
X141401771Y-116249466D01*
X141343501Y-116249110D01*
X141343500Y-116249110D01*
X141338231Y-116249078D01*
X141214155Y-116284539D01*
X141105019Y-116353399D01*
X141101531Y-116357348D01*
X141101529Y-116357350D01*
X141098288Y-116361020D01*
X141019596Y-116450122D01*
X141017357Y-116454891D01*
X141017355Y-116454894D01*
X140987599Y-116518273D01*
X140964754Y-116566932D01*
X140944901Y-116694440D01*
X139729772Y-116694440D01*
X139645329Y-116639708D01*
X139645330Y-116639708D01*
X139640906Y-116636841D01*
X139635857Y-116635331D01*
X139635855Y-116635330D01*
X139522326Y-116601377D01*
X139522325Y-116601377D01*
X139517273Y-116599866D01*
X139451771Y-116599466D01*
X139393501Y-116599110D01*
X139393500Y-116599110D01*
X139388231Y-116599078D01*
X139264155Y-116634539D01*
X139155019Y-116703399D01*
X139151531Y-116707348D01*
X139151529Y-116707350D01*
X139115845Y-116747755D01*
X139069596Y-116800122D01*
X139067357Y-116804891D01*
X139067355Y-116804894D01*
X139023892Y-116897469D01*
X139014754Y-116916932D01*
X138994901Y-117044440D01*
X123150500Y-117044440D01*
X123150500Y-116300000D01*
X126719819Y-116300000D01*
X126720730Y-116305752D01*
X126737514Y-116411727D01*
X126737515Y-116411730D01*
X126738426Y-116417482D01*
X126741071Y-116422673D01*
X126741072Y-116422676D01*
X126789781Y-116518273D01*
X126789783Y-116518276D01*
X126792427Y-116523465D01*
X126876535Y-116607573D01*
X126881724Y-116610217D01*
X126881727Y-116610219D01*
X126977324Y-116658928D01*
X126977327Y-116658929D01*
X126982518Y-116661574D01*
X126988270Y-116662485D01*
X126988273Y-116662486D01*
X127094248Y-116679270D01*
X127100000Y-116680181D01*
X127105752Y-116679270D01*
X127211727Y-116662486D01*
X127211730Y-116662485D01*
X127217482Y-116661574D01*
X127222673Y-116658929D01*
X127222676Y-116658928D01*
X127318273Y-116610219D01*
X127318276Y-116610217D01*
X127323465Y-116607573D01*
X127407573Y-116523465D01*
X127410217Y-116518276D01*
X127410219Y-116518273D01*
X127458928Y-116422676D01*
X127458929Y-116422673D01*
X127461574Y-116417482D01*
X127462485Y-116411730D01*
X127462486Y-116411727D01*
X127479270Y-116305752D01*
X127480181Y-116300000D01*
X127478551Y-116289708D01*
X127462486Y-116188273D01*
X127462485Y-116188270D01*
X127461574Y-116182518D01*
X127441501Y-116143122D01*
X127410219Y-116081727D01*
X127410217Y-116081724D01*
X127407573Y-116076535D01*
X127323465Y-115992427D01*
X127318276Y-115989783D01*
X127318273Y-115989781D01*
X127222676Y-115941072D01*
X127222673Y-115941071D01*
X127217482Y-115938426D01*
X127211730Y-115937515D01*
X127211727Y-115937514D01*
X127105752Y-115920730D01*
X127100000Y-115919819D01*
X127094248Y-115920730D01*
X126988273Y-115937514D01*
X126988270Y-115937515D01*
X126982518Y-115938426D01*
X126977327Y-115941071D01*
X126977324Y-115941072D01*
X126881727Y-115989781D01*
X126881724Y-115989783D01*
X126876535Y-115992427D01*
X126792427Y-116076535D01*
X126789783Y-116081724D01*
X126789781Y-116081727D01*
X126758499Y-116143122D01*
X126738426Y-116182518D01*
X126737515Y-116188270D01*
X126737514Y-116188273D01*
X126721449Y-116289708D01*
X126719819Y-116300000D01*
X123150500Y-116300000D01*
X123150500Y-115235691D01*
X127734128Y-115235691D01*
X127735039Y-115241443D01*
X127751823Y-115347418D01*
X127751824Y-115347421D01*
X127752735Y-115353173D01*
X127755380Y-115358364D01*
X127755381Y-115358367D01*
X127804090Y-115453964D01*
X127804092Y-115453967D01*
X127806736Y-115459156D01*
X127890844Y-115543264D01*
X127896033Y-115545908D01*
X127896036Y-115545910D01*
X127991633Y-115594619D01*
X127991636Y-115594620D01*
X127996827Y-115597265D01*
X128002579Y-115598176D01*
X128002582Y-115598177D01*
X128067319Y-115608430D01*
X128111592Y-115632971D01*
X128129732Y-115680228D01*
X128128832Y-115693092D01*
X128119819Y-115750000D01*
X128120730Y-115755752D01*
X128137514Y-115861727D01*
X128137515Y-115861730D01*
X128138426Y-115867482D01*
X128141071Y-115872673D01*
X128141072Y-115872676D01*
X128189781Y-115968273D01*
X128189783Y-115968276D01*
X128192427Y-115973465D01*
X128276535Y-116057573D01*
X128281724Y-116060217D01*
X128281727Y-116060219D01*
X128377324Y-116108928D01*
X128377327Y-116108929D01*
X128382518Y-116111574D01*
X128388270Y-116112485D01*
X128388273Y-116112486D01*
X128494248Y-116129270D01*
X128500000Y-116130181D01*
X128505752Y-116129270D01*
X128611727Y-116112486D01*
X128611730Y-116112485D01*
X128617482Y-116111574D01*
X128622673Y-116108929D01*
X128622676Y-116108928D01*
X128718273Y-116060219D01*
X128718276Y-116060217D01*
X128723465Y-116057573D01*
X128786598Y-115994440D01*
X141844901Y-115994440D01*
X141845584Y-115999663D01*
X141845584Y-115999666D01*
X141855098Y-116072416D01*
X141861633Y-116122394D01*
X141913605Y-116240510D01*
X141996639Y-116339291D01*
X142104060Y-116410796D01*
X142109092Y-116412368D01*
X142109094Y-116412369D01*
X142142085Y-116422676D01*
X142227233Y-116449278D01*
X142232501Y-116449375D01*
X142232504Y-116449375D01*
X142286552Y-116450365D01*
X142356255Y-116451643D01*
X142361338Y-116450257D01*
X142361340Y-116450257D01*
X142475671Y-116419086D01*
X142480755Y-116417700D01*
X142590724Y-116350179D01*
X142677322Y-116254507D01*
X142733588Y-116138375D01*
X142754997Y-116011120D01*
X142755133Y-116000000D01*
X142736839Y-115872259D01*
X142732247Y-115862159D01*
X142685610Y-115759586D01*
X142685608Y-115759583D01*
X142683428Y-115754788D01*
X142679303Y-115750000D01*
X142602633Y-115661020D01*
X142602632Y-115661019D01*
X142599193Y-115657028D01*
X142594774Y-115654164D01*
X142594772Y-115654162D01*
X142523931Y-115608247D01*
X142490906Y-115586841D01*
X142485857Y-115585331D01*
X142485855Y-115585330D01*
X142372326Y-115551377D01*
X142372325Y-115551377D01*
X142367273Y-115549866D01*
X142301771Y-115549466D01*
X142243501Y-115549110D01*
X142243500Y-115549110D01*
X142238231Y-115549078D01*
X142114155Y-115584539D01*
X142005019Y-115653399D01*
X142001531Y-115657348D01*
X142001529Y-115657350D01*
X141998288Y-115661020D01*
X141919596Y-115750122D01*
X141917357Y-115754891D01*
X141917355Y-115754894D01*
X141873892Y-115847469D01*
X141864754Y-115866932D01*
X141844901Y-115994440D01*
X128786598Y-115994440D01*
X128807573Y-115973465D01*
X128810217Y-115968276D01*
X128810219Y-115968273D01*
X128858928Y-115872676D01*
X128858929Y-115872673D01*
X128861574Y-115867482D01*
X128862485Y-115861730D01*
X128862486Y-115861727D01*
X128879270Y-115755752D01*
X128880181Y-115750000D01*
X128873509Y-115707875D01*
X128862486Y-115638273D01*
X128862485Y-115638270D01*
X128861574Y-115632518D01*
X128858928Y-115627324D01*
X128810219Y-115531727D01*
X128810217Y-115531724D01*
X128807573Y-115526535D01*
X128723465Y-115442427D01*
X128718276Y-115439783D01*
X128718273Y-115439781D01*
X128622676Y-115391072D01*
X128622673Y-115391071D01*
X128617482Y-115388426D01*
X128611730Y-115387515D01*
X128611727Y-115387514D01*
X128546990Y-115377261D01*
X128502717Y-115352720D01*
X128484577Y-115305463D01*
X128485477Y-115292596D01*
X128486010Y-115289234D01*
X128494490Y-115235691D01*
X128482844Y-115162159D01*
X128476795Y-115123964D01*
X128476794Y-115123961D01*
X128475883Y-115118209D01*
X128457698Y-115082518D01*
X128424528Y-115017418D01*
X128424526Y-115017415D01*
X128421882Y-115012226D01*
X128337774Y-114928118D01*
X128332585Y-114925474D01*
X128332582Y-114925472D01*
X128236985Y-114876763D01*
X128236982Y-114876762D01*
X128231791Y-114874117D01*
X128226039Y-114873206D01*
X128226036Y-114873205D01*
X128120061Y-114856421D01*
X128114309Y-114855510D01*
X128108557Y-114856421D01*
X128002582Y-114873205D01*
X128002579Y-114873206D01*
X127996827Y-114874117D01*
X127991636Y-114876762D01*
X127991633Y-114876763D01*
X127896036Y-114925472D01*
X127896033Y-114925474D01*
X127890844Y-114928118D01*
X127806736Y-115012226D01*
X127804092Y-115017415D01*
X127804090Y-115017418D01*
X127770920Y-115082518D01*
X127752735Y-115118209D01*
X127751824Y-115123961D01*
X127751823Y-115123964D01*
X127745774Y-115162159D01*
X127734128Y-115235691D01*
X123150500Y-115235691D01*
X123150500Y-114650000D01*
X131669819Y-114650000D01*
X131670730Y-114655752D01*
X131687514Y-114761727D01*
X131687515Y-114761730D01*
X131688426Y-114767482D01*
X131691071Y-114772673D01*
X131691072Y-114772676D01*
X131739781Y-114868273D01*
X131739783Y-114868276D01*
X131742427Y-114873465D01*
X131826535Y-114957573D01*
X131831724Y-114960217D01*
X131831727Y-114960219D01*
X131918552Y-115004458D01*
X131932518Y-115011574D01*
X131936909Y-115012269D01*
X131976301Y-115043045D01*
X131986634Y-115093834D01*
X131969819Y-115200000D01*
X131970730Y-115205752D01*
X131987514Y-115311727D01*
X131987515Y-115311730D01*
X131988426Y-115317482D01*
X131991071Y-115322673D01*
X131991072Y-115322676D01*
X132039781Y-115418273D01*
X132039783Y-115418276D01*
X132042427Y-115423465D01*
X132126535Y-115507573D01*
X132131724Y-115510217D01*
X132131727Y-115510219D01*
X132227324Y-115558928D01*
X132227327Y-115558929D01*
X132232518Y-115561574D01*
X132238270Y-115562485D01*
X132238273Y-115562486D01*
X132344248Y-115579270D01*
X132350000Y-115580181D01*
X132355752Y-115579270D01*
X132461727Y-115562486D01*
X132461730Y-115562485D01*
X132467482Y-115561574D01*
X132472673Y-115558929D01*
X132472676Y-115558928D01*
X132568273Y-115510219D01*
X132568276Y-115510217D01*
X132573465Y-115507573D01*
X132657573Y-115423465D01*
X132660217Y-115418276D01*
X132660219Y-115418273D01*
X132708928Y-115322676D01*
X132708929Y-115322673D01*
X132711574Y-115317482D01*
X132712485Y-115311730D01*
X132712486Y-115311727D01*
X132715224Y-115294440D01*
X140944901Y-115294440D01*
X140945584Y-115299663D01*
X140945584Y-115299666D01*
X140957072Y-115387514D01*
X140961633Y-115422394D01*
X141013605Y-115540510D01*
X141096639Y-115639291D01*
X141204060Y-115710796D01*
X141209092Y-115712368D01*
X141209094Y-115712369D01*
X141244714Y-115723497D01*
X141327233Y-115749278D01*
X141332501Y-115749375D01*
X141332504Y-115749375D01*
X141386552Y-115750365D01*
X141456255Y-115751643D01*
X141461338Y-115750257D01*
X141461340Y-115750257D01*
X141575671Y-115719086D01*
X141580755Y-115717700D01*
X141690724Y-115650179D01*
X141777322Y-115554507D01*
X141833588Y-115438375D01*
X141854997Y-115311120D01*
X141855133Y-115300000D01*
X141845923Y-115235691D01*
X141837586Y-115177472D01*
X141837585Y-115177469D01*
X141836839Y-115172259D01*
X141812264Y-115118209D01*
X141785610Y-115059586D01*
X141785608Y-115059583D01*
X141783428Y-115054788D01*
X141776003Y-115046170D01*
X141702633Y-114961020D01*
X141702632Y-114961019D01*
X141699193Y-114957028D01*
X141694774Y-114954164D01*
X141694772Y-114954162D01*
X141595329Y-114889708D01*
X141595330Y-114889708D01*
X141590906Y-114886841D01*
X141585857Y-114885331D01*
X141585855Y-114885330D01*
X141472326Y-114851377D01*
X141472325Y-114851377D01*
X141467273Y-114849866D01*
X141401771Y-114849466D01*
X141343501Y-114849110D01*
X141343500Y-114849110D01*
X141338231Y-114849078D01*
X141214155Y-114884539D01*
X141105019Y-114953399D01*
X141101531Y-114957348D01*
X141101529Y-114957350D01*
X141065845Y-114997755D01*
X141019596Y-115050122D01*
X141017357Y-115054891D01*
X141017355Y-115054894D01*
X141004386Y-115082518D01*
X140964754Y-115166932D01*
X140944901Y-115294440D01*
X132715224Y-115294440D01*
X132729270Y-115205752D01*
X132730181Y-115200000D01*
X132724188Y-115162159D01*
X132712486Y-115088273D01*
X132712485Y-115088270D01*
X132711574Y-115082518D01*
X132695410Y-115050794D01*
X132660219Y-114981727D01*
X132660217Y-114981724D01*
X132657573Y-114976535D01*
X132573465Y-114892427D01*
X132568276Y-114889783D01*
X132568273Y-114889781D01*
X132472673Y-114841071D01*
X132467482Y-114838426D01*
X132463091Y-114837731D01*
X132423699Y-114806955D01*
X132413366Y-114756165D01*
X132429270Y-114655752D01*
X132430181Y-114650000D01*
X132429270Y-114644248D01*
X132412486Y-114538273D01*
X132412485Y-114538270D01*
X132411574Y-114532518D01*
X132408928Y-114527324D01*
X132360219Y-114431727D01*
X132360217Y-114431724D01*
X132357573Y-114426535D01*
X132273465Y-114342427D01*
X132268276Y-114339783D01*
X132268273Y-114339781D01*
X132172676Y-114291072D01*
X132172673Y-114291071D01*
X132167482Y-114288426D01*
X132161730Y-114287515D01*
X132161727Y-114287514D01*
X132055752Y-114270730D01*
X132050000Y-114269819D01*
X132044248Y-114270730D01*
X131938273Y-114287514D01*
X131938270Y-114287515D01*
X131932518Y-114288426D01*
X131927327Y-114291071D01*
X131927324Y-114291072D01*
X131831727Y-114339781D01*
X131831724Y-114339783D01*
X131826535Y-114342427D01*
X131742427Y-114426535D01*
X131739783Y-114431724D01*
X131739781Y-114431727D01*
X131691072Y-114527324D01*
X131688426Y-114532518D01*
X131687515Y-114538270D01*
X131687514Y-114538273D01*
X131670730Y-114644248D01*
X131669819Y-114650000D01*
X123150500Y-114650000D01*
X123150500Y-113750000D01*
X137969819Y-113750000D01*
X137970730Y-113755752D01*
X137987514Y-113861727D01*
X137987515Y-113861730D01*
X137988426Y-113867482D01*
X137991071Y-113872673D01*
X137991072Y-113872676D01*
X138039781Y-113968273D01*
X138039783Y-113968276D01*
X138042427Y-113973465D01*
X138126535Y-114057573D01*
X138131724Y-114060217D01*
X138131727Y-114060219D01*
X138227324Y-114108928D01*
X138227327Y-114108929D01*
X138232518Y-114111574D01*
X138238270Y-114112485D01*
X138238273Y-114112486D01*
X138344248Y-114129270D01*
X138350000Y-114130181D01*
X138355752Y-114129270D01*
X138461727Y-114112486D01*
X138461730Y-114112485D01*
X138467482Y-114111574D01*
X138472673Y-114108929D01*
X138472676Y-114108928D01*
X138568273Y-114060219D01*
X138568276Y-114060217D01*
X138573465Y-114057573D01*
X138657573Y-113973465D01*
X138660217Y-113968276D01*
X138660219Y-113968273D01*
X138708928Y-113872676D01*
X138708929Y-113872673D01*
X138711574Y-113867482D01*
X138712485Y-113861730D01*
X138712486Y-113861727D01*
X138729270Y-113755752D01*
X138730181Y-113750000D01*
X138712552Y-113638692D01*
X138712486Y-113638273D01*
X138712485Y-113638270D01*
X138711574Y-113632518D01*
X138708928Y-113627324D01*
X138660219Y-113531727D01*
X138660217Y-113531724D01*
X138657573Y-113526535D01*
X138573465Y-113442427D01*
X138568276Y-113439783D01*
X138568273Y-113439781D01*
X138472676Y-113391072D01*
X138472673Y-113391071D01*
X138467482Y-113388426D01*
X138461730Y-113387515D01*
X138461727Y-113387514D01*
X138355752Y-113370730D01*
X138350000Y-113369819D01*
X138344248Y-113370730D01*
X138238273Y-113387514D01*
X138238270Y-113387515D01*
X138232518Y-113388426D01*
X138227327Y-113391071D01*
X138227324Y-113391072D01*
X138131727Y-113439781D01*
X138131724Y-113439783D01*
X138126535Y-113442427D01*
X138042427Y-113526535D01*
X138039783Y-113531724D01*
X138039781Y-113531727D01*
X137991072Y-113627324D01*
X137988426Y-113632518D01*
X137987515Y-113638270D01*
X137987514Y-113638273D01*
X137987448Y-113638692D01*
X137969819Y-113750000D01*
X123150500Y-113750000D01*
X123150500Y-112300000D01*
X132719750Y-112300000D01*
X132738670Y-112443709D01*
X132794139Y-112577625D01*
X132882379Y-112692621D01*
X132997375Y-112780861D01*
X133131291Y-112836330D01*
X133275000Y-112855250D01*
X133279808Y-112854617D01*
X133413901Y-112836963D01*
X133418709Y-112836330D01*
X133552625Y-112780861D01*
X133667621Y-112692621D01*
X133755861Y-112577625D01*
X133811330Y-112443709D01*
X133830250Y-112300000D01*
X134469750Y-112300000D01*
X134488670Y-112443709D01*
X134544139Y-112577625D01*
X134632379Y-112692621D01*
X134747375Y-112780861D01*
X134881291Y-112836330D01*
X135025000Y-112855250D01*
X135029808Y-112854617D01*
X135163901Y-112836963D01*
X135168709Y-112836330D01*
X135302625Y-112780861D01*
X135417621Y-112692621D01*
X135505861Y-112577625D01*
X135561330Y-112443709D01*
X135580250Y-112300000D01*
X135561330Y-112156291D01*
X135505861Y-112022375D01*
X135417621Y-111907379D01*
X135302625Y-111819139D01*
X135168709Y-111763670D01*
X135025000Y-111744750D01*
X134881291Y-111763670D01*
X134747375Y-111819139D01*
X134632379Y-111907379D01*
X134544139Y-112022375D01*
X134488670Y-112156291D01*
X134469750Y-112300000D01*
X133830250Y-112300000D01*
X133811330Y-112156291D01*
X133755861Y-112022375D01*
X133667621Y-111907379D01*
X133552625Y-111819139D01*
X133418709Y-111763670D01*
X133275000Y-111744750D01*
X133131291Y-111763670D01*
X132997375Y-111819139D01*
X132882379Y-111907379D01*
X132794139Y-112022375D01*
X132738670Y-112156291D01*
X132719750Y-112300000D01*
X123150500Y-112300000D01*
X123150500Y-111205196D01*
X139924055Y-111205196D01*
X139961484Y-111336158D01*
X140034165Y-111451350D01*
X140038114Y-111454838D01*
X140038116Y-111454840D01*
X140080958Y-111492676D01*
X140136255Y-111541513D01*
X140141024Y-111543752D01*
X140141027Y-111543754D01*
X140240460Y-111590437D01*
X140259548Y-111599399D01*
X140362956Y-111615500D01*
X140434145Y-111615500D01*
X140436740Y-111615128D01*
X140436745Y-111615128D01*
X140529613Y-111601828D01*
X140534829Y-111601081D01*
X140592006Y-111575084D01*
X140654020Y-111546889D01*
X140654023Y-111546887D01*
X140658820Y-111544706D01*
X140662810Y-111541268D01*
X140662813Y-111541266D01*
X140758014Y-111459234D01*
X140762004Y-111455796D01*
X140836087Y-111341501D01*
X140875113Y-111211006D01*
X140875770Y-111103454D01*
X140875913Y-111080074D01*
X140875913Y-111080073D01*
X140875945Y-111074804D01*
X140838516Y-110943842D01*
X140765835Y-110828650D01*
X140761886Y-110825162D01*
X140761884Y-110825160D01*
X140715309Y-110784027D01*
X140663745Y-110738487D01*
X140658976Y-110736248D01*
X140658973Y-110736246D01*
X140545225Y-110682842D01*
X140540452Y-110680601D01*
X140437044Y-110664500D01*
X140365855Y-110664500D01*
X140363260Y-110664872D01*
X140363255Y-110664872D01*
X140276308Y-110677324D01*
X140265171Y-110678919D01*
X140207994Y-110704916D01*
X140145980Y-110733111D01*
X140145977Y-110733113D01*
X140141180Y-110735294D01*
X140137190Y-110738732D01*
X140137187Y-110738734D01*
X140084623Y-110784027D01*
X140037996Y-110824204D01*
X140035132Y-110828623D01*
X140035130Y-110828625D01*
X139966779Y-110934077D01*
X139963913Y-110938499D01*
X139924887Y-111068994D01*
X139924055Y-111205196D01*
X123150500Y-111205196D01*
X123150500Y-111029557D01*
X123153021Y-111010404D01*
X123153288Y-111009408D01*
X123155809Y-111000000D01*
X123134935Y-110922096D01*
X123119598Y-110906759D01*
X123077905Y-110865065D01*
X123018927Y-110849262D01*
X123009409Y-110846712D01*
X123000000Y-110844191D01*
X122989594Y-110846979D01*
X122970443Y-110849500D01*
X120529557Y-110849500D01*
X120510406Y-110846979D01*
X120509571Y-110846756D01*
X120509409Y-110846712D01*
X120500000Y-110844191D01*
X120490589Y-110846713D01*
X120483682Y-110846713D01*
X120474024Y-110846080D01*
X120448244Y-110842686D01*
X120419199Y-110838862D01*
X120400541Y-110833862D01*
X120334251Y-110806404D01*
X120323157Y-110800000D01*
X133689819Y-110800000D01*
X133690730Y-110805752D01*
X133707514Y-110911727D01*
X133707515Y-110911730D01*
X133708426Y-110917482D01*
X133711071Y-110922673D01*
X133711072Y-110922676D01*
X133759781Y-111018273D01*
X133759783Y-111018276D01*
X133762427Y-111023465D01*
X133846535Y-111107573D01*
X133851724Y-111110217D01*
X133851727Y-111110219D01*
X133947324Y-111158928D01*
X133947327Y-111158929D01*
X133952518Y-111161574D01*
X133958270Y-111162485D01*
X133958273Y-111162486D01*
X134064248Y-111179270D01*
X134070000Y-111180181D01*
X134075752Y-111179270D01*
X134181727Y-111162486D01*
X134181730Y-111162485D01*
X134187482Y-111161574D01*
X134192673Y-111158929D01*
X134192676Y-111158928D01*
X134288273Y-111110219D01*
X134288276Y-111110217D01*
X134293465Y-111107573D01*
X134377573Y-111023465D01*
X134380217Y-111018276D01*
X134380219Y-111018273D01*
X134428928Y-110922676D01*
X134428929Y-110922673D01*
X134431574Y-110917482D01*
X134432485Y-110911730D01*
X134432486Y-110911727D01*
X134449270Y-110805752D01*
X134450181Y-110800000D01*
X134441808Y-110747134D01*
X134432486Y-110688273D01*
X134432485Y-110688270D01*
X134431574Y-110682518D01*
X134423030Y-110665749D01*
X134380219Y-110581727D01*
X134380217Y-110581724D01*
X134377573Y-110576535D01*
X134293465Y-110492427D01*
X134288276Y-110489783D01*
X134288273Y-110489781D01*
X134192676Y-110441072D01*
X134192673Y-110441071D01*
X134187482Y-110438426D01*
X134181730Y-110437515D01*
X134181727Y-110437514D01*
X134075752Y-110420730D01*
X134070000Y-110419819D01*
X134064248Y-110420730D01*
X133958273Y-110437514D01*
X133958270Y-110437515D01*
X133952518Y-110438426D01*
X133947327Y-110441071D01*
X133947324Y-110441072D01*
X133851727Y-110489781D01*
X133851724Y-110489783D01*
X133846535Y-110492427D01*
X133762427Y-110576535D01*
X133759783Y-110581724D01*
X133759781Y-110581727D01*
X133716970Y-110665749D01*
X133708426Y-110682518D01*
X133707515Y-110688270D01*
X133707514Y-110688273D01*
X133698192Y-110747134D01*
X133689819Y-110800000D01*
X120323157Y-110800000D01*
X120317524Y-110796748D01*
X120260589Y-110753060D01*
X120246940Y-110739411D01*
X120203252Y-110682476D01*
X120193596Y-110665749D01*
X120166138Y-110599459D01*
X120161138Y-110580801D01*
X120153920Y-110525980D01*
X120153287Y-110516318D01*
X120153287Y-110509411D01*
X120155809Y-110500000D01*
X120153021Y-110489594D01*
X120150500Y-110470443D01*
X120150500Y-109575500D01*
X132917098Y-109575500D01*
X132918009Y-109581252D01*
X132934793Y-109687227D01*
X132934794Y-109687230D01*
X132935705Y-109692982D01*
X132938350Y-109698173D01*
X132938351Y-109698176D01*
X132987060Y-109793773D01*
X132987062Y-109793776D01*
X132989706Y-109798965D01*
X133073814Y-109883073D01*
X133079003Y-109885717D01*
X133079006Y-109885719D01*
X133174603Y-109934428D01*
X133174606Y-109934429D01*
X133179797Y-109937074D01*
X133185549Y-109937985D01*
X133185552Y-109937986D01*
X133291527Y-109954770D01*
X133297279Y-109955681D01*
X133303031Y-109954770D01*
X133409006Y-109937986D01*
X133409009Y-109937985D01*
X133414761Y-109937074D01*
X133419952Y-109934429D01*
X133419955Y-109934428D01*
X133515552Y-109885719D01*
X133515555Y-109885717D01*
X133520744Y-109883073D01*
X133604852Y-109798965D01*
X133607496Y-109793776D01*
X133607498Y-109793773D01*
X133656207Y-109698176D01*
X133656208Y-109698173D01*
X133658853Y-109692982D01*
X133659764Y-109687230D01*
X133659765Y-109687227D01*
X133676549Y-109581252D01*
X133677460Y-109575500D01*
X133667360Y-109511727D01*
X133659765Y-109463773D01*
X133659764Y-109463770D01*
X133658853Y-109458018D01*
X133656207Y-109452824D01*
X133629292Y-109400000D01*
X139969819Y-109400000D01*
X139970730Y-109405752D01*
X139987514Y-109511727D01*
X139987515Y-109511730D01*
X139988426Y-109517482D01*
X139991071Y-109522673D01*
X139991072Y-109522676D01*
X140039781Y-109618273D01*
X140039783Y-109618276D01*
X140042427Y-109623465D01*
X140126535Y-109707573D01*
X140131724Y-109710217D01*
X140131727Y-109710219D01*
X140227324Y-109758928D01*
X140227327Y-109758929D01*
X140232518Y-109761574D01*
X140238270Y-109762485D01*
X140238273Y-109762486D01*
X140344248Y-109779270D01*
X140350000Y-109780181D01*
X140355752Y-109779270D01*
X140461727Y-109762486D01*
X140461730Y-109762485D01*
X140467482Y-109761574D01*
X140472673Y-109758929D01*
X140472676Y-109758928D01*
X140568273Y-109710219D01*
X140568276Y-109710217D01*
X140573465Y-109707573D01*
X140657573Y-109623465D01*
X140660217Y-109618276D01*
X140660219Y-109618273D01*
X140708928Y-109522676D01*
X140708929Y-109522673D01*
X140711574Y-109517482D01*
X140712485Y-109511730D01*
X140712486Y-109511727D01*
X140729270Y-109405752D01*
X140730181Y-109400000D01*
X140721932Y-109347916D01*
X140712486Y-109288273D01*
X140712485Y-109288270D01*
X140711574Y-109282518D01*
X140708928Y-109277324D01*
X140660219Y-109181727D01*
X140660217Y-109181724D01*
X140657573Y-109176535D01*
X140573465Y-109092427D01*
X140568276Y-109089783D01*
X140568273Y-109089781D01*
X140472676Y-109041072D01*
X140472673Y-109041071D01*
X140467482Y-109038426D01*
X140461730Y-109037515D01*
X140461727Y-109037514D01*
X140355752Y-109020730D01*
X140350000Y-109019819D01*
X140344248Y-109020730D01*
X140238273Y-109037514D01*
X140238270Y-109037515D01*
X140232518Y-109038426D01*
X140227327Y-109041071D01*
X140227324Y-109041072D01*
X140131727Y-109089781D01*
X140131724Y-109089783D01*
X140126535Y-109092427D01*
X140042427Y-109176535D01*
X140039783Y-109181724D01*
X140039781Y-109181727D01*
X139991072Y-109277324D01*
X139988426Y-109282518D01*
X139987515Y-109288270D01*
X139987514Y-109288273D01*
X139978068Y-109347916D01*
X139969819Y-109400000D01*
X133629292Y-109400000D01*
X133607498Y-109357227D01*
X133607496Y-109357224D01*
X133604852Y-109352035D01*
X133520744Y-109267927D01*
X133515555Y-109265283D01*
X133515552Y-109265281D01*
X133419955Y-109216572D01*
X133419952Y-109216571D01*
X133414761Y-109213926D01*
X133409009Y-109213015D01*
X133409006Y-109213014D01*
X133303031Y-109196230D01*
X133297279Y-109195319D01*
X133291527Y-109196230D01*
X133185552Y-109213014D01*
X133185549Y-109213015D01*
X133179797Y-109213926D01*
X133174606Y-109216571D01*
X133174603Y-109216572D01*
X133079006Y-109265281D01*
X133079003Y-109265283D01*
X133073814Y-109267927D01*
X132989706Y-109352035D01*
X132987062Y-109357224D01*
X132987060Y-109357227D01*
X132938351Y-109452824D01*
X132935705Y-109458018D01*
X132934794Y-109463770D01*
X132934793Y-109463773D01*
X132927198Y-109511727D01*
X132917098Y-109575500D01*
X120150500Y-109575500D01*
X120150500Y-108480000D01*
X121969819Y-108480000D01*
X121970730Y-108485752D01*
X121987514Y-108591727D01*
X121987515Y-108591730D01*
X121988426Y-108597482D01*
X121991071Y-108602673D01*
X121991072Y-108602676D01*
X122039781Y-108698273D01*
X122039783Y-108698276D01*
X122042427Y-108703465D01*
X122126535Y-108787573D01*
X122131724Y-108790217D01*
X122131727Y-108790219D01*
X122227324Y-108838928D01*
X122227327Y-108838929D01*
X122232518Y-108841574D01*
X122238270Y-108842485D01*
X122238273Y-108842486D01*
X122344248Y-108859270D01*
X122350000Y-108860181D01*
X122355752Y-108859270D01*
X122461727Y-108842486D01*
X122461730Y-108842485D01*
X122467482Y-108841574D01*
X122472673Y-108838929D01*
X122472676Y-108838928D01*
X122568273Y-108790219D01*
X122568276Y-108790217D01*
X122573465Y-108787573D01*
X122657573Y-108703465D01*
X122660217Y-108698276D01*
X122660219Y-108698273D01*
X122708928Y-108602676D01*
X122708929Y-108602673D01*
X122711574Y-108597482D01*
X122712485Y-108591730D01*
X122712486Y-108591727D01*
X122729270Y-108485752D01*
X122730181Y-108480000D01*
X122722754Y-108433108D01*
X122712486Y-108368273D01*
X122712485Y-108368270D01*
X122711574Y-108362518D01*
X122708928Y-108357324D01*
X122690614Y-108321381D01*
X132898438Y-108321381D01*
X132899349Y-108327133D01*
X132916133Y-108433108D01*
X132916134Y-108433111D01*
X132917045Y-108438863D01*
X132919690Y-108444054D01*
X132919691Y-108444057D01*
X132968400Y-108539654D01*
X132968402Y-108539657D01*
X132971046Y-108544846D01*
X133055154Y-108628954D01*
X133060343Y-108631598D01*
X133060346Y-108631600D01*
X133155943Y-108680309D01*
X133155946Y-108680310D01*
X133161137Y-108682955D01*
X133166889Y-108683866D01*
X133166892Y-108683867D01*
X133272867Y-108700651D01*
X133278619Y-108701562D01*
X133284371Y-108700651D01*
X133390346Y-108683867D01*
X133390349Y-108683866D01*
X133396101Y-108682955D01*
X133401292Y-108680310D01*
X133401295Y-108680309D01*
X133496892Y-108631600D01*
X133496895Y-108631598D01*
X133502084Y-108628954D01*
X133586192Y-108544846D01*
X133588836Y-108539657D01*
X133588838Y-108539654D01*
X133637547Y-108444057D01*
X133637548Y-108444054D01*
X133640193Y-108438863D01*
X133641104Y-108433111D01*
X133641105Y-108433108D01*
X133657889Y-108327133D01*
X133658800Y-108321381D01*
X133648530Y-108256535D01*
X133641105Y-108209654D01*
X133641104Y-108209651D01*
X133640193Y-108203899D01*
X133626256Y-108176546D01*
X133588838Y-108103108D01*
X133588836Y-108103105D01*
X133586192Y-108097916D01*
X133502084Y-108013808D01*
X133496895Y-108011164D01*
X133496892Y-108011162D01*
X133401295Y-107962453D01*
X133401292Y-107962452D01*
X133396101Y-107959807D01*
X133390349Y-107958896D01*
X133390346Y-107958895D01*
X133284371Y-107942111D01*
X133278619Y-107941200D01*
X133272867Y-107942111D01*
X133166892Y-107958895D01*
X133166889Y-107958896D01*
X133161137Y-107959807D01*
X133155946Y-107962452D01*
X133155943Y-107962453D01*
X133060346Y-108011162D01*
X133060343Y-108011164D01*
X133055154Y-108013808D01*
X132971046Y-108097916D01*
X132968402Y-108103105D01*
X132968400Y-108103108D01*
X132930982Y-108176546D01*
X132917045Y-108203899D01*
X132916134Y-108209651D01*
X132916133Y-108209654D01*
X132908708Y-108256535D01*
X132898438Y-108321381D01*
X122690614Y-108321381D01*
X122660219Y-108261727D01*
X122660217Y-108261724D01*
X122657573Y-108256535D01*
X122573465Y-108172427D01*
X122568276Y-108169783D01*
X122568273Y-108169781D01*
X122472676Y-108121072D01*
X122472673Y-108121071D01*
X122467482Y-108118426D01*
X122461730Y-108117515D01*
X122461727Y-108117514D01*
X122355752Y-108100730D01*
X122350000Y-108099819D01*
X122344248Y-108100730D01*
X122238273Y-108117514D01*
X122238270Y-108117515D01*
X122232518Y-108118426D01*
X122227327Y-108121071D01*
X122227324Y-108121072D01*
X122131727Y-108169781D01*
X122131724Y-108169783D01*
X122126535Y-108172427D01*
X122042427Y-108256535D01*
X122039783Y-108261724D01*
X122039781Y-108261727D01*
X121991072Y-108357324D01*
X121988426Y-108362518D01*
X121987515Y-108368270D01*
X121987514Y-108368273D01*
X121977246Y-108433108D01*
X121969819Y-108480000D01*
X120150500Y-108480000D01*
X120150500Y-106620000D01*
X121999819Y-106620000D01*
X122000730Y-106625752D01*
X122017514Y-106731727D01*
X122017515Y-106731730D01*
X122018426Y-106737482D01*
X122021071Y-106742673D01*
X122021072Y-106742676D01*
X122069781Y-106838273D01*
X122069783Y-106838276D01*
X122072427Y-106843465D01*
X122156535Y-106927573D01*
X122161724Y-106930217D01*
X122161727Y-106930219D01*
X122257324Y-106978928D01*
X122257327Y-106978929D01*
X122262518Y-106981574D01*
X122268270Y-106982485D01*
X122268273Y-106982486D01*
X122374248Y-106999270D01*
X122380000Y-107000181D01*
X122385752Y-106999270D01*
X122491727Y-106982486D01*
X122491730Y-106982485D01*
X122497482Y-106981574D01*
X122502673Y-106978929D01*
X122502676Y-106978928D01*
X122598273Y-106930219D01*
X122598276Y-106930217D01*
X122603465Y-106927573D01*
X122687573Y-106843465D01*
X122690217Y-106838276D01*
X122690219Y-106838273D01*
X122738928Y-106742676D01*
X122738929Y-106742673D01*
X122741574Y-106737482D01*
X122742485Y-106731730D01*
X122742486Y-106731727D01*
X122759270Y-106625752D01*
X122760181Y-106620000D01*
X122750294Y-106557573D01*
X122742486Y-106508273D01*
X122742485Y-106508270D01*
X122741574Y-106502518D01*
X122724498Y-106469004D01*
X122690219Y-106401727D01*
X122690217Y-106401724D01*
X122687573Y-106396535D01*
X122603465Y-106312427D01*
X122598276Y-106309783D01*
X122598273Y-106309781D01*
X122502676Y-106261072D01*
X122502673Y-106261071D01*
X122497482Y-106258426D01*
X122491730Y-106257515D01*
X122491727Y-106257514D01*
X122444283Y-106250000D01*
X123313839Y-106250000D01*
X123314750Y-106255752D01*
X123331534Y-106361727D01*
X123331535Y-106361730D01*
X123332446Y-106367482D01*
X123335091Y-106372673D01*
X123335092Y-106372676D01*
X123383801Y-106468273D01*
X123383803Y-106468276D01*
X123386447Y-106473465D01*
X123470555Y-106557573D01*
X123475744Y-106560217D01*
X123475747Y-106560219D01*
X123571344Y-106608928D01*
X123571347Y-106608929D01*
X123576538Y-106611574D01*
X123582290Y-106612485D01*
X123582293Y-106612486D01*
X123688268Y-106629270D01*
X123694020Y-106630181D01*
X123699772Y-106629270D01*
X123805747Y-106612486D01*
X123805750Y-106612485D01*
X123811502Y-106611574D01*
X123816693Y-106608929D01*
X123816696Y-106608928D01*
X123878162Y-106577609D01*
X123928403Y-106571440D01*
X123970856Y-106599009D01*
X123985656Y-106647416D01*
X123984846Y-106655119D01*
X123969819Y-106750000D01*
X123970730Y-106755752D01*
X123985043Y-106846124D01*
X123975384Y-106895813D01*
X123945549Y-106923634D01*
X123875267Y-106959444D01*
X123875264Y-106959446D01*
X123870075Y-106962090D01*
X123785967Y-107046198D01*
X123783323Y-107051387D01*
X123783321Y-107051390D01*
X123734612Y-107146987D01*
X123731966Y-107152181D01*
X123731055Y-107157933D01*
X123731054Y-107157936D01*
X123714270Y-107263911D01*
X123713359Y-107269663D01*
X123714270Y-107275415D01*
X123731054Y-107381390D01*
X123731055Y-107381393D01*
X123731966Y-107387145D01*
X123734611Y-107392336D01*
X123734612Y-107392339D01*
X123783321Y-107487936D01*
X123783323Y-107487939D01*
X123785967Y-107493128D01*
X123799928Y-107507089D01*
X123821320Y-107552965D01*
X123808219Y-107601860D01*
X123799930Y-107611738D01*
X123785967Y-107625701D01*
X123783323Y-107630890D01*
X123783321Y-107630893D01*
X123734612Y-107726490D01*
X123731966Y-107731684D01*
X123731055Y-107737436D01*
X123731054Y-107737439D01*
X123714270Y-107843414D01*
X123713359Y-107849166D01*
X123714270Y-107854918D01*
X123731054Y-107960893D01*
X123731055Y-107960896D01*
X123731966Y-107966648D01*
X123734611Y-107971839D01*
X123734612Y-107971842D01*
X123783321Y-108067439D01*
X123783323Y-108067442D01*
X123785967Y-108072631D01*
X123870075Y-108156739D01*
X123875264Y-108159383D01*
X123875267Y-108159385D01*
X123970864Y-108208094D01*
X123970867Y-108208095D01*
X123976058Y-108210740D01*
X123981810Y-108211651D01*
X123981813Y-108211652D01*
X124087788Y-108228436D01*
X124093540Y-108229347D01*
X124099292Y-108228436D01*
X124205267Y-108211652D01*
X124205270Y-108211651D01*
X124211022Y-108210740D01*
X124216213Y-108208095D01*
X124216216Y-108208094D01*
X124311813Y-108159385D01*
X124311816Y-108159383D01*
X124317005Y-108156739D01*
X124401113Y-108072631D01*
X124403757Y-108067442D01*
X124403759Y-108067439D01*
X124452468Y-107971842D01*
X124452469Y-107971839D01*
X124455114Y-107966648D01*
X124456025Y-107960896D01*
X124456026Y-107960893D01*
X124472810Y-107854918D01*
X124473721Y-107849166D01*
X124472810Y-107843414D01*
X124456026Y-107737439D01*
X124456025Y-107737436D01*
X124455114Y-107731684D01*
X124452468Y-107726490D01*
X124403759Y-107630893D01*
X124403757Y-107630890D01*
X124401113Y-107625701D01*
X124387153Y-107611741D01*
X124365761Y-107565865D01*
X124378862Y-107516970D01*
X124387151Y-107507091D01*
X124396993Y-107497248D01*
X124401113Y-107493128D01*
X124403757Y-107487939D01*
X124403759Y-107487936D01*
X124452468Y-107392339D01*
X124452469Y-107392336D01*
X124455114Y-107387145D01*
X124456025Y-107381393D01*
X124456026Y-107381390D01*
X124460997Y-107350000D01*
X139919819Y-107350000D01*
X139920730Y-107355752D01*
X139937514Y-107461727D01*
X139937515Y-107461730D01*
X139938426Y-107467482D01*
X139941071Y-107472673D01*
X139941072Y-107472676D01*
X139989781Y-107568273D01*
X139989783Y-107568276D01*
X139992427Y-107573465D01*
X140076535Y-107657573D01*
X140081724Y-107660217D01*
X140081727Y-107660219D01*
X140177324Y-107708928D01*
X140177327Y-107708929D01*
X140182518Y-107711574D01*
X140188270Y-107712485D01*
X140188273Y-107712486D01*
X140294248Y-107729270D01*
X140300000Y-107730181D01*
X140305752Y-107729270D01*
X140411727Y-107712486D01*
X140411730Y-107712485D01*
X140417482Y-107711574D01*
X140422673Y-107708929D01*
X140422676Y-107708928D01*
X140518273Y-107660219D01*
X140518276Y-107660217D01*
X140523465Y-107657573D01*
X140607573Y-107573465D01*
X140610217Y-107568276D01*
X140610219Y-107568273D01*
X140658928Y-107472676D01*
X140658929Y-107472673D01*
X140661574Y-107467482D01*
X140662485Y-107461730D01*
X140662486Y-107461727D01*
X140679270Y-107355752D01*
X140680181Y-107350000D01*
X140666546Y-107263911D01*
X140662486Y-107238273D01*
X140662485Y-107238270D01*
X140661574Y-107232518D01*
X140623573Y-107157936D01*
X140610219Y-107131727D01*
X140610217Y-107131724D01*
X140607573Y-107126535D01*
X140523465Y-107042427D01*
X140518276Y-107039783D01*
X140518273Y-107039781D01*
X140422676Y-106991072D01*
X140422673Y-106991071D01*
X140417482Y-106988426D01*
X140411730Y-106987515D01*
X140411727Y-106987514D01*
X140305752Y-106970730D01*
X140300000Y-106969819D01*
X140294248Y-106970730D01*
X140188273Y-106987514D01*
X140188270Y-106987515D01*
X140182518Y-106988426D01*
X140177327Y-106991071D01*
X140177324Y-106991072D01*
X140081727Y-107039781D01*
X140081724Y-107039783D01*
X140076535Y-107042427D01*
X139992427Y-107126535D01*
X139989783Y-107131724D01*
X139989781Y-107131727D01*
X139976427Y-107157936D01*
X139938426Y-107232518D01*
X139937515Y-107238270D01*
X139937514Y-107238273D01*
X139933454Y-107263911D01*
X139919819Y-107350000D01*
X124460997Y-107350000D01*
X124472810Y-107275415D01*
X124473721Y-107269663D01*
X124458497Y-107173539D01*
X124468156Y-107123850D01*
X124497991Y-107096029D01*
X124568273Y-107060219D01*
X124568276Y-107060217D01*
X124573465Y-107057573D01*
X124657573Y-106973465D01*
X124660217Y-106968276D01*
X124660219Y-106968273D01*
X124708928Y-106872676D01*
X124708929Y-106872673D01*
X124711574Y-106867482D01*
X124712485Y-106861730D01*
X124712486Y-106861727D01*
X124729270Y-106755752D01*
X124730181Y-106750000D01*
X124713934Y-106647416D01*
X124712486Y-106638273D01*
X124712485Y-106638270D01*
X124711574Y-106632518D01*
X124702265Y-106614248D01*
X124660219Y-106531727D01*
X124660217Y-106531724D01*
X124657573Y-106526535D01*
X124586020Y-106454982D01*
X124564628Y-106409106D01*
X124578081Y-106360595D01*
X124579843Y-106358833D01*
X124582488Y-106353642D01*
X124631198Y-106258044D01*
X124631199Y-106258041D01*
X124633844Y-106252850D01*
X124634755Y-106247098D01*
X124634756Y-106247095D01*
X124651540Y-106141120D01*
X124652451Y-106135368D01*
X124648827Y-106112486D01*
X124634756Y-106023641D01*
X124634755Y-106023638D01*
X124633844Y-106017886D01*
X124624731Y-106000000D01*
X124582487Y-105917091D01*
X124582485Y-105917088D01*
X124579843Y-105911903D01*
X124575729Y-105907789D01*
X124573444Y-105904644D01*
X124559494Y-105855985D01*
X124580987Y-105808825D01*
X124609710Y-105780102D01*
X124612354Y-105774913D01*
X124612356Y-105774910D01*
X124661065Y-105679313D01*
X124661066Y-105679310D01*
X124663711Y-105674119D01*
X124664622Y-105668367D01*
X124664623Y-105668364D01*
X124669828Y-105635500D01*
X131865319Y-105635500D01*
X131866230Y-105641252D01*
X131883014Y-105747227D01*
X131883015Y-105747230D01*
X131883926Y-105752982D01*
X131886571Y-105758173D01*
X131886572Y-105758176D01*
X131935281Y-105853773D01*
X131935283Y-105853776D01*
X131937927Y-105858965D01*
X132022035Y-105943073D01*
X132027224Y-105945717D01*
X132027227Y-105945719D01*
X132122824Y-105994428D01*
X132122827Y-105994429D01*
X132128018Y-105997074D01*
X132133770Y-105997985D01*
X132133773Y-105997986D01*
X132239748Y-106014770D01*
X132245500Y-106015681D01*
X132251252Y-106014770D01*
X132357227Y-105997986D01*
X132357230Y-105997985D01*
X132362982Y-105997074D01*
X132368173Y-105994429D01*
X132368176Y-105994428D01*
X132463773Y-105945719D01*
X132463776Y-105945717D01*
X132468965Y-105943073D01*
X132553073Y-105858965D01*
X132555717Y-105853776D01*
X132555719Y-105853773D01*
X132604428Y-105758176D01*
X132604429Y-105758173D01*
X132607074Y-105752982D01*
X132607546Y-105750000D01*
X132774319Y-105750000D01*
X132775230Y-105755752D01*
X132792014Y-105861727D01*
X132792015Y-105861730D01*
X132792926Y-105867482D01*
X132795571Y-105872673D01*
X132795572Y-105872676D01*
X132844281Y-105968273D01*
X132844283Y-105968276D01*
X132846927Y-105973465D01*
X132931035Y-106057573D01*
X132936224Y-106060217D01*
X132936227Y-106060219D01*
X133031824Y-106108928D01*
X133031827Y-106108929D01*
X133037018Y-106111574D01*
X133042770Y-106112485D01*
X133042773Y-106112486D01*
X133148748Y-106129270D01*
X133154500Y-106130181D01*
X133160252Y-106129270D01*
X133266227Y-106112486D01*
X133266230Y-106112485D01*
X133271982Y-106111574D01*
X133277173Y-106108929D01*
X133277176Y-106108928D01*
X133372773Y-106060219D01*
X133372776Y-106060217D01*
X133377965Y-106057573D01*
X133462073Y-105973465D01*
X133464717Y-105968276D01*
X133464719Y-105968273D01*
X133513428Y-105872676D01*
X133513429Y-105872673D01*
X133516074Y-105867482D01*
X133516985Y-105861730D01*
X133516986Y-105861727D01*
X133533770Y-105755752D01*
X133534681Y-105750000D01*
X133525748Y-105693596D01*
X133516986Y-105638273D01*
X133516985Y-105638270D01*
X133516074Y-105632518D01*
X133495355Y-105591854D01*
X133464719Y-105531727D01*
X133464717Y-105531724D01*
X133462073Y-105526535D01*
X133377965Y-105442427D01*
X133372776Y-105439783D01*
X133372773Y-105439781D01*
X133277176Y-105391072D01*
X133277173Y-105391071D01*
X133271982Y-105388426D01*
X133266230Y-105387515D01*
X133266227Y-105387514D01*
X133160252Y-105370730D01*
X133154500Y-105369819D01*
X133148748Y-105370730D01*
X133042773Y-105387514D01*
X133042770Y-105387515D01*
X133037018Y-105388426D01*
X133031827Y-105391071D01*
X133031824Y-105391072D01*
X132936227Y-105439781D01*
X132936224Y-105439783D01*
X132931035Y-105442427D01*
X132846927Y-105526535D01*
X132844283Y-105531724D01*
X132844281Y-105531727D01*
X132813645Y-105591854D01*
X132792926Y-105632518D01*
X132792015Y-105638270D01*
X132792014Y-105638273D01*
X132783252Y-105693596D01*
X132774319Y-105750000D01*
X132607546Y-105750000D01*
X132607985Y-105747230D01*
X132607986Y-105747227D01*
X132624770Y-105641252D01*
X132625681Y-105635500D01*
X132615069Y-105568496D01*
X132607986Y-105523773D01*
X132607985Y-105523770D01*
X132607074Y-105518018D01*
X132604428Y-105512824D01*
X132555719Y-105417227D01*
X132555717Y-105417224D01*
X132553073Y-105412035D01*
X132468965Y-105327927D01*
X132463776Y-105325283D01*
X132463773Y-105325281D01*
X132368176Y-105276572D01*
X132368173Y-105276571D01*
X132362982Y-105273926D01*
X132357230Y-105273015D01*
X132357227Y-105273014D01*
X132251252Y-105256230D01*
X132245500Y-105255319D01*
X132239748Y-105256230D01*
X132133773Y-105273014D01*
X132133770Y-105273015D01*
X132128018Y-105273926D01*
X132122827Y-105276571D01*
X132122824Y-105276572D01*
X132027227Y-105325281D01*
X132027224Y-105325283D01*
X132022035Y-105327927D01*
X131937927Y-105412035D01*
X131935283Y-105417224D01*
X131935281Y-105417227D01*
X131886572Y-105512824D01*
X131883926Y-105518018D01*
X131883015Y-105523770D01*
X131883014Y-105523773D01*
X131875931Y-105568496D01*
X131865319Y-105635500D01*
X124669828Y-105635500D01*
X124681407Y-105562389D01*
X124682318Y-105556637D01*
X124678373Y-105531727D01*
X124664623Y-105444910D01*
X124664622Y-105444907D01*
X124663711Y-105439155D01*
X124659559Y-105431006D01*
X124612356Y-105338364D01*
X124612354Y-105338361D01*
X124609710Y-105333172D01*
X124525602Y-105249064D01*
X124520413Y-105246420D01*
X124520410Y-105246418D01*
X124424813Y-105197709D01*
X124424810Y-105197708D01*
X124419619Y-105195063D01*
X124413867Y-105194152D01*
X124413864Y-105194151D01*
X124307889Y-105177367D01*
X124302137Y-105176456D01*
X124296385Y-105177367D01*
X124190410Y-105194151D01*
X124190407Y-105194152D01*
X124184655Y-105195063D01*
X124179464Y-105197708D01*
X124179461Y-105197709D01*
X124083864Y-105246418D01*
X124083861Y-105246420D01*
X124078672Y-105249064D01*
X123994564Y-105333172D01*
X123991920Y-105338361D01*
X123991918Y-105338364D01*
X123944715Y-105431006D01*
X123940563Y-105439155D01*
X123939652Y-105444907D01*
X123939651Y-105444910D01*
X123925901Y-105531727D01*
X123921956Y-105556637D01*
X123922867Y-105562389D01*
X123939651Y-105668364D01*
X123939652Y-105668367D01*
X123940563Y-105674119D01*
X123943208Y-105679310D01*
X123943209Y-105679313D01*
X123991920Y-105774914D01*
X123991922Y-105774917D01*
X123994564Y-105780102D01*
X123998678Y-105784216D01*
X124000963Y-105787361D01*
X124014913Y-105836020D01*
X123993420Y-105883180D01*
X123966557Y-105910043D01*
X123920681Y-105931435D01*
X123880638Y-105923652D01*
X123811502Y-105888426D01*
X123805750Y-105887515D01*
X123805747Y-105887514D01*
X123699772Y-105870730D01*
X123694020Y-105869819D01*
X123688268Y-105870730D01*
X123582293Y-105887514D01*
X123582290Y-105887515D01*
X123576538Y-105888426D01*
X123571347Y-105891071D01*
X123571344Y-105891072D01*
X123475747Y-105939781D01*
X123475744Y-105939783D01*
X123470555Y-105942427D01*
X123386447Y-106026535D01*
X123383803Y-106031724D01*
X123383801Y-106031727D01*
X123335092Y-106127324D01*
X123332446Y-106132518D01*
X123331535Y-106138270D01*
X123331534Y-106138273D01*
X123315451Y-106239819D01*
X123313839Y-106250000D01*
X122444283Y-106250000D01*
X122385752Y-106240730D01*
X122380000Y-106239819D01*
X122374248Y-106240730D01*
X122268273Y-106257514D01*
X122268270Y-106257515D01*
X122262518Y-106258426D01*
X122257327Y-106261071D01*
X122257324Y-106261072D01*
X122161727Y-106309781D01*
X122161724Y-106309783D01*
X122156535Y-106312427D01*
X122072427Y-106396535D01*
X122069783Y-106401724D01*
X122069781Y-106401727D01*
X122035502Y-106469004D01*
X122018426Y-106502518D01*
X122017515Y-106508270D01*
X122017514Y-106508273D01*
X122009706Y-106557573D01*
X121999819Y-106620000D01*
X120150500Y-106620000D01*
X120150500Y-106029557D01*
X120153021Y-106010404D01*
X120153288Y-106009409D01*
X120155809Y-106000000D01*
X120153287Y-105990589D01*
X120153287Y-105983682D01*
X120153920Y-105974020D01*
X120161138Y-105919199D01*
X120166138Y-105900541D01*
X120193596Y-105834251D01*
X120203252Y-105817524D01*
X120246940Y-105760589D01*
X120260589Y-105746940D01*
X120317524Y-105703252D01*
X120334251Y-105693596D01*
X120400541Y-105666138D01*
X120419199Y-105661138D01*
X120448244Y-105657314D01*
X120474024Y-105653920D01*
X120483682Y-105653287D01*
X120490589Y-105653287D01*
X120500000Y-105655809D01*
X120509413Y-105653287D01*
X120509571Y-105653244D01*
X120510406Y-105653021D01*
X120529557Y-105650500D01*
X122970443Y-105650500D01*
X122989594Y-105653021D01*
X123000000Y-105655809D01*
X123009413Y-105653287D01*
X123063883Y-105638692D01*
X123077904Y-105634935D01*
X123134935Y-105577905D01*
X123155809Y-105500000D01*
X123153021Y-105489594D01*
X123150500Y-105470443D01*
X123150500Y-105050000D01*
X124769819Y-105050000D01*
X124770730Y-105055752D01*
X124787514Y-105161727D01*
X124787515Y-105161730D01*
X124788426Y-105167482D01*
X124791071Y-105172673D01*
X124791072Y-105172676D01*
X124839781Y-105268273D01*
X124839783Y-105268276D01*
X124842427Y-105273465D01*
X124926535Y-105357573D01*
X124931724Y-105360217D01*
X124931727Y-105360219D01*
X125027324Y-105408928D01*
X125027327Y-105408929D01*
X125032518Y-105411574D01*
X125038270Y-105412485D01*
X125038273Y-105412486D01*
X125144248Y-105429270D01*
X125150000Y-105430181D01*
X125155752Y-105429270D01*
X125261727Y-105412486D01*
X125261730Y-105412485D01*
X125267482Y-105411574D01*
X125272673Y-105408929D01*
X125272676Y-105408928D01*
X125368273Y-105360219D01*
X125368276Y-105360217D01*
X125373465Y-105357573D01*
X125457573Y-105273465D01*
X125460217Y-105268276D01*
X125460219Y-105268273D01*
X125508928Y-105172676D01*
X125508929Y-105172673D01*
X125511574Y-105167482D01*
X125512485Y-105161730D01*
X125512486Y-105161727D01*
X125522262Y-105100000D01*
X133719819Y-105100000D01*
X133720730Y-105105752D01*
X133737514Y-105211727D01*
X133737515Y-105211730D01*
X133738426Y-105217482D01*
X133741071Y-105222673D01*
X133741072Y-105222676D01*
X133789781Y-105318273D01*
X133789783Y-105318276D01*
X133792427Y-105323465D01*
X133876535Y-105407573D01*
X133881724Y-105410217D01*
X133881727Y-105410219D01*
X133977324Y-105458928D01*
X133977327Y-105458929D01*
X133982518Y-105461574D01*
X133988270Y-105462485D01*
X133988273Y-105462486D01*
X134094248Y-105479270D01*
X134100000Y-105480181D01*
X134105752Y-105479270D01*
X134211727Y-105462486D01*
X134211730Y-105462485D01*
X134217482Y-105461574D01*
X134222673Y-105458929D01*
X134222676Y-105458928D01*
X134288879Y-105425196D01*
X139924055Y-105425196D01*
X139961484Y-105556158D01*
X140034165Y-105671350D01*
X140038114Y-105674838D01*
X140038116Y-105674840D01*
X140063575Y-105697324D01*
X140136255Y-105761513D01*
X140141024Y-105763752D01*
X140141027Y-105763754D01*
X140184621Y-105784221D01*
X140259548Y-105819399D01*
X140362956Y-105835500D01*
X140434145Y-105835500D01*
X140436740Y-105835128D01*
X140436745Y-105835128D01*
X140529613Y-105821828D01*
X140534829Y-105821081D01*
X140615899Y-105784221D01*
X140654020Y-105766889D01*
X140654023Y-105766887D01*
X140658820Y-105764706D01*
X140662810Y-105761268D01*
X140662813Y-105761266D01*
X140758014Y-105679234D01*
X140762004Y-105675796D01*
X140766822Y-105668364D01*
X140833221Y-105565923D01*
X140833222Y-105565922D01*
X140836087Y-105561501D01*
X140870955Y-105444910D01*
X140873602Y-105436059D01*
X140873602Y-105436058D01*
X140875113Y-105431006D01*
X140875945Y-105294804D01*
X140838516Y-105163842D01*
X140765835Y-105048650D01*
X140761886Y-105045162D01*
X140761884Y-105045160D01*
X140697471Y-104988273D01*
X140663745Y-104958487D01*
X140658976Y-104956248D01*
X140658973Y-104956246D01*
X140545225Y-104902842D01*
X140540452Y-104900601D01*
X140437044Y-104884500D01*
X140365855Y-104884500D01*
X140363260Y-104884872D01*
X140363255Y-104884872D01*
X140270387Y-104898172D01*
X140265171Y-104898919D01*
X140240318Y-104910219D01*
X140145980Y-104953111D01*
X140145977Y-104953113D01*
X140141180Y-104955294D01*
X140137190Y-104958732D01*
X140137187Y-104958734D01*
X140109585Y-104982518D01*
X140037996Y-105044204D01*
X140035132Y-105048623D01*
X140035130Y-105048625D01*
X139998102Y-105105752D01*
X139963913Y-105158499D01*
X139924887Y-105288994D01*
X139924665Y-105325281D01*
X139924104Y-105417227D01*
X139924055Y-105425196D01*
X134288879Y-105425196D01*
X134318273Y-105410219D01*
X134318276Y-105410217D01*
X134323465Y-105407573D01*
X134407573Y-105323465D01*
X134410217Y-105318276D01*
X134410219Y-105318273D01*
X134458928Y-105222676D01*
X134458929Y-105222673D01*
X134461574Y-105217482D01*
X134462485Y-105211730D01*
X134462486Y-105211727D01*
X134479270Y-105105752D01*
X134480181Y-105100000D01*
X134472044Y-105048625D01*
X134462486Y-104988273D01*
X134462485Y-104988270D01*
X134461574Y-104982518D01*
X134455758Y-104971103D01*
X134410219Y-104881727D01*
X134410217Y-104881724D01*
X134407573Y-104876535D01*
X134323465Y-104792427D01*
X134318276Y-104789783D01*
X134318273Y-104789781D01*
X134222676Y-104741072D01*
X134222673Y-104741071D01*
X134217482Y-104738426D01*
X134211730Y-104737515D01*
X134211727Y-104737514D01*
X134105752Y-104720730D01*
X134100000Y-104719819D01*
X134094248Y-104720730D01*
X133988273Y-104737514D01*
X133988270Y-104737515D01*
X133982518Y-104738426D01*
X133977327Y-104741071D01*
X133977324Y-104741072D01*
X133881727Y-104789781D01*
X133881724Y-104789783D01*
X133876535Y-104792427D01*
X133792427Y-104876535D01*
X133789783Y-104881724D01*
X133789781Y-104881727D01*
X133744242Y-104971103D01*
X133738426Y-104982518D01*
X133737515Y-104988270D01*
X133737514Y-104988273D01*
X133727956Y-105048625D01*
X133719819Y-105100000D01*
X125522262Y-105100000D01*
X125529270Y-105055752D01*
X125530181Y-105050000D01*
X125529974Y-105048692D01*
X125546583Y-105003060D01*
X125591694Y-104977537D01*
X125686727Y-104962486D01*
X125686730Y-104962485D01*
X125692482Y-104961574D01*
X125697673Y-104958929D01*
X125697676Y-104958928D01*
X125793273Y-104910219D01*
X125793276Y-104910217D01*
X125798465Y-104907573D01*
X125882573Y-104823465D01*
X125885217Y-104818276D01*
X125885219Y-104818273D01*
X125933928Y-104722676D01*
X125933929Y-104722673D01*
X125936574Y-104717482D01*
X125937485Y-104711730D01*
X125937486Y-104711727D01*
X125954270Y-104605752D01*
X125955181Y-104600000D01*
X125954270Y-104594248D01*
X125937486Y-104488273D01*
X125937485Y-104488270D01*
X125936574Y-104482518D01*
X125933928Y-104477324D01*
X125885219Y-104381727D01*
X125885217Y-104381724D01*
X125882573Y-104376535D01*
X125798465Y-104292427D01*
X125793276Y-104289783D01*
X125793273Y-104289781D01*
X125697676Y-104241072D01*
X125697673Y-104241071D01*
X125692482Y-104238426D01*
X125686730Y-104237515D01*
X125686727Y-104237514D01*
X125580752Y-104220730D01*
X125575000Y-104219819D01*
X125569248Y-104220730D01*
X125463273Y-104237514D01*
X125463270Y-104237515D01*
X125457518Y-104238426D01*
X125452327Y-104241071D01*
X125452324Y-104241072D01*
X125356727Y-104289781D01*
X125356724Y-104289783D01*
X125351535Y-104292427D01*
X125267427Y-104376535D01*
X125264783Y-104381724D01*
X125264781Y-104381727D01*
X125216072Y-104477324D01*
X125213426Y-104482518D01*
X125212515Y-104488270D01*
X125212514Y-104488273D01*
X125195730Y-104594248D01*
X125194819Y-104600000D01*
X125195026Y-104601308D01*
X125178417Y-104646940D01*
X125133306Y-104672463D01*
X125038273Y-104687514D01*
X125038270Y-104687515D01*
X125032518Y-104688426D01*
X125027327Y-104691071D01*
X125027324Y-104691072D01*
X124931727Y-104739781D01*
X124931724Y-104739783D01*
X124926535Y-104742427D01*
X124842427Y-104826535D01*
X124839783Y-104831724D01*
X124839781Y-104831727D01*
X124791072Y-104927324D01*
X124788426Y-104932518D01*
X124787515Y-104938270D01*
X124787514Y-104938273D01*
X124780877Y-104980181D01*
X124769819Y-105050000D01*
X123150500Y-105050000D01*
X123150500Y-103800000D01*
X129719819Y-103800000D01*
X129720730Y-103805752D01*
X129737514Y-103911727D01*
X129737515Y-103911730D01*
X129738426Y-103917482D01*
X129741071Y-103922673D01*
X129741072Y-103922676D01*
X129789781Y-104018273D01*
X129789783Y-104018276D01*
X129792427Y-104023465D01*
X129876535Y-104107573D01*
X129881724Y-104110217D01*
X129881727Y-104110219D01*
X129977324Y-104158928D01*
X129977327Y-104158929D01*
X129982518Y-104161574D01*
X129988270Y-104162485D01*
X129988273Y-104162486D01*
X130094248Y-104179270D01*
X130100000Y-104180181D01*
X130105752Y-104179270D01*
X130211727Y-104162486D01*
X130211730Y-104162485D01*
X130217482Y-104161574D01*
X130222673Y-104158929D01*
X130222676Y-104158928D01*
X130318273Y-104110219D01*
X130318276Y-104110217D01*
X130323465Y-104107573D01*
X130407573Y-104023465D01*
X130410217Y-104018276D01*
X130410219Y-104018273D01*
X130458928Y-103922676D01*
X130458929Y-103922673D01*
X130461574Y-103917482D01*
X130462485Y-103911730D01*
X130462486Y-103911727D01*
X130479270Y-103805752D01*
X130480181Y-103800000D01*
X130479270Y-103794248D01*
X130462486Y-103688273D01*
X130462485Y-103688270D01*
X130461574Y-103682518D01*
X130452641Y-103664986D01*
X130410219Y-103581727D01*
X130410217Y-103581724D01*
X130407573Y-103576535D01*
X130323465Y-103492427D01*
X130318276Y-103489783D01*
X130318273Y-103489781D01*
X130222676Y-103441072D01*
X130222673Y-103441071D01*
X130217482Y-103438426D01*
X130211730Y-103437515D01*
X130211727Y-103437514D01*
X130105752Y-103420730D01*
X130100000Y-103419819D01*
X130094248Y-103420730D01*
X129988273Y-103437514D01*
X129988270Y-103437515D01*
X129982518Y-103438426D01*
X129977327Y-103441071D01*
X129977324Y-103441072D01*
X129881727Y-103489781D01*
X129881724Y-103489783D01*
X129876535Y-103492427D01*
X129792427Y-103576535D01*
X129789783Y-103581724D01*
X129789781Y-103581727D01*
X129747359Y-103664986D01*
X129738426Y-103682518D01*
X129737515Y-103688270D01*
X129737514Y-103688273D01*
X129720730Y-103794248D01*
X129719819Y-103800000D01*
X123150500Y-103800000D01*
X123150500Y-103250000D01*
X125019819Y-103250000D01*
X125020730Y-103255752D01*
X125037514Y-103361727D01*
X125037515Y-103361730D01*
X125038426Y-103367482D01*
X125041071Y-103372673D01*
X125041072Y-103372676D01*
X125089781Y-103468273D01*
X125089783Y-103468276D01*
X125092427Y-103473465D01*
X125176535Y-103557573D01*
X125181724Y-103560217D01*
X125181727Y-103560219D01*
X125277324Y-103608928D01*
X125277327Y-103608929D01*
X125282518Y-103611574D01*
X125288270Y-103612485D01*
X125288273Y-103612486D01*
X125394248Y-103629270D01*
X125400000Y-103630181D01*
X125405752Y-103629270D01*
X125511727Y-103612486D01*
X125511730Y-103612485D01*
X125517482Y-103611574D01*
X125522673Y-103608929D01*
X125522676Y-103608928D01*
X125618273Y-103560219D01*
X125618276Y-103560217D01*
X125623465Y-103557573D01*
X125707573Y-103473465D01*
X125710217Y-103468276D01*
X125710219Y-103468273D01*
X125758928Y-103372676D01*
X125758929Y-103372673D01*
X125761574Y-103367482D01*
X125762485Y-103361730D01*
X125762486Y-103361727D01*
X125771866Y-103302500D01*
X127067319Y-103302500D01*
X127068230Y-103308252D01*
X127085014Y-103414227D01*
X127085015Y-103414230D01*
X127085926Y-103419982D01*
X127088571Y-103425173D01*
X127088572Y-103425176D01*
X127137281Y-103520773D01*
X127137283Y-103520776D01*
X127139927Y-103525965D01*
X127224035Y-103610073D01*
X127229224Y-103612717D01*
X127229227Y-103612719D01*
X127324824Y-103661428D01*
X127324827Y-103661429D01*
X127330018Y-103664074D01*
X127335770Y-103664985D01*
X127335773Y-103664986D01*
X127441748Y-103681770D01*
X127447500Y-103682681D01*
X127453252Y-103681770D01*
X127559227Y-103664986D01*
X127559230Y-103664985D01*
X127564982Y-103664074D01*
X127570173Y-103661429D01*
X127570176Y-103661428D01*
X127665773Y-103612719D01*
X127665776Y-103612717D01*
X127670965Y-103610073D01*
X127755073Y-103525965D01*
X127757717Y-103520776D01*
X127757719Y-103520773D01*
X127806428Y-103425176D01*
X127806429Y-103425173D01*
X127809074Y-103419982D01*
X127809985Y-103414230D01*
X127809986Y-103414227D01*
X127826770Y-103308252D01*
X127827681Y-103302500D01*
X127815816Y-103227584D01*
X127809986Y-103190773D01*
X127809985Y-103190770D01*
X127809074Y-103185018D01*
X127800308Y-103167813D01*
X127757719Y-103084227D01*
X127757717Y-103084224D01*
X127755073Y-103079035D01*
X127676038Y-103000000D01*
X130219819Y-103000000D01*
X130220730Y-103005752D01*
X130237514Y-103111727D01*
X130237515Y-103111730D01*
X130238426Y-103117482D01*
X130241071Y-103122673D01*
X130241072Y-103122676D01*
X130289781Y-103218273D01*
X130289783Y-103218276D01*
X130292427Y-103223465D01*
X130376535Y-103307573D01*
X130381724Y-103310217D01*
X130381727Y-103310219D01*
X130477324Y-103358928D01*
X130477327Y-103358929D01*
X130482518Y-103361574D01*
X130488270Y-103362485D01*
X130488273Y-103362486D01*
X130594248Y-103379270D01*
X130600000Y-103380181D01*
X130605752Y-103379270D01*
X130711727Y-103362486D01*
X130711730Y-103362485D01*
X130717482Y-103361574D01*
X130722673Y-103358929D01*
X130722676Y-103358928D01*
X130818273Y-103310219D01*
X130818276Y-103310217D01*
X130823465Y-103307573D01*
X130907573Y-103223465D01*
X130910217Y-103218276D01*
X130910219Y-103218273D01*
X130958928Y-103122676D01*
X130958929Y-103122673D01*
X130961574Y-103117482D01*
X130962485Y-103111730D01*
X130962486Y-103111727D01*
X130979270Y-103005752D01*
X130980181Y-103000000D01*
X130971244Y-102943572D01*
X130962486Y-102888273D01*
X130962485Y-102888270D01*
X130961574Y-102882518D01*
X130955104Y-102869819D01*
X130910219Y-102781727D01*
X130910217Y-102781724D01*
X130907573Y-102776535D01*
X130823465Y-102692427D01*
X130818276Y-102689783D01*
X130818273Y-102689781D01*
X130722676Y-102641072D01*
X130722673Y-102641071D01*
X130717482Y-102638426D01*
X130711730Y-102637515D01*
X130711727Y-102637514D01*
X130605752Y-102620730D01*
X130600000Y-102619819D01*
X130594248Y-102620730D01*
X130488273Y-102637514D01*
X130488270Y-102637515D01*
X130482518Y-102638426D01*
X130477327Y-102641071D01*
X130477324Y-102641072D01*
X130381727Y-102689781D01*
X130381724Y-102689783D01*
X130376535Y-102692427D01*
X130292427Y-102776535D01*
X130289783Y-102781724D01*
X130289781Y-102781727D01*
X130244896Y-102869819D01*
X130238426Y-102882518D01*
X130237515Y-102888270D01*
X130237514Y-102888273D01*
X130228756Y-102943572D01*
X130219819Y-103000000D01*
X127676038Y-103000000D01*
X127670965Y-102994927D01*
X127665776Y-102992283D01*
X127665773Y-102992281D01*
X127570176Y-102943572D01*
X127570173Y-102943571D01*
X127564982Y-102940926D01*
X127559230Y-102940015D01*
X127559227Y-102940014D01*
X127453252Y-102923230D01*
X127447500Y-102922319D01*
X127441748Y-102923230D01*
X127335773Y-102940014D01*
X127335770Y-102940015D01*
X127330018Y-102940926D01*
X127324827Y-102943571D01*
X127324824Y-102943572D01*
X127229227Y-102992281D01*
X127229224Y-102992283D01*
X127224035Y-102994927D01*
X127139927Y-103079035D01*
X127137283Y-103084224D01*
X127137281Y-103084227D01*
X127094692Y-103167813D01*
X127085926Y-103185018D01*
X127085015Y-103190770D01*
X127085014Y-103190773D01*
X127079184Y-103227584D01*
X127067319Y-103302500D01*
X125771866Y-103302500D01*
X125779270Y-103255752D01*
X125780181Y-103250000D01*
X125774107Y-103211650D01*
X125762486Y-103138273D01*
X125762485Y-103138270D01*
X125761574Y-103132518D01*
X125758928Y-103127324D01*
X125710219Y-103031727D01*
X125710217Y-103031724D01*
X125707573Y-103026535D01*
X125623465Y-102942427D01*
X125618276Y-102939783D01*
X125618273Y-102939781D01*
X125540198Y-102900000D01*
X126219819Y-102900000D01*
X126220730Y-102905752D01*
X126237514Y-103011727D01*
X126237515Y-103011730D01*
X126238426Y-103017482D01*
X126241071Y-103022673D01*
X126241072Y-103022676D01*
X126289781Y-103118273D01*
X126289783Y-103118276D01*
X126292427Y-103123465D01*
X126376535Y-103207573D01*
X126381724Y-103210217D01*
X126381727Y-103210219D01*
X126477324Y-103258928D01*
X126477327Y-103258929D01*
X126482518Y-103261574D01*
X126488270Y-103262485D01*
X126488273Y-103262486D01*
X126594248Y-103279270D01*
X126600000Y-103280181D01*
X126605752Y-103279270D01*
X126711727Y-103262486D01*
X126711730Y-103262485D01*
X126717482Y-103261574D01*
X126722673Y-103258929D01*
X126722676Y-103258928D01*
X126818273Y-103210219D01*
X126818276Y-103210217D01*
X126823465Y-103207573D01*
X126907573Y-103123465D01*
X126910217Y-103118276D01*
X126910219Y-103118273D01*
X126958928Y-103022676D01*
X126958929Y-103022673D01*
X126961574Y-103017482D01*
X126962485Y-103011730D01*
X126962486Y-103011727D01*
X126979270Y-102905752D01*
X126980181Y-102900000D01*
X126971342Y-102844191D01*
X126962486Y-102788273D01*
X126962485Y-102788270D01*
X126961574Y-102782518D01*
X126956427Y-102772416D01*
X126910219Y-102681727D01*
X126910217Y-102681724D01*
X126907573Y-102676535D01*
X126823465Y-102592427D01*
X126818276Y-102589783D01*
X126818273Y-102589781D01*
X126722676Y-102541072D01*
X126722673Y-102541071D01*
X126717482Y-102538426D01*
X126711730Y-102537515D01*
X126711727Y-102537514D01*
X126605752Y-102520730D01*
X126600000Y-102519819D01*
X126594248Y-102520730D01*
X126488273Y-102537514D01*
X126488270Y-102537515D01*
X126482518Y-102538426D01*
X126477327Y-102541071D01*
X126477324Y-102541072D01*
X126381727Y-102589781D01*
X126381724Y-102589783D01*
X126376535Y-102592427D01*
X126292427Y-102676535D01*
X126289783Y-102681724D01*
X126289781Y-102681727D01*
X126243573Y-102772416D01*
X126238426Y-102782518D01*
X126237515Y-102788270D01*
X126237514Y-102788273D01*
X126228658Y-102844191D01*
X126219819Y-102900000D01*
X125540198Y-102900000D01*
X125522676Y-102891072D01*
X125522673Y-102891071D01*
X125517482Y-102888426D01*
X125511730Y-102887515D01*
X125511727Y-102887514D01*
X125405752Y-102870730D01*
X125400000Y-102869819D01*
X125394248Y-102870730D01*
X125288273Y-102887514D01*
X125288270Y-102887515D01*
X125282518Y-102888426D01*
X125277327Y-102891071D01*
X125277324Y-102891072D01*
X125181727Y-102939781D01*
X125181724Y-102939783D01*
X125176535Y-102942427D01*
X125092427Y-103026535D01*
X125089783Y-103031724D01*
X125089781Y-103031727D01*
X125041072Y-103127324D01*
X125038426Y-103132518D01*
X125037515Y-103138270D01*
X125037514Y-103138273D01*
X125025893Y-103211650D01*
X125019819Y-103250000D01*
X123150500Y-103250000D01*
X123150500Y-101924000D01*
X123167813Y-101876434D01*
X123211650Y-101851124D01*
X123224500Y-101850000D01*
X143024863Y-101850000D01*
X143072429Y-101867313D01*
G37*
%TD.AperFunction*%
%TD*%
M02*
