%TF.GenerationSoftware,KiCad,Pcbnew,6.0.4*%
%TF.CreationDate,2022-06-17T00:24:20+08:00*%
%TF.ProjectId,holocubic,686f6c6f-6375-4626-9963-2e6b69636164,rev?*%
%TF.SameCoordinates,Original*%
%TF.FileFunction,Legend,Top*%
%TF.FilePolarity,Positive*%
%FSLAX46Y46*%
G04 Gerber Fmt 4.6, Leading zero omitted, Abs format (unit mm)*
G04 Created by KiCad (PCBNEW 6.0.4) date 2022-06-17 00:24:20*
%MOMM*%
%LPD*%
G01*
G04 APERTURE LIST*
G04 Aperture macros list*
%AMRoundRect*
0 Rectangle with rounded corners*
0 $1 Rounding radius*
0 $2 $3 $4 $5 $6 $7 $8 $9 X,Y pos of 4 corners*
0 Add a 4 corners polygon primitive as box body*
4,1,4,$2,$3,$4,$5,$6,$7,$8,$9,$2,$3,0*
0 Add four circle primitives for the rounded corners*
1,1,$1+$1,$2,$3*
1,1,$1+$1,$4,$5*
1,1,$1+$1,$6,$7*
1,1,$1+$1,$8,$9*
0 Add four rect primitives between the rounded corners*
20,1,$1+$1,$2,$3,$4,$5,0*
20,1,$1+$1,$4,$5,$6,$7,0*
20,1,$1+$1,$6,$7,$8,$9,0*
20,1,$1+$1,$8,$9,$2,$3,0*%
G04 Aperture macros list end*
%ADD10C,0.120000*%
%ADD11C,0.100000*%
%ADD12C,0.150000*%
%ADD13RoundRect,0.140000X0.140000X0.170000X-0.140000X0.170000X-0.140000X-0.170000X0.140000X-0.170000X0*%
%ADD14R,2.000000X1.500000*%
%ADD15R,2.000000X3.800000*%
%ADD16RoundRect,0.140000X-0.140000X-0.170000X0.140000X-0.170000X0.140000X0.170000X-0.140000X0.170000X0*%
%ADD17RoundRect,0.140000X-0.170000X0.140000X-0.170000X-0.140000X0.170000X-0.140000X0.170000X0.140000X0*%
%ADD18R,1.200000X1.400000*%
%ADD19C,0.650000*%
%ADD20R,1.450000X0.600000*%
%ADD21R,1.450000X0.300000*%
%ADD22O,1.600000X1.000000*%
%ADD23O,2.100000X1.000000*%
%ADD24RoundRect,0.147500X-0.147500X-0.172500X0.147500X-0.172500X0.147500X0.172500X-0.147500X0.172500X0*%
%ADD25RoundRect,0.050000X-0.050000X0.387500X-0.050000X-0.387500X0.050000X-0.387500X0.050000X0.387500X0*%
%ADD26RoundRect,0.050000X-0.387500X0.050000X-0.387500X-0.050000X0.387500X-0.050000X0.387500X0.050000X0*%
%ADD27R,5.600000X5.600000*%
%ADD28R,0.300000X1.100000*%
%ADD29R,2.300000X3.100000*%
%ADD30RoundRect,0.135000X-0.135000X-0.185000X0.135000X-0.185000X0.135000X0.185000X-0.135000X0.185000X0*%
%ADD31R,0.540000X0.540000*%
G04 APERTURE END LIST*
D10*
%TO.C,C17*%
X122007836Y-105940000D02*
X121792164Y-105940000D01*
X122007836Y-106660000D02*
X121792164Y-106660000D01*
%TO.C,U1*%
X140810000Y-120010000D02*
X140810000Y-118750000D01*
X137050000Y-120010000D02*
X140810000Y-120010000D01*
X140810000Y-113190000D02*
X140810000Y-114450000D01*
X134800000Y-113190000D02*
X140810000Y-113190000D01*
%TO.C,C10*%
X126007836Y-113410000D02*
X125792164Y-113410000D01*
X126007836Y-112690000D02*
X125792164Y-112690000D01*
%TO.C,C26*%
X129712164Y-103960000D02*
X129927836Y-103960000D01*
X129712164Y-103240000D02*
X129927836Y-103240000D01*
%TO.C,C8*%
X134290000Y-103442164D02*
X134290000Y-103657836D01*
X135010000Y-103442164D02*
X135010000Y-103657836D01*
%TO.C,C7*%
X131590000Y-103442164D02*
X131590000Y-103657836D01*
X132310000Y-103442164D02*
X132310000Y-103657836D01*
%TO.C,C25*%
X129702164Y-102530000D02*
X129917836Y-102530000D01*
X129702164Y-103250000D02*
X129917836Y-103250000D01*
%TO.C,Y1*%
X136950000Y-106200000D02*
X133650000Y-106200000D01*
X133650000Y-106200000D02*
X133650000Y-110200000D01*
%TO.C,C3*%
X134442164Y-110440000D02*
X134657836Y-110440000D01*
X134442164Y-111160000D02*
X134657836Y-111160000D01*
%TO.C,C9*%
X136292164Y-105240000D02*
X136507836Y-105240000D01*
X136292164Y-105960000D02*
X136507836Y-105960000D01*
%TO.C,C11*%
X136292164Y-111160000D02*
X136507836Y-111160000D01*
X136292164Y-110440000D02*
X136507836Y-110440000D01*
%TO.C,J2*%
X141100000Y-112950000D02*
X143100000Y-112950000D01*
X146900000Y-112950000D02*
X146900000Y-103550000D01*
X141100000Y-103550000D02*
X143100000Y-103550000D01*
X145000000Y-112950000D02*
X146900000Y-112950000D01*
X145000000Y-103550000D02*
X146900000Y-103550000D01*
%TO.C,U2*%
X132210000Y-111660000D02*
X132210000Y-112310000D01*
X124990000Y-111660000D02*
X124990000Y-112310000D01*
X124990000Y-112310000D02*
X125640000Y-112310000D01*
X124990000Y-105090000D02*
X125640000Y-105090000D01*
X132210000Y-105740000D02*
X132210000Y-105090000D01*
X124990000Y-105740000D02*
X124990000Y-105090000D01*
X132210000Y-112310000D02*
X131560000Y-112310000D01*
%TO.C,J1*%
X130650000Y-117650000D02*
X130450000Y-118050000D01*
X130850000Y-118050000D02*
X130650000Y-117650000D01*
X124185000Y-115460000D02*
X124075000Y-115460000D01*
X130450000Y-118050000D02*
X130850000Y-118050000D01*
X124075000Y-115460000D02*
X124075000Y-114860000D01*
X133725000Y-115460000D02*
X133725000Y-114860000D01*
X133615000Y-115460000D02*
X133725000Y-115460000D01*
%TO.C,R1*%
X126783859Y-103330000D02*
X127091141Y-103330000D01*
X126783859Y-102570000D02*
X127091141Y-102570000D01*
%TO.C,C5*%
X127045336Y-103490000D02*
X126829664Y-103490000D01*
X127045336Y-104210000D02*
X126829664Y-104210000D01*
D11*
%TO.C,MK1*%
X120952100Y-106882400D02*
X122822900Y-106882400D01*
X122822900Y-106882400D02*
X122822900Y-109617600D01*
X122822900Y-109617600D02*
X120952100Y-109617600D01*
X120952100Y-109617600D02*
X120952100Y-106882400D01*
D12*
X120852100Y-107257400D02*
G75*
G03*
X120852100Y-107257400I-75000J0D01*
G01*
D10*
%TO.C,C6*%
X134442164Y-105960000D02*
X134657836Y-105960000D01*
X134442164Y-105240000D02*
X134657836Y-105240000D01*
%TD*%
%LPC*%
D13*
%TO.C,C17*%
X122380000Y-106300000D03*
X121420000Y-106300000D03*
%TD*%
D14*
%TO.C,U1*%
X135750000Y-114300000D03*
X135750000Y-116600000D03*
D15*
X142050000Y-116600000D03*
D14*
X135750000Y-118900000D03*
%TD*%
D13*
%TO.C,C10*%
X126380000Y-113050000D03*
X125420000Y-113050000D03*
%TD*%
D16*
%TO.C,C26*%
X129340000Y-103600000D03*
X130300000Y-103600000D03*
%TD*%
D17*
%TO.C,C8*%
X134650000Y-103070000D03*
X134650000Y-104030000D03*
%TD*%
%TO.C,C7*%
X131950000Y-103070000D03*
X131950000Y-104030000D03*
%TD*%
D16*
%TO.C,C25*%
X129330000Y-102890000D03*
X130290000Y-102890000D03*
%TD*%
D18*
%TO.C,Y1*%
X134450000Y-107100000D03*
X134450000Y-109300000D03*
X136150000Y-109300000D03*
X136150000Y-107100000D03*
%TD*%
D16*
%TO.C,C3*%
X134070000Y-110800000D03*
X135030000Y-110800000D03*
%TD*%
%TO.C,C9*%
X135920000Y-105600000D03*
X136880000Y-105600000D03*
%TD*%
%TO.C,C11*%
X135920000Y-110800000D03*
X136880000Y-110800000D03*
%TD*%
D19*
%TO.C,J2*%
X140400000Y-105360000D03*
X140400000Y-111140000D03*
D20*
X138955000Y-111500000D03*
X138955000Y-110700000D03*
D21*
X138955000Y-109500000D03*
X138955000Y-108500000D03*
X138955000Y-108000000D03*
X138955000Y-107000000D03*
D20*
X138955000Y-105800000D03*
X138955000Y-105000000D03*
X138955000Y-105000000D03*
X138955000Y-105800000D03*
D21*
X138955000Y-106500000D03*
X138955000Y-107500000D03*
X138955000Y-109000000D03*
X138955000Y-110000000D03*
D20*
X138955000Y-110700000D03*
X138955000Y-111500000D03*
D22*
X144050000Y-112570000D03*
D23*
X139870000Y-103930000D03*
D22*
X144050000Y-103930000D03*
D23*
X139870000Y-112570000D03*
%TD*%
D24*
%TO.C,L1*%
X132815000Y-103100000D03*
X133785000Y-103100000D03*
%TD*%
D25*
%TO.C,U2*%
X131200000Y-105262500D03*
X130800000Y-105262500D03*
X130400000Y-105262500D03*
X130000000Y-105262500D03*
X129600000Y-105262500D03*
X129200000Y-105262500D03*
X128800000Y-105262500D03*
X128400000Y-105262500D03*
X128000000Y-105262500D03*
X127600000Y-105262500D03*
X127200000Y-105262500D03*
X126800000Y-105262500D03*
X126400000Y-105262500D03*
X126000000Y-105262500D03*
D26*
X125162500Y-106100000D03*
X125162500Y-106500000D03*
X125162500Y-106900000D03*
X125162500Y-107300000D03*
X125162500Y-107700000D03*
X125162500Y-108100000D03*
X125162500Y-108500000D03*
X125162500Y-108900000D03*
X125162500Y-109300000D03*
X125162500Y-109700000D03*
X125162500Y-110100000D03*
X125162500Y-110500000D03*
X125162500Y-110900000D03*
X125162500Y-111300000D03*
D25*
X126000000Y-112137500D03*
X126400000Y-112137500D03*
X126800000Y-112137500D03*
X127200000Y-112137500D03*
X127600000Y-112137500D03*
X128000000Y-112137500D03*
X128400000Y-112137500D03*
X128800000Y-112137500D03*
X129200000Y-112137500D03*
X129600000Y-112137500D03*
X130000000Y-112137500D03*
X130400000Y-112137500D03*
X130800000Y-112137500D03*
X131200000Y-112137500D03*
D26*
X132037500Y-111300000D03*
X132037500Y-110900000D03*
X132037500Y-110500000D03*
X132037500Y-110100000D03*
X132037500Y-109700000D03*
X132037500Y-109300000D03*
X132037500Y-108900000D03*
X132037500Y-108500000D03*
X132037500Y-108100000D03*
X132037500Y-107700000D03*
X132037500Y-107300000D03*
X132037500Y-106900000D03*
X132037500Y-106500000D03*
X132037500Y-106100000D03*
D27*
X128600000Y-108700000D03*
%TD*%
D28*
%TO.C,J1*%
X130650000Y-118850000D03*
X130150000Y-118850000D03*
X129650000Y-118850000D03*
X129150000Y-118850000D03*
X128650000Y-118850000D03*
X128150000Y-118850000D03*
X127650000Y-118850000D03*
X127150000Y-118850000D03*
D29*
X132320000Y-117150000D03*
X125480000Y-117150000D03*
%TD*%
D30*
%TO.C,R1*%
X126427500Y-102950000D03*
X127447500Y-102950000D03*
%TD*%
D13*
%TO.C,C5*%
X127417500Y-103850000D03*
X126457500Y-103850000D03*
%TD*%
D31*
%TO.C,MK1*%
X122387100Y-107307400D03*
X122387100Y-109207400D03*
X121377100Y-109207400D03*
X121377100Y-107307400D03*
%TD*%
D16*
%TO.C,C6*%
X134070000Y-105600000D03*
X135030000Y-105600000D03*
%TD*%
M02*
