%TF.GenerationSoftware,KiCad,Pcbnew,6.0.4*%
%TF.CreationDate,2022-06-17T00:24:20+08:00*%
%TF.ProjectId,holocubic,686f6c6f-6375-4626-9963-2e6b69636164,rev?*%
%TF.SameCoordinates,Original*%
%TF.FileFunction,Paste,Top*%
%TF.FilePolarity,Positive*%
%FSLAX46Y46*%
G04 Gerber Fmt 4.6, Leading zero omitted, Abs format (unit mm)*
G04 Created by KiCad (PCBNEW 6.0.4) date 2022-06-17 00:24:20*
%MOMM*%
%LPD*%
G01*
G04 APERTURE LIST*
G04 Aperture macros list*
%AMRoundRect*
0 Rectangle with rounded corners*
0 $1 Rounding radius*
0 $2 $3 $4 $5 $6 $7 $8 $9 X,Y pos of 4 corners*
0 Add a 4 corners polygon primitive as box body*
4,1,4,$2,$3,$4,$5,$6,$7,$8,$9,$2,$3,0*
0 Add four circle primitives for the rounded corners*
1,1,$1+$1,$2,$3*
1,1,$1+$1,$4,$5*
1,1,$1+$1,$6,$7*
1,1,$1+$1,$8,$9*
0 Add four rect primitives between the rounded corners*
20,1,$1+$1,$2,$3,$4,$5,0*
20,1,$1+$1,$4,$5,$6,$7,0*
20,1,$1+$1,$6,$7,$8,$9,0*
20,1,$1+$1,$8,$9,$2,$3,0*%
G04 Aperture macros list end*
%ADD10RoundRect,0.140000X0.140000X0.170000X-0.140000X0.170000X-0.140000X-0.170000X0.140000X-0.170000X0*%
%ADD11R,2.000000X1.500000*%
%ADD12R,2.000000X3.800000*%
%ADD13RoundRect,0.140000X-0.140000X-0.170000X0.140000X-0.170000X0.140000X0.170000X-0.140000X0.170000X0*%
%ADD14RoundRect,0.140000X-0.170000X0.140000X-0.170000X-0.140000X0.170000X-0.140000X0.170000X0.140000X0*%
%ADD15R,1.200000X1.400000*%
%ADD16R,1.450000X0.600000*%
%ADD17R,1.450000X0.300000*%
%ADD18RoundRect,0.147500X-0.147500X-0.172500X0.147500X-0.172500X0.147500X0.172500X-0.147500X0.172500X0*%
%ADD19RoundRect,0.250000X-0.315000X0.315000X-0.315000X-0.315000X0.315000X-0.315000X0.315000X0.315000X0*%
%ADD20RoundRect,0.050000X-0.050000X0.387500X-0.050000X-0.387500X0.050000X-0.387500X0.050000X0.387500X0*%
%ADD21RoundRect,0.050000X-0.387500X0.050000X-0.387500X-0.050000X0.387500X-0.050000X0.387500X0.050000X0*%
%ADD22R,0.300000X1.100000*%
%ADD23R,2.300000X3.100000*%
%ADD24RoundRect,0.135000X-0.135000X-0.185000X0.135000X-0.185000X0.135000X0.185000X-0.135000X0.185000X0*%
%ADD25R,0.540000X0.540000*%
G04 APERTURE END LIST*
D10*
%TO.C,C17*%
X122380000Y-106300000D03*
X121420000Y-106300000D03*
%TD*%
D11*
%TO.C,U1*%
X135750000Y-114300000D03*
X135750000Y-116600000D03*
D12*
X142050000Y-116600000D03*
D11*
X135750000Y-118900000D03*
%TD*%
D10*
%TO.C,C10*%
X126380000Y-113050000D03*
X125420000Y-113050000D03*
%TD*%
D13*
%TO.C,C26*%
X129340000Y-103600000D03*
X130300000Y-103600000D03*
%TD*%
D14*
%TO.C,C8*%
X134650000Y-103070000D03*
X134650000Y-104030000D03*
%TD*%
%TO.C,C7*%
X131950000Y-103070000D03*
X131950000Y-104030000D03*
%TD*%
D13*
%TO.C,C25*%
X129330000Y-102890000D03*
X130290000Y-102890000D03*
%TD*%
D15*
%TO.C,Y1*%
X134450000Y-107100000D03*
X134450000Y-109300000D03*
X136150000Y-109300000D03*
X136150000Y-107100000D03*
%TD*%
D13*
%TO.C,C3*%
X134070000Y-110800000D03*
X135030000Y-110800000D03*
%TD*%
%TO.C,C9*%
X135920000Y-105600000D03*
X136880000Y-105600000D03*
%TD*%
%TO.C,C11*%
X135920000Y-110800000D03*
X136880000Y-110800000D03*
%TD*%
D16*
%TO.C,J2*%
X138955000Y-111500000D03*
X138955000Y-110700000D03*
D17*
X138955000Y-109500000D03*
X138955000Y-108500000D03*
X138955000Y-108000000D03*
X138955000Y-107000000D03*
D16*
X138955000Y-105800000D03*
X138955000Y-105000000D03*
X138955000Y-105000000D03*
X138955000Y-105800000D03*
D17*
X138955000Y-106500000D03*
X138955000Y-107500000D03*
X138955000Y-109000000D03*
X138955000Y-110000000D03*
D16*
X138955000Y-110700000D03*
X138955000Y-111500000D03*
%TD*%
D18*
%TO.C,L1*%
X132815000Y-103100000D03*
X133785000Y-103100000D03*
%TD*%
D19*
%TO.C,U2*%
X127900000Y-109400000D03*
X130700000Y-106600000D03*
X130700000Y-110800000D03*
X130700000Y-108000000D03*
X126500000Y-110800000D03*
X126500000Y-106600000D03*
X126500000Y-109400000D03*
X127900000Y-108000000D03*
X126500000Y-108000000D03*
X129300000Y-108000000D03*
X127900000Y-110800000D03*
X130700000Y-109400000D03*
X127900000Y-106600000D03*
X129300000Y-110800000D03*
X129300000Y-109400000D03*
X129300000Y-106600000D03*
D20*
X131200000Y-105262500D03*
X130800000Y-105262500D03*
X130400000Y-105262500D03*
X130000000Y-105262500D03*
X129600000Y-105262500D03*
X129200000Y-105262500D03*
X128800000Y-105262500D03*
X128400000Y-105262500D03*
X128000000Y-105262500D03*
X127600000Y-105262500D03*
X127200000Y-105262500D03*
X126800000Y-105262500D03*
X126400000Y-105262500D03*
X126000000Y-105262500D03*
D21*
X125162500Y-106100000D03*
X125162500Y-106500000D03*
X125162500Y-106900000D03*
X125162500Y-107300000D03*
X125162500Y-107700000D03*
X125162500Y-108100000D03*
X125162500Y-108500000D03*
X125162500Y-108900000D03*
X125162500Y-109300000D03*
X125162500Y-109700000D03*
X125162500Y-110100000D03*
X125162500Y-110500000D03*
X125162500Y-110900000D03*
X125162500Y-111300000D03*
D20*
X126000000Y-112137500D03*
X126400000Y-112137500D03*
X126800000Y-112137500D03*
X127200000Y-112137500D03*
X127600000Y-112137500D03*
X128000000Y-112137500D03*
X128400000Y-112137500D03*
X128800000Y-112137500D03*
X129200000Y-112137500D03*
X129600000Y-112137500D03*
X130000000Y-112137500D03*
X130400000Y-112137500D03*
X130800000Y-112137500D03*
X131200000Y-112137500D03*
D21*
X132037500Y-111300000D03*
X132037500Y-110900000D03*
X132037500Y-110500000D03*
X132037500Y-110100000D03*
X132037500Y-109700000D03*
X132037500Y-109300000D03*
X132037500Y-108900000D03*
X132037500Y-108500000D03*
X132037500Y-108100000D03*
X132037500Y-107700000D03*
X132037500Y-107300000D03*
X132037500Y-106900000D03*
X132037500Y-106500000D03*
X132037500Y-106100000D03*
%TD*%
D22*
%TO.C,J1*%
X130650000Y-118850000D03*
X130150000Y-118850000D03*
X129650000Y-118850000D03*
X129150000Y-118850000D03*
X128650000Y-118850000D03*
X128150000Y-118850000D03*
X127650000Y-118850000D03*
X127150000Y-118850000D03*
D23*
X132320000Y-117150000D03*
X125480000Y-117150000D03*
%TD*%
D24*
%TO.C,R1*%
X126427500Y-102950000D03*
X127447500Y-102950000D03*
%TD*%
D10*
%TO.C,C5*%
X127417500Y-103850000D03*
X126457500Y-103850000D03*
%TD*%
D25*
%TO.C,MK1*%
X122387100Y-107307400D03*
X122387100Y-109207400D03*
X121377100Y-109207400D03*
X121377100Y-107307400D03*
%TD*%
D13*
%TO.C,C6*%
X134070000Y-105600000D03*
X135030000Y-105600000D03*
%TD*%
M02*
