%TF.GenerationSoftware,KiCad,Pcbnew,6.0.4*%
%TF.CreationDate,2022-06-04T16:46:40+08:00*%
%TF.ProjectId,holocubic,686f6c6f-6375-4626-9963-2e6b69636164,rev?*%
%TF.SameCoordinates,Original*%
%TF.FileFunction,Copper,L1,Top*%
%TF.FilePolarity,Positive*%
%FSLAX46Y46*%
G04 Gerber Fmt 4.6, Leading zero omitted, Abs format (unit mm)*
G04 Created by KiCad (PCBNEW 6.0.4) date 2022-06-04 16:46:40*
%MOMM*%
%LPD*%
G01*
G04 APERTURE LIST*
G04 Aperture macros list*
%AMRoundRect*
0 Rectangle with rounded corners*
0 $1 Rounding radius*
0 $2 $3 $4 $5 $6 $7 $8 $9 X,Y pos of 4 corners*
0 Add a 4 corners polygon primitive as box body*
4,1,4,$2,$3,$4,$5,$6,$7,$8,$9,$2,$3,0*
0 Add four circle primitives for the rounded corners*
1,1,$1+$1,$2,$3*
1,1,$1+$1,$4,$5*
1,1,$1+$1,$6,$7*
1,1,$1+$1,$8,$9*
0 Add four rect primitives between the rounded corners*
20,1,$1+$1,$2,$3,$4,$5,0*
20,1,$1+$1,$4,$5,$6,$7,0*
20,1,$1+$1,$6,$7,$8,$9,0*
20,1,$1+$1,$8,$9,$2,$3,0*%
G04 Aperture macros list end*
%TA.AperFunction,SMDPad,CuDef*%
%ADD10RoundRect,0.140000X0.140000X0.170000X-0.140000X0.170000X-0.140000X-0.170000X0.140000X-0.170000X0*%
%TD*%
%TA.AperFunction,SMDPad,CuDef*%
%ADD11R,2.000000X1.500000*%
%TD*%
%TA.AperFunction,SMDPad,CuDef*%
%ADD12R,2.000000X3.800000*%
%TD*%
%TA.AperFunction,ConnectorPad*%
%ADD13R,0.500000X0.500000*%
%TD*%
%TA.AperFunction,ComponentPad*%
%ADD14R,0.900000X0.500000*%
%TD*%
%TA.AperFunction,SMDPad,CuDef*%
%ADD15RoundRect,0.140000X-0.170000X0.140000X-0.170000X-0.140000X0.170000X-0.140000X0.170000X0.140000X0*%
%TD*%
%TA.AperFunction,SMDPad,CuDef*%
%ADD16RoundRect,0.140000X-0.140000X-0.170000X0.140000X-0.170000X0.140000X0.170000X-0.140000X0.170000X0*%
%TD*%
%TA.AperFunction,SMDPad,CuDef*%
%ADD17R,1.200000X1.400000*%
%TD*%
%TA.AperFunction,SMDPad,CuDef*%
%ADD18R,1.450000X0.600000*%
%TD*%
%TA.AperFunction,SMDPad,CuDef*%
%ADD19R,1.450000X0.300000*%
%TD*%
%TA.AperFunction,ComponentPad*%
%ADD20O,1.600000X1.000000*%
%TD*%
%TA.AperFunction,ComponentPad*%
%ADD21O,2.100000X1.000000*%
%TD*%
%TA.AperFunction,SMDPad,CuDef*%
%ADD22RoundRect,0.147500X-0.147500X-0.172500X0.147500X-0.172500X0.147500X0.172500X-0.147500X0.172500X0*%
%TD*%
%TA.AperFunction,SMDPad,CuDef*%
%ADD23RoundRect,0.050000X-0.050000X0.387500X-0.050000X-0.387500X0.050000X-0.387500X0.050000X0.387500X0*%
%TD*%
%TA.AperFunction,SMDPad,CuDef*%
%ADD24RoundRect,0.050000X-0.387500X0.050000X-0.387500X-0.050000X0.387500X-0.050000X0.387500X0.050000X0*%
%TD*%
%TA.AperFunction,SMDPad,CuDef*%
%ADD25R,5.600000X5.600000*%
%TD*%
%TA.AperFunction,SMDPad,CuDef*%
%ADD26RoundRect,0.225000X0.225000X0.250000X-0.225000X0.250000X-0.225000X-0.250000X0.225000X-0.250000X0*%
%TD*%
%TA.AperFunction,SMDPad,CuDef*%
%ADD27R,0.300000X1.100000*%
%TD*%
%TA.AperFunction,SMDPad,CuDef*%
%ADD28R,2.300000X3.100000*%
%TD*%
%TA.AperFunction,SMDPad,CuDef*%
%ADD29RoundRect,0.135000X-0.135000X-0.185000X0.135000X-0.185000X0.135000X0.185000X-0.135000X0.185000X0*%
%TD*%
%TA.AperFunction,SMDPad,CuDef*%
%ADD30R,0.540000X0.540000*%
%TD*%
%TA.AperFunction,ViaPad*%
%ADD31C,0.450000*%
%TD*%
%TA.AperFunction,ViaPad*%
%ADD32C,0.600000*%
%TD*%
%TA.AperFunction,ViaPad*%
%ADD33C,0.700000*%
%TD*%
%TA.AperFunction,ViaPad*%
%ADD34C,0.400000*%
%TD*%
%TA.AperFunction,Conductor*%
%ADD35C,0.200000*%
%TD*%
%TA.AperFunction,Conductor*%
%ADD36C,0.300000*%
%TD*%
%TA.AperFunction,Conductor*%
%ADD37C,0.900000*%
%TD*%
%TA.AperFunction,Conductor*%
%ADD38C,0.350000*%
%TD*%
%TA.AperFunction,Conductor*%
%ADD39C,0.250000*%
%TD*%
%TA.AperFunction,Conductor*%
%ADD40C,0.180000*%
%TD*%
G04 APERTURE END LIST*
%TO.C,AE1*%
G36*
X137200000Y-102075000D02*
G01*
X137200000Y-101816842D01*
X137501778Y-101816842D01*
X137508309Y-101866368D01*
X137528868Y-101911553D01*
X137562511Y-101946787D01*
X137581122Y-101957400D01*
X137626637Y-101970300D01*
X137675156Y-101971043D01*
X137717819Y-101958935D01*
X137725731Y-101954581D01*
X137763674Y-101921797D01*
X137787742Y-101879395D01*
X137797583Y-101831785D01*
X137792847Y-101783378D01*
X137773185Y-101738584D01*
X137738245Y-101701814D01*
X137705353Y-101684908D01*
X137657267Y-101677018D01*
X137607682Y-101683592D01*
X137562372Y-101703687D01*
X137527112Y-101736357D01*
X137510218Y-101768583D01*
X137501778Y-101816842D01*
X137200000Y-101816842D01*
X137200000Y-97175000D01*
X135800000Y-97175000D01*
X135800000Y-102075000D01*
X135300000Y-102075000D01*
X135300000Y-97175000D01*
X133600000Y-97175000D01*
X133600000Y-99815000D01*
X130600000Y-99815000D01*
X130600000Y-97175000D01*
X128900000Y-97175000D01*
X128900000Y-99815000D01*
X125900000Y-99815000D01*
X125900000Y-97175000D01*
X124200000Y-97175000D01*
X124200000Y-101115000D01*
X123700000Y-101115000D01*
X123700000Y-96675000D01*
X126400000Y-96675000D01*
X126400000Y-99315000D01*
X128400000Y-99315000D01*
X128400000Y-96675000D01*
X131100000Y-96675000D01*
X131100000Y-99315000D01*
X133100000Y-99315000D01*
X133100000Y-96675000D01*
X138100000Y-96675000D01*
X138100000Y-102075000D01*
X137200000Y-102075000D01*
G37*
%TD*%
D10*
%TO.P,C17,1*%
%TO.N,Net-(C17-Pad1)*%
X122380000Y-106300000D03*
%TO.P,C17,2*%
%TO.N,GND*%
X121420000Y-106300000D03*
%TD*%
D11*
%TO.P,U1,1,GND*%
%TO.N,GND*%
X135750000Y-114300000D03*
%TO.P,U1,2,VO*%
%TO.N,+3V3*%
X135750000Y-116600000D03*
D12*
X142050000Y-116600000D03*
D11*
%TO.P,U1,3,VI*%
%TO.N,+5V*%
X135750000Y-118900000D03*
%TD*%
D10*
%TO.P,C10,1*%
%TO.N,Net-(C10-Pad1)*%
X126380000Y-113050000D03*
%TO.P,C10,2*%
%TO.N,GND*%
X125420000Y-113050000D03*
%TD*%
D13*
%TO.P,AE1,1,A*%
%TO.N,Net-(AE1-Pad1)*%
X135550000Y-101825000D03*
D14*
%TO.P,AE1,2,Shield*%
%TO.N,GND*%
X137650000Y-101825000D03*
%TD*%
D15*
%TO.P,C8,1*%
%TO.N,Net-(AE1-Pad1)*%
X133200000Y-102920000D03*
%TO.P,C8,2*%
%TO.N,GND*%
X133200000Y-103880000D03*
%TD*%
D16*
%TO.P,C7,1*%
%TO.N,/LNA*%
X131370000Y-103850000D03*
%TO.P,C7,2*%
%TO.N,GND*%
X132330000Y-103850000D03*
%TD*%
D17*
%TO.P,Y1,1,1*%
%TO.N,Net-(C9-Pad1)*%
X134450000Y-107100000D03*
%TO.P,Y1,2,2*%
%TO.N,GND*%
X134450000Y-109300000D03*
%TO.P,Y1,3,3*%
%TO.N,Net-(C11-Pad1)*%
X136150000Y-109300000D03*
%TO.P,Y1,4,4*%
%TO.N,GND*%
X136150000Y-107100000D03*
%TD*%
D16*
%TO.P,C3,1*%
%TO.N,+3V3*%
X134070000Y-110800000D03*
%TO.P,C3,2*%
%TO.N,GND*%
X135030000Y-110800000D03*
%TD*%
%TO.P,C9,1*%
%TO.N,Net-(C9-Pad1)*%
X135920000Y-105600000D03*
%TO.P,C9,2*%
%TO.N,GND*%
X136880000Y-105600000D03*
%TD*%
%TO.P,C11,1*%
%TO.N,Net-(C11-Pad1)*%
X135920000Y-110800000D03*
%TO.P,C11,2*%
%TO.N,GND*%
X136880000Y-110800000D03*
%TD*%
D18*
%TO.P,J2,A1,GND*%
%TO.N,GND*%
X138955000Y-111500000D03*
%TO.P,J2,A4,VBUS*%
%TO.N,+5V*%
X138955000Y-110700000D03*
D19*
%TO.P,J2,A5,CC1*%
%TO.N,Net-(J2-PadA5)*%
X138955000Y-109500000D03*
%TO.P,J2,A6,D+*%
%TO.N,/USB_D+*%
X138955000Y-108500000D03*
%TO.P,J2,A7,D-*%
%TO.N,/USB_D-*%
X138955000Y-108000000D03*
%TO.P,J2,A8,SBU1*%
%TO.N,unconnected-(J2-PadA8)*%
X138955000Y-107000000D03*
D18*
%TO.P,J2,A9,VBUS*%
%TO.N,+5V*%
X138955000Y-105800000D03*
%TO.P,J2,A12,GND*%
%TO.N,GND*%
X138955000Y-105000000D03*
%TO.P,J2,B1,GND*%
X138955000Y-105000000D03*
%TO.P,J2,B4,VBUS*%
%TO.N,+5V*%
X138955000Y-105800000D03*
D19*
%TO.P,J2,B5,CC2*%
%TO.N,Net-(J2-PadB5)*%
X138955000Y-106500000D03*
%TO.P,J2,B6,D+*%
%TO.N,/USB_D+*%
X138955000Y-107500000D03*
%TO.P,J2,B7,D-*%
%TO.N,/USB_D-*%
X138955000Y-109000000D03*
%TO.P,J2,B8,SBU2*%
%TO.N,unconnected-(J2-PadB8)*%
X138955000Y-110000000D03*
D18*
%TO.P,J2,B9,VBUS*%
%TO.N,+5V*%
X138955000Y-110700000D03*
%TO.P,J2,B12,GND*%
%TO.N,GND*%
X138955000Y-111500000D03*
D20*
%TO.P,J2,S1,SHIELD*%
X144050000Y-112570000D03*
D21*
X139870000Y-103930000D03*
D20*
X144050000Y-103930000D03*
D21*
X139870000Y-112570000D03*
%TD*%
D22*
%TO.P,L1,1,1*%
%TO.N,/LNA*%
X131365000Y-102950000D03*
%TO.P,L1,2,2*%
%TO.N,Net-(AE1-Pad1)*%
X132335000Y-102950000D03*
%TD*%
D23*
%TO.P,U2,1,LNA_IN/RF*%
%TO.N,/LNA*%
X131200000Y-105262500D03*
%TO.P,U2,2,VDD3P3*%
%TO.N,+3V3*%
X130800000Y-105262500D03*
%TO.P,U2,3,VDD3P3*%
X130400000Y-105262500D03*
%TO.P,U2,4,CHIP_PU/RESET*%
%TO.N,/RST*%
X130000000Y-105262500D03*
%TO.P,U2,5,GPIO0/BOOT*%
%TO.N,/IO0*%
X129600000Y-105262500D03*
%TO.P,U2,6,GPIO1/ADC1_CH0*%
%TO.N,unconnected-(U2-Pad6)*%
X129200000Y-105262500D03*
%TO.P,U2,7,GPIO2/ADC1_CH1*%
%TO.N,unconnected-(U2-Pad7)*%
X128800000Y-105262500D03*
%TO.P,U2,8,GPIO3/ADC1_CH2*%
%TO.N,unconnected-(U2-Pad8)*%
X128400000Y-105262500D03*
%TO.P,U2,9,GPIO4/ADC1_CH3*%
%TO.N,unconnected-(U2-Pad9)*%
X128000000Y-105262500D03*
%TO.P,U2,10,GPIO5/ADC1_CH4*%
%TO.N,unconnected-(U2-Pad10)*%
X127600000Y-105262500D03*
%TO.P,U2,11,GPIO6/ADC1_CH5*%
%TO.N,unconnected-(U2-Pad11)*%
X127200000Y-105262500D03*
%TO.P,U2,12,GPIO7/ADC1_CH6*%
%TO.N,unconnected-(U2-Pad12)*%
X126800000Y-105262500D03*
%TO.P,U2,13,GPIO8/ADC1_CH7*%
%TO.N,unconnected-(U2-Pad13)*%
X126400000Y-105262500D03*
%TO.P,U2,14,GPIO9/ADC1_CH8*%
%TO.N,unconnected-(U2-Pad14)*%
X126000000Y-105262500D03*
D24*
%TO.P,U2,15,GPIO10/ADC1_CH9*%
%TO.N,/I2S_MCK*%
X125162500Y-106100000D03*
%TO.P,U2,16,GPIO11/ADC2_CH0*%
%TO.N,/I2S_DACDAT*%
X125162500Y-106500000D03*
%TO.P,U2,17,GPIO12/ADC2_CH1*%
%TO.N,/I2S_ADCDAT*%
X125162500Y-106900000D03*
%TO.P,U2,18,GPIO13/ADC2_CH2*%
%TO.N,/I2S_BCLK*%
X125162500Y-107300000D03*
%TO.P,U2,19,GPIO14/ADC2_CH3*%
%TO.N,/I2S_LRCK*%
X125162500Y-107700000D03*
%TO.P,U2,20,VDD3P3_RTC*%
%TO.N,+3V3*%
X125162500Y-108100000D03*
%TO.P,U2,21,GPIO15/ADC2_CH4/XTAL_32K_P*%
%TO.N,unconnected-(U2-Pad21)*%
X125162500Y-108500000D03*
%TO.P,U2,22,GPIO16/ADC2_CH5/XTAL_32K_N*%
%TO.N,/I2C_SCL*%
X125162500Y-108900000D03*
%TO.P,U2,23,GPIO17/ADC2_CH6/DAC_2*%
%TO.N,/I2C_SDA*%
X125162500Y-109300000D03*
%TO.P,U2,24,GPIO18/ADC2_CH7/DAC_1*%
%TO.N,/LCD_DC*%
X125162500Y-109700000D03*
%TO.P,U2,25,GPIO19/USB_D-/ADC2_CH8*%
%TO.N,/USB_D-*%
X125162500Y-110100000D03*
%TO.P,U2,26,GPIO20/USB_D+/ADC2_CH9*%
%TO.N,/USB_D+*%
X125162500Y-110500000D03*
%TO.P,U2,27,GPIO21*%
%TO.N,/LCD_SCK*%
X125162500Y-110900000D03*
%TO.P,U2,28,SPI_CS1/GPIO26*%
%TO.N,unconnected-(U2-Pad28)*%
X125162500Y-111300000D03*
D23*
%TO.P,U2,29,VDD_SPI*%
%TO.N,Net-(C10-Pad1)*%
X126000000Y-112137500D03*
%TO.P,U2,30,SPIHD/GPIO27*%
%TO.N,unconnected-(U2-Pad30)*%
X126400000Y-112137500D03*
%TO.P,U2,31,SPIWP/GPIO28*%
%TO.N,unconnected-(U2-Pad31)*%
X126800000Y-112137500D03*
%TO.P,U2,32,SPICS0/GPIO29*%
%TO.N,unconnected-(U2-Pad32)*%
X127200000Y-112137500D03*
%TO.P,U2,33,SPICLK/GPIO30*%
%TO.N,unconnected-(U2-Pad33)*%
X127600000Y-112137500D03*
%TO.P,U2,34,SPIQ/GPIO31*%
%TO.N,unconnected-(U2-Pad34)*%
X128000000Y-112137500D03*
%TO.P,U2,35,SPID/GPIO32*%
%TO.N,unconnected-(U2-Pad35)*%
X128400000Y-112137500D03*
%TO.P,U2,36,SPICLK_N/GPIO48*%
%TO.N,/LCD_MOSI*%
X128800000Y-112137500D03*
%TO.P,U2,37,SPICLK_P/GPIO47*%
%TO.N,/LCD_CS*%
X129200000Y-112137500D03*
%TO.P,U2,38,GPIO33*%
%TO.N,unconnected-(U2-Pad38)*%
X129600000Y-112137500D03*
%TO.P,U2,39,GPIO34*%
%TO.N,unconnected-(U2-Pad39)*%
X130000000Y-112137500D03*
%TO.P,U2,40,GPIO35*%
%TO.N,unconnected-(U2-Pad40)*%
X130400000Y-112137500D03*
%TO.P,U2,41,GPIO36*%
%TO.N,unconnected-(U2-Pad41)*%
X130800000Y-112137500D03*
%TO.P,U2,42,GPIO37*%
%TO.N,unconnected-(U2-Pad42)*%
X131200000Y-112137500D03*
D24*
%TO.P,U2,43,GPIO38*%
%TO.N,/LCD_BL*%
X132037500Y-111300000D03*
%TO.P,U2,44,MTCK/JTAG/GPIO39*%
%TO.N,unconnected-(U2-Pad44)*%
X132037500Y-110900000D03*
%TO.P,U2,45,MTDO/JTAG/GPIO40*%
%TO.N,unconnected-(U2-Pad45)*%
X132037500Y-110500000D03*
%TO.P,U2,46,VDD3P3_CPU*%
%TO.N,+3V3*%
X132037500Y-110100000D03*
%TO.P,U2,47,MTDI/JTAG/GPIO41*%
%TO.N,unconnected-(U2-Pad47)*%
X132037500Y-109700000D03*
%TO.P,U2,48,MTMS/JTAG/GPIO42*%
%TO.N,unconnected-(U2-Pad48)*%
X132037500Y-109300000D03*
%TO.P,U2,49,U0TXD/PROG/GPIO43*%
%TO.N,/TX0*%
X132037500Y-108900000D03*
%TO.P,U2,50,U0RXD/PROG/GPIO44*%
%TO.N,/RX0*%
X132037500Y-108500000D03*
%TO.P,U2,51,GPIO45*%
%TO.N,unconnected-(U2-Pad51)*%
X132037500Y-108100000D03*
%TO.P,U2,52,GPIO46*%
%TO.N,unconnected-(U2-Pad52)*%
X132037500Y-107700000D03*
%TO.P,U2,53,XTAL_N*%
%TO.N,Net-(C11-Pad1)*%
X132037500Y-107300000D03*
%TO.P,U2,54,XTAL_P*%
%TO.N,Net-(C9-Pad1)*%
X132037500Y-106900000D03*
%TO.P,U2,55,VDDA*%
%TO.N,+3V3*%
X132037500Y-106500000D03*
%TO.P,U2,56,VDDA*%
X132037500Y-106100000D03*
D25*
%TO.P,U2,57,GND*%
%TO.N,GND*%
X128600000Y-108700000D03*
%TD*%
D26*
%TO.P,C2,1*%
%TO.N,+3V3*%
X130162500Y-103150000D03*
%TO.P,C2,2*%
%TO.N,GND*%
X128612500Y-103150000D03*
%TD*%
D27*
%TO.P,J1,1,Pin_1*%
%TO.N,/LCD_BL*%
X130650000Y-118850000D03*
%TO.P,J1,2,Pin_2*%
%TO.N,/LCD_CS*%
X130150000Y-118850000D03*
%TO.P,J1,3,Pin_3*%
%TO.N,/LCD_MOSI*%
X129650000Y-118850000D03*
%TO.P,J1,4,Pin_4*%
%TO.N,/LCD_SCK*%
X129150000Y-118850000D03*
%TO.P,J1,5,Pin_5*%
%TO.N,/LCD_DC*%
X128650000Y-118850000D03*
%TO.P,J1,6,Pin_6*%
%TO.N,GND*%
X128150000Y-118850000D03*
%TO.P,J1,7,Pin_7*%
%TO.N,+3V3*%
X127650000Y-118850000D03*
%TO.P,J1,8,Pin_8*%
%TO.N,+5V*%
X127150000Y-118850000D03*
D28*
%TO.P,J1,MP,MountPin*%
%TO.N,GND*%
X132320000Y-117150000D03*
X125480000Y-117150000D03*
%TD*%
D29*
%TO.P,R1,1*%
%TO.N,+3V3*%
X126427500Y-102950000D03*
%TO.P,R1,2*%
%TO.N,/RST*%
X127447500Y-102950000D03*
%TD*%
D10*
%TO.P,C5,1*%
%TO.N,/RST*%
X127417500Y-103850000D03*
%TO.P,C5,2*%
%TO.N,GND*%
X126457500Y-103850000D03*
%TD*%
D30*
%TO.P,MK1,1,VDD*%
%TO.N,Net-(C17-Pad1)*%
X122387100Y-107307400D03*
%TO.P,MK1,2,GND*%
%TO.N,GND*%
X122387100Y-109207400D03*
%TO.P,MK1,3,GND*%
X121377100Y-109207400D03*
%TO.P,MK1,4,OUT*%
%TO.N,Net-(C12-Pad2)*%
X121377100Y-107307400D03*
%TD*%
D16*
%TO.P,C6,1*%
%TO.N,+3V3*%
X134070000Y-105600000D03*
%TO.P,C6,2*%
%TO.N,GND*%
X135030000Y-105600000D03*
%TD*%
D31*
%TO.N,GND*%
X135100000Y-110700000D03*
X128000000Y-102150000D03*
X137000000Y-102150000D03*
X129500000Y-110500000D03*
X133400000Y-111700000D03*
X124450000Y-116200000D03*
X140000000Y-102150000D03*
X138000000Y-104000000D03*
X124000000Y-104000000D03*
X135000000Y-103500000D03*
X130000000Y-102150000D03*
X141000000Y-102150000D03*
X129500000Y-109500000D03*
X133000000Y-102150000D03*
X135200000Y-105500000D03*
X137000000Y-103000000D03*
X134000000Y-102150000D03*
X131000000Y-102150000D03*
X139000000Y-103000000D03*
X137000000Y-104000000D03*
X126000000Y-102150000D03*
X124000000Y-102150000D03*
X134000000Y-103500000D03*
X139000000Y-102150000D03*
X138000000Y-103000000D03*
X135500000Y-107800000D03*
X136600000Y-106600000D03*
X127000000Y-102150000D03*
X136800000Y-110650000D03*
X139412500Y-118912500D03*
X128337500Y-103400000D03*
X125650000Y-113300000D03*
X128500000Y-109500000D03*
X134200000Y-118450000D03*
X136600000Y-106000000D03*
X122000000Y-110350000D03*
X136000000Y-104000000D03*
X120700000Y-106250000D03*
X141000000Y-103000000D03*
X126300000Y-103700000D03*
X142000000Y-102150000D03*
X132800000Y-116200000D03*
X129000000Y-110000000D03*
X136000000Y-103000000D03*
X131550000Y-118350000D03*
X120750000Y-110350000D03*
X129000000Y-102150000D03*
X132000000Y-102150000D03*
X142000000Y-103000000D03*
X125000000Y-102150000D03*
X124000000Y-103000000D03*
X128500000Y-110500000D03*
X140000000Y-103000000D03*
X133400000Y-104100000D03*
X128937500Y-102850000D03*
%TO.N,+5V*%
X132300000Y-119400000D03*
X127150000Y-117450000D03*
D32*
X139450000Y-117050000D03*
D31*
%TO.N,+3V3*%
X131914881Y-104512921D03*
X137200000Y-108300000D03*
X123800000Y-106450000D03*
D32*
X141400000Y-116700000D03*
D31*
X136974183Y-111898203D03*
X127420000Y-116620000D03*
X126600000Y-102900000D03*
X138350000Y-113750000D03*
X130356250Y-104093750D03*
%TO.N,/RST*%
X129368750Y-103931250D03*
%TO.N,Net-(C12-Pad2)*%
X122350000Y-108480000D03*
%TO.N,Net-(C17-Pad1)*%
X122380000Y-106620000D03*
%TO.N,Net-(J2-PadA5)*%
X140350000Y-109400000D03*
%TO.N,/USB_D+*%
X128114309Y-115235691D03*
X132050000Y-114650000D03*
%TO.N,/USB_D-*%
X132350000Y-115200000D03*
X128500000Y-115750000D03*
%TO.N,Net-(J2-PadB5)*%
X140300000Y-107350000D03*
D33*
%TO.N,Net-(U3-Pad25)*%
X133300000Y-112650000D03*
%TO.N,Net-(U3-Pad23)*%
X135000000Y-112100000D03*
D31*
%TO.N,/TX0*%
X133297279Y-109575500D03*
%TO.N,/RX0*%
X133278619Y-108321381D03*
%TO.N,/IO0*%
X125400000Y-103250000D03*
D34*
%TO.N,/I2S_DACDAT*%
X124350000Y-106200000D03*
%TO.N,/I2S_MCK*%
X124300000Y-105650000D03*
%TO.N,/I2C_SDA*%
X125500000Y-104600000D03*
D31*
%TO.N,/I2C_SCL*%
X133200000Y-105650000D03*
X132200000Y-105550000D03*
D34*
X125150000Y-105050000D03*
%TO.N,/I2S_LRCK*%
X124100000Y-107900000D03*
%TO.N,/I2S_BCLK*%
X124100000Y-107300000D03*
%TO.N,/I2S_ADCDAT*%
X124350000Y-106750000D03*
%TD*%
D35*
%TO.N,Net-(AE1-Pad1)*%
X135550000Y-101825000D02*
X135550000Y-102100000D01*
X134700000Y-102950000D02*
X132335000Y-102950000D01*
X134700000Y-102950000D02*
G75*
G03*
X135550000Y-102100000I0J850000D01*
G01*
%TO.N,GND*%
X126100000Y-119700000D02*
X125480000Y-119080000D01*
X137450000Y-102150000D02*
X137625000Y-101975000D01*
X125420000Y-111880000D02*
X128600000Y-108700000D01*
D36*
X137925000Y-102450000D02*
X137625000Y-102450000D01*
X137325000Y-102450000D02*
X137625000Y-102450000D01*
X138375000Y-102000000D02*
X137925000Y-102450000D01*
X136875000Y-102000000D02*
X137325000Y-102450000D01*
D35*
X128150000Y-119650000D02*
X128100000Y-119700000D01*
X125420000Y-113050000D02*
X125420000Y-111880000D01*
D37*
X137625000Y-101825000D02*
X137625000Y-102450000D01*
D35*
X125480000Y-119080000D02*
X125480000Y-117150000D01*
X128100000Y-119700000D02*
X126100000Y-119700000D01*
X128150000Y-118850000D02*
X128150000Y-119650000D01*
D36*
X136875000Y-102150000D02*
X137450000Y-102150000D01*
X138370000Y-101980000D02*
X136920000Y-101980000D01*
D35*
X137800000Y-102150000D02*
X137625000Y-101975000D01*
D36*
X138375000Y-102150000D02*
X137800000Y-102150000D01*
D38*
%TO.N,+5V*%
X141700000Y-112950000D02*
X141700000Y-110221438D01*
X135750000Y-118900000D02*
X135250000Y-119400000D01*
X141700000Y-110221438D02*
X141050000Y-109571438D01*
X141050000Y-107070978D02*
X141050000Y-109571438D01*
D39*
X138955000Y-105800000D02*
X139779022Y-105800000D01*
D38*
X140000000Y-114650000D02*
X141700000Y-112950000D01*
X135250000Y-119400000D02*
X132300000Y-119400000D01*
X137600000Y-118900000D02*
X139450000Y-117050000D01*
X139779022Y-105800000D02*
X141050000Y-107070978D01*
X141050000Y-109571438D02*
X139921438Y-110700000D01*
X140000000Y-116500000D02*
X140000000Y-114650000D01*
X139450000Y-117050000D02*
X140000000Y-116500000D01*
D39*
X127150000Y-118850000D02*
X127150000Y-117450000D01*
X139921438Y-110700000D02*
X138955000Y-110700000D01*
D38*
X135750000Y-118900000D02*
X137600000Y-118900000D01*
D35*
%TO.N,+3V3*%
X130400000Y-103387500D02*
X130162500Y-103150000D01*
D39*
X127650000Y-118000978D02*
X127900000Y-117750978D01*
X127900000Y-117750978D02*
X127900000Y-117100000D01*
D35*
X130287500Y-104025000D02*
X130287500Y-103650000D01*
X133370000Y-110100000D02*
X132037500Y-110100000D01*
D38*
X137100000Y-116600000D02*
X135750000Y-116600000D01*
D35*
X133050000Y-106500000D02*
X132037500Y-106500000D01*
X130400000Y-105262500D02*
X130400000Y-104137500D01*
D38*
X137217641Y-104900000D02*
X137600000Y-105282359D01*
D35*
X130356250Y-104093750D02*
X130287500Y-104025000D01*
X136485500Y-111409520D02*
X134679520Y-111409520D01*
X124600000Y-108100000D02*
X124300000Y-108400000D01*
X130400000Y-104137500D02*
X130400000Y-103387500D01*
X133170000Y-106500000D02*
X134070000Y-105600000D01*
X130600000Y-104337500D02*
X130356250Y-104093750D01*
D39*
X127900000Y-117100000D02*
X127420000Y-116620000D01*
D35*
X125162500Y-108100000D02*
X124600000Y-108100000D01*
X123629040Y-106620960D02*
X123800000Y-106450000D01*
D38*
X132301960Y-104900000D02*
X134100000Y-104900000D01*
X137600000Y-107143070D02*
X137200000Y-107543070D01*
D35*
X130162500Y-103150000D02*
X130162500Y-104125000D01*
D38*
X137200000Y-107543070D02*
X137200000Y-108300000D01*
D35*
X130600000Y-104337500D02*
X130400000Y-104137500D01*
X134679520Y-111409520D02*
X134070000Y-110800000D01*
D36*
X134070000Y-105600000D02*
X134070000Y-104930000D01*
D35*
X130800000Y-104762500D02*
X130800000Y-104537500D01*
D38*
X138350000Y-113750000D02*
X138350000Y-115350000D01*
D35*
X130800000Y-105262500D02*
X130800000Y-104762500D01*
D38*
X138350000Y-115350000D02*
X137100000Y-116600000D01*
D35*
X130800000Y-104537500D02*
X130600000Y-104337500D01*
X133370000Y-110100000D02*
X134070000Y-110800000D01*
X130162500Y-104125000D02*
X130800000Y-104762500D01*
X124300000Y-108400000D02*
X123815006Y-108400000D01*
X136974183Y-111898203D02*
X136485500Y-111409520D01*
D39*
X127650000Y-118850000D02*
X127650000Y-118000978D01*
D38*
X131914881Y-104512921D02*
X132301960Y-104900000D01*
D35*
X123815006Y-108400000D02*
X123629040Y-108214034D01*
X123629040Y-108214034D02*
X123629040Y-106620960D01*
X132650000Y-106100000D02*
X133050000Y-106500000D01*
D38*
X134100000Y-104900000D02*
X137217641Y-104900000D01*
D35*
X133050000Y-106500000D02*
X133170000Y-106500000D01*
D38*
X137600000Y-105282359D02*
X137600000Y-107143070D01*
D35*
X132037500Y-106100000D02*
X132650000Y-106100000D01*
D36*
X134070000Y-104930000D02*
X134100000Y-104900000D01*
D35*
%TO.N,/RST*%
X127447500Y-102950000D02*
X127447500Y-103920000D01*
X130000000Y-105262500D02*
X130000000Y-104562500D01*
X129368750Y-103931250D02*
X129337500Y-103900000D01*
X127462980Y-103904520D02*
X127417500Y-103950000D01*
X129050999Y-103900000D02*
X129046479Y-103904520D01*
X129337500Y-103900000D02*
X129050999Y-103900000D01*
X129046479Y-103904520D02*
X127462980Y-103904520D01*
X127447500Y-103920000D02*
X127417500Y-103950000D01*
X130000000Y-104562500D02*
X129368750Y-103931250D01*
%TO.N,/LNA*%
X131370000Y-103850000D02*
X131370000Y-102955000D01*
X131370000Y-102955000D02*
X131365000Y-102950000D01*
X131200000Y-105262500D02*
X131200000Y-104122500D01*
X131200000Y-104122500D02*
X131337500Y-103985000D01*
%TO.N,Net-(C9-Pad1)*%
X135920000Y-105600000D02*
X135920000Y-105613290D01*
X134500000Y-107033290D02*
X134500000Y-107100000D01*
X132037500Y-106900000D02*
X134300000Y-106900000D01*
X135920000Y-105613290D02*
X134500000Y-107033290D01*
X134300000Y-106900000D02*
X134500000Y-107100000D01*
%TO.N,Net-(C10-Pad1)*%
X126000000Y-112670000D02*
X126380000Y-113050000D01*
X126000000Y-112137500D02*
X126000000Y-112670000D01*
%TO.N,Net-(C11-Pad1)*%
X136200000Y-109300000D02*
X136200000Y-110520000D01*
X136200000Y-110520000D02*
X135920000Y-110800000D01*
X132037500Y-107300000D02*
X132900000Y-107300000D01*
X135100000Y-108200000D02*
X136200000Y-109300000D01*
X132900000Y-107300000D02*
X133800000Y-108200000D01*
X133800000Y-108200000D02*
X135100000Y-108200000D01*
%TO.N,Net-(C12-Pad2)*%
X121377100Y-107507100D02*
X122350000Y-108480000D01*
X121377100Y-107307400D02*
X121377100Y-107507100D01*
%TO.N,Net-(C17-Pad1)*%
X122380000Y-106300000D02*
X122380000Y-106620000D01*
X122380000Y-106620000D02*
X122380000Y-107300300D01*
X122387100Y-107307400D02*
G75*
G02*
X122380000Y-107300300I0J7100D01*
G01*
%TO.N,/LCD_MOSI*%
X129650000Y-118850000D02*
X129650000Y-114262500D01*
X128800000Y-113412500D02*
X128800000Y-112137500D01*
X129650000Y-114262500D02*
X128800000Y-113412500D01*
%TO.N,/LCD_SCK*%
X124487500Y-110900000D02*
X125162500Y-110900000D01*
X124287500Y-112837500D02*
X124287500Y-111100000D01*
X129150000Y-115000000D02*
X128200000Y-114050000D01*
X128200000Y-114050000D02*
X125500000Y-114050000D01*
X124287500Y-111100000D02*
X124487500Y-110900000D01*
X129150000Y-118850000D02*
X129150000Y-115000000D01*
X125500000Y-114050000D02*
X124287500Y-112837500D01*
%TO.N,/LCD_CS*%
X130150000Y-114162500D02*
X130150000Y-118850000D01*
X129200000Y-113212500D02*
X129200000Y-112137500D01*
X129200000Y-113212500D02*
X130150000Y-114162500D01*
%TO.N,/LCD_DC*%
X123300000Y-113250000D02*
X125350000Y-115300000D01*
X125350000Y-115300000D02*
X127050000Y-115300000D01*
X128650000Y-116900000D02*
X128650000Y-118850000D01*
X127050000Y-115300000D02*
X128650000Y-116900000D01*
X125162500Y-109700000D02*
X123750000Y-109700000D01*
X123300000Y-110150000D02*
X123300000Y-113250000D01*
X123750000Y-109700000D02*
X123300000Y-110150000D01*
%TO.N,/LCD_BL*%
X132037500Y-111300000D02*
X132037500Y-112862500D01*
X130650000Y-114250000D02*
X130650000Y-118850000D01*
X132037500Y-112862500D02*
X130650000Y-114250000D01*
%TO.N,Net-(J2-PadA5)*%
X138955000Y-109500000D02*
X140250000Y-109500000D01*
X140250000Y-109500000D02*
X140350000Y-109400000D01*
D40*
%TO.N,/USB_D+*%
X137800000Y-107840978D02*
X138140978Y-107500000D01*
X138140978Y-107500000D02*
X138955000Y-107500000D01*
X125458688Y-114470960D02*
X123929040Y-112941312D01*
X137600000Y-112000000D02*
X137600000Y-108900000D01*
X138000000Y-108500000D02*
X137800000Y-108300000D01*
X127349578Y-114470960D02*
X125458688Y-114470960D01*
X132500000Y-114650000D02*
X134409520Y-112740480D01*
X138955000Y-108500000D02*
X138000000Y-108500000D01*
X128114309Y-115235691D02*
X127349578Y-114470960D01*
X137800000Y-108300000D02*
X137800000Y-107840978D01*
X136859520Y-112740480D02*
X137600000Y-112000000D01*
X137600000Y-108900000D02*
X138000000Y-108500000D01*
X123929040Y-112941312D02*
X123929040Y-110720960D01*
X134409520Y-112740480D02*
X136859520Y-112740480D01*
X123929040Y-110720960D02*
X124150000Y-110500000D01*
X124150000Y-110500000D02*
X125162500Y-110500000D01*
X132050000Y-114650000D02*
X132500000Y-114650000D01*
%TO.N,/USB_D-*%
X137000000Y-113050000D02*
X137950000Y-112100000D01*
X134650000Y-113050000D02*
X137000000Y-113050000D01*
X137950000Y-112100000D02*
X137940489Y-112090489D01*
X123850000Y-110100000D02*
X123619520Y-110330480D01*
X125162500Y-110100000D02*
X123850000Y-110100000D01*
X127230480Y-114980480D02*
X128000000Y-115750000D01*
X140200000Y-108700000D02*
X139900000Y-109000000D01*
X138200000Y-109000000D02*
X138955000Y-109000000D01*
X132350000Y-115200000D02*
X132500000Y-115200000D01*
X137940489Y-112090489D02*
X137940489Y-109259511D01*
X123619520Y-113069520D02*
X125530480Y-114980480D01*
X140200000Y-108200000D02*
X140200000Y-108700000D01*
X123619520Y-110330480D02*
X123619520Y-113069520D01*
X138955000Y-108000000D02*
X140000000Y-108000000D01*
X125530480Y-114980480D02*
X127230480Y-114980480D01*
X140000000Y-108000000D02*
X140200000Y-108200000D01*
X128000000Y-115750000D02*
X128500000Y-115750000D01*
X132500000Y-115200000D02*
X134650000Y-113050000D01*
X139900000Y-109000000D02*
X138955000Y-109000000D01*
X137940489Y-109259511D02*
X138200000Y-109000000D01*
D35*
%TO.N,Net-(J2-PadB5)*%
X139789022Y-106500000D02*
X140300000Y-107010978D01*
X140300000Y-107010978D02*
X140300000Y-107350000D01*
X138955000Y-106500000D02*
X139789022Y-106500000D01*
%TO.N,/TX0*%
X133297279Y-109575500D02*
X132621779Y-108900000D01*
X132621779Y-108900000D02*
X132037500Y-108900000D01*
%TO.N,/RX0*%
X133100000Y-108500000D02*
X132037500Y-108500000D01*
X133278619Y-108321381D02*
X133100000Y-108500000D01*
%TO.N,/IO0*%
X125400000Y-103700000D02*
X125400000Y-103250000D01*
X129387500Y-104500000D02*
X126200000Y-104500000D01*
X129600000Y-105262500D02*
X129600000Y-104712500D01*
X129600000Y-104712500D02*
X129387500Y-104500000D01*
X126200000Y-104500000D02*
X125400000Y-103700000D01*
%TO.N,/I2S_DACDAT*%
X124407421Y-106200000D02*
X124707421Y-106500000D01*
X124707421Y-106500000D02*
X125162500Y-106500000D01*
X124350000Y-106200000D02*
X124407421Y-106200000D01*
%TO.N,/I2S_MCK*%
X124712500Y-105650000D02*
X125162500Y-106100000D01*
X124300000Y-105650000D02*
X124712500Y-105650000D01*
%TO.N,/I2C_SDA*%
X122900000Y-105900000D02*
X124200000Y-104600000D01*
X123550000Y-109300000D02*
X122900000Y-108650000D01*
X122900000Y-108650000D02*
X122900000Y-105900000D01*
X125162500Y-109300000D02*
X123550000Y-109300000D01*
X124200000Y-104600000D02*
X125500000Y-104600000D01*
%TO.N,/I2C_SCL*%
X123750000Y-108900000D02*
X123229520Y-108379520D01*
X133100000Y-105550000D02*
X133200000Y-105650000D01*
X125125000Y-105075000D02*
X125150000Y-105050000D01*
X123229520Y-108379520D02*
X123229520Y-106036492D01*
X125162500Y-108900000D02*
X123750000Y-108900000D01*
X123229520Y-106036492D02*
X124191012Y-105075000D01*
X132200000Y-105550000D02*
X133100000Y-105550000D01*
X124191012Y-105075000D02*
X125125000Y-105075000D01*
%TO.N,/I2S_LRCK*%
X125162500Y-107700000D02*
X124300000Y-107700000D01*
X124300000Y-107700000D02*
X124100000Y-107900000D01*
%TO.N,/I2S_BCLK*%
X125162500Y-107300000D02*
X124100000Y-107300000D01*
%TO.N,/I2S_ADCDAT*%
X124500000Y-106900000D02*
X125162500Y-106900000D01*
X124350000Y-106750000D02*
X124500000Y-106900000D01*
%TD*%
%TA.AperFunction,Conductor*%
%TO.N,GND*%
G36*
X136991280Y-101868482D02*
G01*
X137018300Y-101915282D01*
X137019500Y-101929000D01*
X137019500Y-102033766D01*
X137018922Y-102042951D01*
X137015564Y-102051700D01*
X137018678Y-102078615D01*
X137018977Y-102081200D01*
X137019500Y-102090279D01*
X137019500Y-102096993D01*
X137020781Y-102102209D01*
X137022536Y-102111960D01*
X137025757Y-102139800D01*
X137031131Y-102147708D01*
X137031924Y-102149839D01*
X137032973Y-102151846D01*
X137035253Y-102161128D01*
X137041573Y-102168296D01*
X137041573Y-102168297D01*
X137053782Y-102182145D01*
X137059861Y-102189983D01*
X137075607Y-102213152D01*
X137084032Y-102217669D01*
X137085716Y-102219186D01*
X137087581Y-102220482D01*
X137093903Y-102227653D01*
X137102826Y-102231078D01*
X137102827Y-102231079D01*
X137120053Y-102237691D01*
X137129074Y-102241821D01*
X137147372Y-102251633D01*
X137147375Y-102251634D01*
X137153768Y-102255062D01*
X137157235Y-102255500D01*
X137159721Y-102255500D01*
X137162196Y-102255656D01*
X137162192Y-102255716D01*
X137167952Y-102256078D01*
X137176700Y-102259436D01*
X137203615Y-102256322D01*
X137206200Y-102256023D01*
X137215279Y-102255500D01*
X138058766Y-102255500D01*
X138067951Y-102256078D01*
X138076700Y-102259436D01*
X138103615Y-102256322D01*
X138106200Y-102256023D01*
X138115279Y-102255500D01*
X138121993Y-102255500D01*
X138127209Y-102254219D01*
X138136960Y-102252464D01*
X138144826Y-102251554D01*
X138155304Y-102250342D01*
X138155306Y-102250341D01*
X138164800Y-102249243D01*
X138172708Y-102243869D01*
X138174839Y-102243076D01*
X138176846Y-102242027D01*
X138186128Y-102239747D01*
X138207145Y-102221218D01*
X138214984Y-102215138D01*
X138228259Y-102206116D01*
X138238152Y-102199393D01*
X138242669Y-102190968D01*
X138244186Y-102189284D01*
X138245482Y-102187419D01*
X138252653Y-102181097D01*
X138257566Y-102168300D01*
X138262691Y-102154947D01*
X138266821Y-102145926D01*
X138276633Y-102127628D01*
X138276634Y-102127625D01*
X138280062Y-102121232D01*
X138280500Y-102117765D01*
X138280500Y-102115279D01*
X138280656Y-102112804D01*
X138280716Y-102112808D01*
X138281078Y-102107048D01*
X138284436Y-102098300D01*
X138281023Y-102068800D01*
X138280500Y-102059721D01*
X138280500Y-101929000D01*
X138298982Y-101878220D01*
X138345782Y-101851200D01*
X138359500Y-101850000D01*
X142989866Y-101850000D01*
X143040646Y-101868482D01*
X143067666Y-101915282D01*
X143068866Y-101928950D01*
X143069462Y-102935200D01*
X143069476Y-102958913D01*
X143068908Y-102967989D01*
X143065564Y-102976700D01*
X143068986Y-103006276D01*
X143069509Y-103015306D01*
X143069513Y-103022100D01*
X143070651Y-103026721D01*
X143070651Y-103026722D01*
X143070778Y-103027239D01*
X143072545Y-103037035D01*
X143075757Y-103064800D01*
X143081132Y-103072709D01*
X143081938Y-103074877D01*
X143083017Y-103076938D01*
X143085304Y-103086225D01*
X143103795Y-103107174D01*
X143109901Y-103115042D01*
X143115399Y-103123132D01*
X143125607Y-103138152D01*
X143134029Y-103142668D01*
X143135759Y-103144226D01*
X143137669Y-103145552D01*
X143143993Y-103152716D01*
X143169113Y-103162342D01*
X143170078Y-103162712D01*
X143179137Y-103166857D01*
X143197367Y-103176631D01*
X143197372Y-103176633D01*
X143203768Y-103180062D01*
X143207235Y-103180500D01*
X143209722Y-103180500D01*
X143212196Y-103180656D01*
X143212192Y-103180717D01*
X143218019Y-103181082D01*
X143226809Y-103184450D01*
X143256226Y-103181029D01*
X143265351Y-103180500D01*
X145240500Y-103180500D01*
X145291280Y-103198982D01*
X145318300Y-103245782D01*
X145319500Y-103259500D01*
X145319500Y-113240500D01*
X145301018Y-113291280D01*
X145254218Y-113318300D01*
X145240500Y-113319500D01*
X143291234Y-113319500D01*
X143282049Y-113318922D01*
X143273300Y-113315564D01*
X143246385Y-113318678D01*
X143243800Y-113318977D01*
X143234721Y-113319500D01*
X143228007Y-113319500D01*
X143222791Y-113320781D01*
X143213040Y-113322536D01*
X143205174Y-113323446D01*
X143194696Y-113324658D01*
X143194694Y-113324659D01*
X143185200Y-113325757D01*
X143177292Y-113331131D01*
X143175161Y-113331924D01*
X143173154Y-113332973D01*
X143163872Y-113335253D01*
X143156704Y-113341573D01*
X143156703Y-113341573D01*
X143142855Y-113353782D01*
X143135017Y-113359861D01*
X143111848Y-113375607D01*
X143107331Y-113384032D01*
X143105814Y-113385716D01*
X143104518Y-113387581D01*
X143097347Y-113393903D01*
X143093922Y-113402826D01*
X143093921Y-113402827D01*
X143087309Y-113420053D01*
X143083179Y-113429074D01*
X143073367Y-113447372D01*
X143073366Y-113447375D01*
X143069938Y-113453768D01*
X143069500Y-113457235D01*
X143069500Y-113459721D01*
X143069344Y-113462196D01*
X143069284Y-113462192D01*
X143068922Y-113467952D01*
X143065564Y-113476700D01*
X143067046Y-113489510D01*
X143068977Y-113506200D01*
X143069500Y-113515279D01*
X143069500Y-114440500D01*
X143051018Y-114491280D01*
X143004218Y-114518300D01*
X142990500Y-114519500D01*
X141129684Y-114519501D01*
X141032224Y-114519501D01*
X141028415Y-114520259D01*
X141028411Y-114520259D01*
X140998127Y-114526283D01*
X140979572Y-114529973D01*
X140919867Y-114569867D01*
X140879973Y-114629572D01*
X140878456Y-114637201D01*
X140878455Y-114637202D01*
X140874391Y-114657634D01*
X140869500Y-114682223D01*
X140869501Y-118517776D01*
X140879973Y-118570428D01*
X140919867Y-118630133D01*
X140979572Y-118670027D01*
X140987201Y-118671544D01*
X140987202Y-118671545D01*
X141028412Y-118679742D01*
X141032223Y-118680500D01*
X141129684Y-118680500D01*
X142990500Y-118680499D01*
X143041280Y-118698981D01*
X143068300Y-118745781D01*
X143069500Y-118759499D01*
X143069500Y-119470523D01*
X143067491Y-119488226D01*
X143064858Y-119499677D01*
X143066821Y-119508353D01*
X143066817Y-119510863D01*
X143065846Y-119523073D01*
X143055819Y-119586379D01*
X143048183Y-119609878D01*
X143014161Y-119676650D01*
X142999633Y-119696645D01*
X142946645Y-119749633D01*
X142926652Y-119764160D01*
X142859879Y-119798183D01*
X142836374Y-119805819D01*
X142772842Y-119815881D01*
X142760347Y-119816854D01*
X142758994Y-119816852D01*
X142750323Y-119814858D01*
X142741648Y-119816821D01*
X142741646Y-119816821D01*
X142738418Y-119817552D01*
X142720982Y-119819500D01*
X136995579Y-119819500D01*
X136944799Y-119801018D01*
X136917779Y-119754218D01*
X136921448Y-119720711D01*
X136920027Y-119720428D01*
X136929742Y-119671588D01*
X136929742Y-119671587D01*
X136930500Y-119667777D01*
X136930500Y-119334500D01*
X136948982Y-119283720D01*
X136995782Y-119256700D01*
X137009500Y-119255500D01*
X137553640Y-119255500D01*
X137570267Y-119257270D01*
X137576638Y-119258642D01*
X137576641Y-119258642D01*
X137583022Y-119260016D01*
X137616547Y-119256048D01*
X137625833Y-119255500D01*
X137629535Y-119255500D01*
X137648307Y-119252376D01*
X137651950Y-119251858D01*
X137700553Y-119246105D01*
X137706443Y-119243276D01*
X137706627Y-119243223D01*
X137707655Y-119242989D01*
X137709149Y-119242517D01*
X137710113Y-119242122D01*
X137710308Y-119242055D01*
X137716745Y-119240984D01*
X137759813Y-119217747D01*
X137763126Y-119216059D01*
X137802758Y-119197027D01*
X137802760Y-119197026D01*
X137807241Y-119194874D01*
X137811242Y-119191511D01*
X137812380Y-119190373D01*
X137815632Y-119187628D01*
X137820902Y-119184785D01*
X137825332Y-119179992D01*
X137825334Y-119179991D01*
X137855728Y-119147110D01*
X137857879Y-119144874D01*
X139447994Y-117554759D01*
X139496970Y-117531921D01*
X139503828Y-117531684D01*
X139504375Y-117531616D01*
X139510001Y-117531719D01*
X139642792Y-117495516D01*
X139760084Y-117423498D01*
X139814039Y-117363890D01*
X139848672Y-117325628D01*
X139848673Y-117325627D01*
X139852449Y-117321455D01*
X139912461Y-117197590D01*
X139929975Y-117093488D01*
X139952019Y-117050734D01*
X140218594Y-116784159D01*
X140231595Y-116773658D01*
X140242564Y-116766575D01*
X140263471Y-116740055D01*
X140269650Y-116733103D01*
X140272261Y-116730492D01*
X140283310Y-116715030D01*
X140285544Y-116712056D01*
X140311794Y-116678758D01*
X140315835Y-116673632D01*
X140317998Y-116667475D01*
X140318102Y-116667285D01*
X140318665Y-116666391D01*
X140319364Y-116665045D01*
X140319778Y-116664055D01*
X140319866Y-116663875D01*
X140323663Y-116658561D01*
X140337687Y-116611668D01*
X140338836Y-116608133D01*
X140339279Y-116606873D01*
X140355049Y-116561966D01*
X140355500Y-116556759D01*
X140355500Y-116555145D01*
X140355859Y-116550907D01*
X140357574Y-116545172D01*
X140355561Y-116493944D01*
X140355500Y-116490842D01*
X140355500Y-114829975D01*
X140373982Y-114779195D01*
X140378639Y-114774114D01*
X141918594Y-113234159D01*
X141931595Y-113223658D01*
X141942564Y-113216575D01*
X141963471Y-113190055D01*
X141969650Y-113183103D01*
X141972261Y-113180492D01*
X141983310Y-113165030D01*
X141985544Y-113162056D01*
X142011794Y-113128758D01*
X142015835Y-113123632D01*
X142017998Y-113117475D01*
X142018102Y-113117285D01*
X142018663Y-113116393D01*
X142019366Y-113115041D01*
X142019778Y-113114056D01*
X142019868Y-113113873D01*
X142023663Y-113108561D01*
X142025533Y-113102308D01*
X142025536Y-113102302D01*
X142037691Y-113061660D01*
X142038829Y-113058155D01*
X142055049Y-113011966D01*
X142055500Y-113006759D01*
X142055500Y-113005147D01*
X142055859Y-113000910D01*
X142057575Y-112995172D01*
X142057302Y-112988204D01*
X142055561Y-112943918D01*
X142055500Y-112940816D01*
X142055500Y-110267798D01*
X142057270Y-110251171D01*
X142058642Y-110244800D01*
X142058642Y-110244797D01*
X142060016Y-110238416D01*
X142056048Y-110204889D01*
X142055500Y-110195604D01*
X142055500Y-110191903D01*
X142052381Y-110173161D01*
X142051858Y-110169485D01*
X142046874Y-110127370D01*
X142046873Y-110127367D01*
X142046106Y-110120885D01*
X142043280Y-110115000D01*
X142043219Y-110114789D01*
X142042989Y-110113777D01*
X142042520Y-110112296D01*
X142042118Y-110111314D01*
X142042056Y-110111134D01*
X142040984Y-110104693D01*
X142017743Y-110061618D01*
X142016076Y-110058349D01*
X141994874Y-110014197D01*
X141991511Y-110010196D01*
X141990373Y-110009058D01*
X141987628Y-110005806D01*
X141984785Y-110000536D01*
X141979992Y-109996106D01*
X141979991Y-109996104D01*
X141947110Y-109965710D01*
X141944874Y-109963559D01*
X141428639Y-109447324D01*
X141405801Y-109398348D01*
X141405500Y-109391463D01*
X141405500Y-107117333D01*
X141407270Y-107100706D01*
X141408641Y-107094340D01*
X141408641Y-107094337D01*
X141410015Y-107087956D01*
X141406048Y-107054437D01*
X141405500Y-107045152D01*
X141405500Y-107041443D01*
X141402381Y-107022704D01*
X141401857Y-107019018D01*
X141396874Y-106976911D01*
X141396872Y-106976903D01*
X141396105Y-106970425D01*
X141393279Y-106964540D01*
X141393224Y-106964351D01*
X141392989Y-106963320D01*
X141392520Y-106961837D01*
X141392122Y-106960865D01*
X141392055Y-106960670D01*
X141390984Y-106954233D01*
X141367747Y-106911165D01*
X141366059Y-106907852D01*
X141347027Y-106868220D01*
X141347026Y-106868218D01*
X141344874Y-106863737D01*
X141341511Y-106859736D01*
X141340373Y-106858598D01*
X141337628Y-106855346D01*
X141334785Y-106850076D01*
X141329992Y-106845646D01*
X141329991Y-106845644D01*
X141297110Y-106815250D01*
X141294874Y-106813099D01*
X140470101Y-105988326D01*
X140447263Y-105939350D01*
X140461249Y-105887152D01*
X140505515Y-105856157D01*
X140514763Y-105854263D01*
X140537766Y-105850969D01*
X140537768Y-105850968D01*
X140543336Y-105850171D01*
X140548457Y-105847843D01*
X140548459Y-105847842D01*
X140670021Y-105792571D01*
X140670023Y-105792570D01*
X140675149Y-105790239D01*
X140679414Y-105786564D01*
X140679417Y-105786562D01*
X140780578Y-105699395D01*
X140784843Y-105695720D01*
X140863600Y-105574213D01*
X140905088Y-105435486D01*
X140905639Y-105345383D01*
X140905939Y-105296315D01*
X140905939Y-105296312D01*
X140905973Y-105290690D01*
X140866183Y-105151466D01*
X140788916Y-105029006D01*
X140680385Y-104933155D01*
X140675293Y-104930764D01*
X140675291Y-104930763D01*
X140554409Y-104874009D01*
X140554408Y-104874009D01*
X140549314Y-104871617D01*
X140439379Y-104854500D01*
X140363703Y-104854500D01*
X140360926Y-104854898D01*
X140360922Y-104854898D01*
X140262234Y-104869031D01*
X140262232Y-104869032D01*
X140256664Y-104869829D01*
X140251543Y-104872157D01*
X140251541Y-104872158D01*
X140129979Y-104927429D01*
X140129977Y-104927430D01*
X140124851Y-104929761D01*
X140120586Y-104933436D01*
X140120583Y-104933438D01*
X140064942Y-104981382D01*
X140015157Y-105024280D01*
X139936400Y-105145787D01*
X139894912Y-105284514D01*
X139894878Y-105290138D01*
X139894767Y-105290878D01*
X139868980Y-105338368D01*
X139818701Y-105358172D01*
X139772746Y-105344886D01*
X139750428Y-105329973D01*
X139742799Y-105328456D01*
X139742798Y-105328455D01*
X139701588Y-105320258D01*
X139701587Y-105320258D01*
X139697777Y-105319500D01*
X139693891Y-105319500D01*
X138955001Y-105319501D01*
X138212224Y-105319501D01*
X138208415Y-105320259D01*
X138208411Y-105320259D01*
X138178127Y-105326283D01*
X138159572Y-105329973D01*
X138099867Y-105369867D01*
X138095546Y-105376334D01*
X138091199Y-105380681D01*
X138042223Y-105403519D01*
X137990025Y-105389533D01*
X137959030Y-105345267D01*
X137958108Y-105308194D01*
X137960015Y-105299337D01*
X137956048Y-105265818D01*
X137955500Y-105256533D01*
X137955500Y-105252824D01*
X137952381Y-105234085D01*
X137951857Y-105230399D01*
X137946874Y-105188292D01*
X137946872Y-105188284D01*
X137946105Y-105181806D01*
X137943279Y-105175921D01*
X137943224Y-105175732D01*
X137942989Y-105174701D01*
X137942520Y-105173218D01*
X137942122Y-105172246D01*
X137942055Y-105172051D01*
X137940984Y-105165614D01*
X137917747Y-105122546D01*
X137916059Y-105119233D01*
X137897027Y-105079601D01*
X137897026Y-105079599D01*
X137894874Y-105075118D01*
X137891511Y-105071117D01*
X137890373Y-105069979D01*
X137887628Y-105066727D01*
X137884785Y-105061457D01*
X137879992Y-105057027D01*
X137879991Y-105057025D01*
X137847110Y-105026631D01*
X137844874Y-105024480D01*
X137501800Y-104681406D01*
X137491299Y-104668405D01*
X137484216Y-104657436D01*
X137457696Y-104636529D01*
X137450744Y-104630350D01*
X137448133Y-104627739D01*
X137432671Y-104616690D01*
X137429697Y-104614456D01*
X137396399Y-104588206D01*
X137391273Y-104584165D01*
X137385116Y-104582002D01*
X137384926Y-104581898D01*
X137384034Y-104581337D01*
X137382682Y-104580634D01*
X137381697Y-104580222D01*
X137381514Y-104580132D01*
X137376202Y-104576337D01*
X137369949Y-104574467D01*
X137369943Y-104574464D01*
X137329301Y-104562309D01*
X137325796Y-104561171D01*
X137279607Y-104544951D01*
X137274400Y-104544500D01*
X137272788Y-104544500D01*
X137268551Y-104544141D01*
X137262813Y-104542425D01*
X137256290Y-104542681D01*
X137256287Y-104542681D01*
X137211559Y-104544439D01*
X137208457Y-104544500D01*
X132481935Y-104544500D01*
X132431155Y-104526018D01*
X132426074Y-104521361D01*
X132324254Y-104419541D01*
X132305903Y-104389594D01*
X132305342Y-104386053D01*
X132255551Y-104288332D01*
X132249850Y-104277143D01*
X132249849Y-104277142D01*
X132247027Y-104271603D01*
X132156199Y-104180775D01*
X132041749Y-104122460D01*
X132035610Y-104121488D01*
X132035608Y-104121487D01*
X131921024Y-104103339D01*
X131914881Y-104102366D01*
X131909269Y-104103255D01*
X131858720Y-104084857D01*
X131831700Y-104038057D01*
X131830500Y-104024339D01*
X131830500Y-103642446D01*
X131827626Y-103620611D01*
X131825144Y-103601763D01*
X131824355Y-103595769D01*
X131776588Y-103493333D01*
X131746920Y-103463665D01*
X131724082Y-103414689D01*
X131738068Y-103362491D01*
X131746919Y-103351943D01*
X131785327Y-103313535D01*
X131786757Y-103310469D01*
X131829556Y-103280503D01*
X131883389Y-103285215D01*
X131913087Y-103310133D01*
X131914673Y-103313535D01*
X131996465Y-103395327D01*
X132002727Y-103398247D01*
X132002730Y-103398249D01*
X132095818Y-103441656D01*
X132095820Y-103441657D01*
X132101298Y-103444211D01*
X132123072Y-103447078D01*
X132146497Y-103450162D01*
X132146500Y-103450162D01*
X132149066Y-103450500D01*
X132520934Y-103450500D01*
X132523500Y-103450162D01*
X132523503Y-103450162D01*
X132546928Y-103447078D01*
X132568702Y-103444211D01*
X132574180Y-103441657D01*
X132574182Y-103441656D01*
X132667270Y-103398249D01*
X132667273Y-103398247D01*
X132673535Y-103395327D01*
X132737882Y-103330980D01*
X132786858Y-103308142D01*
X132838805Y-103322060D01*
X132843333Y-103326588D01*
X132945769Y-103374355D01*
X132960882Y-103376345D01*
X132989876Y-103380162D01*
X132989881Y-103380162D01*
X132992446Y-103380500D01*
X133407554Y-103380500D01*
X133410119Y-103380162D01*
X133410124Y-103380162D01*
X133439118Y-103376345D01*
X133454231Y-103374355D01*
X133518004Y-103344617D01*
X133550401Y-103329510D01*
X133556667Y-103326588D01*
X133629616Y-103253639D01*
X133678592Y-103230801D01*
X133685477Y-103230500D01*
X134668548Y-103230500D01*
X134682266Y-103231700D01*
X134693158Y-103233621D01*
X134693160Y-103233621D01*
X134700000Y-103234827D01*
X134700101Y-103234809D01*
X134750381Y-103230410D01*
X134893621Y-103217879D01*
X134893624Y-103217879D01*
X134897059Y-103217578D01*
X135088131Y-103166380D01*
X135192753Y-103117594D01*
X135264281Y-103084240D01*
X135264284Y-103084238D01*
X135267409Y-103082781D01*
X135337713Y-103033554D01*
X135426617Y-102971303D01*
X135426620Y-102971300D01*
X135429447Y-102969321D01*
X135569321Y-102829447D01*
X135575980Y-102819938D01*
X135680801Y-102670237D01*
X135680802Y-102670236D01*
X135682781Y-102667409D01*
X135684268Y-102664222D01*
X135743631Y-102536917D01*
X135766380Y-102488131D01*
X135816753Y-102300139D01*
X135847749Y-102255873D01*
X135859126Y-102249899D01*
X135864800Y-102249243D01*
X135872708Y-102243869D01*
X135874842Y-102243075D01*
X135876848Y-102242026D01*
X135886128Y-102239747D01*
X135893297Y-102233426D01*
X135893300Y-102233425D01*
X135906579Y-102221718D01*
X135914931Y-102215292D01*
X135928664Y-102206116D01*
X135928673Y-102206109D01*
X135930133Y-102205133D01*
X135930488Y-102204601D01*
X135938152Y-102199393D01*
X135942668Y-102190970D01*
X135944186Y-102189285D01*
X135945484Y-102187417D01*
X135952653Y-102181097D01*
X135957567Y-102168297D01*
X135958211Y-102166618D01*
X135965185Y-102153151D01*
X135965704Y-102151897D01*
X135970027Y-102145428D01*
X135971517Y-102137936D01*
X135974640Y-102131345D01*
X135976632Y-102127631D01*
X135976634Y-102127626D01*
X135980062Y-102121232D01*
X135980500Y-102117765D01*
X135980500Y-102115279D01*
X135980656Y-102112804D01*
X135980716Y-102112808D01*
X135981078Y-102107048D01*
X135984436Y-102098300D01*
X135981023Y-102068800D01*
X135980500Y-102059721D01*
X135980500Y-101929000D01*
X135998982Y-101878220D01*
X136045782Y-101851200D01*
X136059500Y-101850000D01*
X136940500Y-101850000D01*
X136991280Y-101868482D01*
G37*
%TD.AperFunction*%
%TA.AperFunction,Conductor*%
G36*
X141095313Y-110121200D02*
G01*
X141105861Y-110130052D01*
X141321361Y-110345552D01*
X141344199Y-110394528D01*
X141344500Y-110401413D01*
X141344500Y-112770025D01*
X141326018Y-112820805D01*
X141321361Y-112825886D01*
X139781406Y-114365841D01*
X139768405Y-114376342D01*
X139757436Y-114383425D01*
X139740992Y-114404284D01*
X139736529Y-114409945D01*
X139730350Y-114416897D01*
X139727739Y-114419508D01*
X139716691Y-114434968D01*
X139714457Y-114437942D01*
X139684165Y-114476368D01*
X139682002Y-114482525D01*
X139681898Y-114482715D01*
X139681337Y-114483607D01*
X139680634Y-114484959D01*
X139680222Y-114485944D01*
X139680132Y-114486127D01*
X139676337Y-114491439D01*
X139674467Y-114497692D01*
X139674464Y-114497698D01*
X139662309Y-114538340D01*
X139661171Y-114541845D01*
X139644951Y-114588034D01*
X139644500Y-114593241D01*
X139644500Y-114594853D01*
X139644141Y-114599090D01*
X139642425Y-114604828D01*
X139642681Y-114611351D01*
X139642681Y-114611354D01*
X139644439Y-114656082D01*
X139644500Y-114659184D01*
X139644500Y-116320025D01*
X139626018Y-116370805D01*
X139621361Y-116375886D01*
X139451269Y-116545978D01*
X139402293Y-116568816D01*
X139394926Y-116569116D01*
X139389743Y-116569084D01*
X139389740Y-116569084D01*
X139384118Y-116569050D01*
X139251780Y-116606873D01*
X139135376Y-116680318D01*
X139131648Y-116684540D01*
X139131646Y-116684541D01*
X139082618Y-116740055D01*
X139044265Y-116783482D01*
X139041874Y-116788574D01*
X139041873Y-116788576D01*
X138993545Y-116891511D01*
X138985770Y-116908071D01*
X138972539Y-116993048D01*
X138970667Y-117005071D01*
X138948469Y-117048778D01*
X137475886Y-118521361D01*
X137426910Y-118544199D01*
X137420025Y-118544500D01*
X137009499Y-118544500D01*
X136958719Y-118526018D01*
X136931699Y-118479218D01*
X136930499Y-118465500D01*
X136930499Y-118132224D01*
X136929564Y-118127520D01*
X136921545Y-118087205D01*
X136920027Y-118079572D01*
X136880133Y-118019867D01*
X136820428Y-117979973D01*
X136812799Y-117978456D01*
X136812798Y-117978455D01*
X136771588Y-117970258D01*
X136771587Y-117970258D01*
X136767777Y-117969500D01*
X136763891Y-117969500D01*
X135750001Y-117969501D01*
X134732224Y-117969501D01*
X134728415Y-117970259D01*
X134728411Y-117970259D01*
X134698127Y-117976283D01*
X134679572Y-117979973D01*
X134619867Y-118019867D01*
X134579973Y-118079572D01*
X134578456Y-118087201D01*
X134578455Y-118087202D01*
X134575038Y-118104381D01*
X134569500Y-118132223D01*
X134569501Y-118576899D01*
X134569501Y-118965500D01*
X134551019Y-119016280D01*
X134504219Y-119043300D01*
X134490501Y-119044500D01*
X132514450Y-119044500D01*
X132478585Y-119035890D01*
X132440098Y-119016280D01*
X132426868Y-119009539D01*
X132420729Y-119008567D01*
X132420727Y-119008566D01*
X132306143Y-118990418D01*
X132300000Y-118989445D01*
X132293857Y-118990418D01*
X132179273Y-119008566D01*
X132179271Y-119008567D01*
X132173132Y-119009539D01*
X132058682Y-119067854D01*
X131967854Y-119158682D01*
X131965032Y-119164221D01*
X131965031Y-119164222D01*
X131954554Y-119184785D01*
X131909539Y-119273132D01*
X131889445Y-119400000D01*
X131890418Y-119406143D01*
X131907165Y-119511878D01*
X131909539Y-119526868D01*
X131967854Y-119641318D01*
X132011175Y-119684639D01*
X132034013Y-119733615D01*
X132020027Y-119785813D01*
X131975761Y-119816808D01*
X131955314Y-119819500D01*
X123529477Y-119819500D01*
X123511773Y-119817491D01*
X123500323Y-119814858D01*
X123491647Y-119816821D01*
X123489137Y-119816817D01*
X123476927Y-119815846D01*
X123413621Y-119805819D01*
X123390122Y-119798183D01*
X123323349Y-119764160D01*
X123303355Y-119749633D01*
X123250367Y-119696645D01*
X123235839Y-119676650D01*
X123201817Y-119609878D01*
X123194180Y-119586372D01*
X123184626Y-119526049D01*
X123184175Y-119504813D01*
X123185141Y-119500646D01*
X123185142Y-119500000D01*
X123182478Y-119488321D01*
X123180500Y-119470752D01*
X123180500Y-113717909D01*
X123198982Y-113667129D01*
X123245782Y-113640109D01*
X123299000Y-113649493D01*
X123315361Y-113662048D01*
X125115931Y-115462618D01*
X125118932Y-115466095D01*
X125120909Y-115470138D01*
X125126257Y-115475099D01*
X125154957Y-115501722D01*
X125157092Y-115503779D01*
X125170105Y-115516792D01*
X125173107Y-115518852D01*
X125174477Y-115519990D01*
X125177710Y-115522829D01*
X125197518Y-115541203D01*
X125208886Y-115545738D01*
X125224295Y-115553966D01*
X125234389Y-115560891D01*
X125259540Y-115566860D01*
X125270569Y-115570347D01*
X125294573Y-115579924D01*
X125300447Y-115580500D01*
X125307774Y-115580500D01*
X125326016Y-115582635D01*
X125336061Y-115585019D01*
X125343291Y-115584035D01*
X125343292Y-115584035D01*
X125363959Y-115581222D01*
X125374613Y-115580500D01*
X126901091Y-115580500D01*
X126951871Y-115598982D01*
X126956952Y-115603639D01*
X127433605Y-116080292D01*
X127456443Y-116129268D01*
X127442457Y-116181466D01*
X127398191Y-116212461D01*
X127390103Y-116214180D01*
X127360086Y-116218935D01*
X127293132Y-116229539D01*
X127178682Y-116287854D01*
X127087854Y-116378682D01*
X127029539Y-116493132D01*
X127028567Y-116499271D01*
X127028566Y-116499273D01*
X127021169Y-116545978D01*
X127009445Y-116620000D01*
X127010418Y-116626143D01*
X127027359Y-116733103D01*
X127029539Y-116746868D01*
X127043186Y-116773652D01*
X127080615Y-116847110D01*
X127087854Y-116861318D01*
X127140490Y-116913954D01*
X127163328Y-116962930D01*
X127149342Y-117015128D01*
X127105076Y-117046123D01*
X127096997Y-117047840D01*
X127056501Y-117054254D01*
X127029273Y-117058566D01*
X127029271Y-117058567D01*
X127023132Y-117059539D01*
X126908682Y-117117854D01*
X126817854Y-117208682D01*
X126759539Y-117323132D01*
X126758567Y-117329271D01*
X126758566Y-117329273D01*
X126743176Y-117426444D01*
X126739445Y-117450000D01*
X126740418Y-117456143D01*
X126752383Y-117531684D01*
X126759539Y-117576868D01*
X126817854Y-117691318D01*
X126822252Y-117695716D01*
X126825904Y-117700742D01*
X126824572Y-117701710D01*
X126844199Y-117743801D01*
X126844500Y-117750686D01*
X126844500Y-118183867D01*
X126835056Y-118214996D01*
X126837273Y-118215914D01*
X126834295Y-118223104D01*
X126829973Y-118229572D01*
X126828456Y-118237201D01*
X126828455Y-118237202D01*
X126820258Y-118278411D01*
X126819500Y-118282223D01*
X126819501Y-119417776D01*
X126829973Y-119470428D01*
X126869867Y-119530133D01*
X126929572Y-119570027D01*
X126937201Y-119571544D01*
X126937202Y-119571545D01*
X126978407Y-119579741D01*
X126982223Y-119580500D01*
X127150000Y-119580500D01*
X127317776Y-119580499D01*
X127321585Y-119579741D01*
X127321589Y-119579741D01*
X127351873Y-119573717D01*
X127370428Y-119570027D01*
X127372668Y-119568530D01*
X127423754Y-119566299D01*
X127424279Y-119566490D01*
X127429572Y-119570027D01*
X127482223Y-119580500D01*
X127650000Y-119580500D01*
X127817776Y-119580499D01*
X127821585Y-119579741D01*
X127821589Y-119579741D01*
X127851873Y-119573717D01*
X127870428Y-119570027D01*
X127930133Y-119530133D01*
X127970027Y-119470428D01*
X127971546Y-119462795D01*
X127979742Y-119421588D01*
X127979742Y-119421587D01*
X127980500Y-119417777D01*
X127980499Y-118282224D01*
X127970027Y-118229572D01*
X127965703Y-118223101D01*
X127962726Y-118215913D01*
X127964944Y-118214994D01*
X127955500Y-118183867D01*
X127955500Y-118160243D01*
X127973982Y-118109463D01*
X127978639Y-118104381D01*
X128076907Y-118006114D01*
X128080977Y-118002601D01*
X128085302Y-118000487D01*
X128119798Y-117963300D01*
X128121855Y-117961166D01*
X128136113Y-117946908D01*
X128138172Y-117943907D01*
X128140099Y-117941588D01*
X128142939Y-117938354D01*
X128157739Y-117922399D01*
X128162701Y-117917050D01*
X128167930Y-117903943D01*
X128176160Y-117888530D01*
X128184142Y-117876893D01*
X128190759Y-117849009D01*
X128194248Y-117837978D01*
X128202805Y-117816530D01*
X128202807Y-117816523D01*
X128204873Y-117811344D01*
X128205500Y-117804949D01*
X128205500Y-117796137D01*
X128207635Y-117777895D01*
X128210420Y-117766161D01*
X128206221Y-117735305D01*
X128205500Y-117724653D01*
X128205500Y-117155321D01*
X128205894Y-117149959D01*
X128207458Y-117145402D01*
X128205556Y-117094732D01*
X128205500Y-117091769D01*
X128205500Y-117071586D01*
X128204833Y-117068007D01*
X128204557Y-117065012D01*
X128204279Y-117060716D01*
X128203831Y-117048778D01*
X128203650Y-117043967D01*
X128220213Y-116992530D01*
X128265966Y-116963773D01*
X128319499Y-116971153D01*
X128338455Y-116985142D01*
X128346361Y-116993048D01*
X128369199Y-117042024D01*
X128369500Y-117048909D01*
X128369500Y-118146452D01*
X128356186Y-118190341D01*
X128329973Y-118229572D01*
X128328456Y-118237201D01*
X128328455Y-118237202D01*
X128320258Y-118278411D01*
X128319500Y-118282223D01*
X128319501Y-119417776D01*
X128329973Y-119470428D01*
X128369867Y-119530133D01*
X128429572Y-119570027D01*
X128437201Y-119571544D01*
X128437202Y-119571545D01*
X128478407Y-119579741D01*
X128482223Y-119580500D01*
X128650000Y-119580500D01*
X128817776Y-119580499D01*
X128821585Y-119579741D01*
X128821589Y-119579741D01*
X128851873Y-119573717D01*
X128870428Y-119570027D01*
X128872668Y-119568530D01*
X128923754Y-119566299D01*
X128924279Y-119566490D01*
X128929572Y-119570027D01*
X128982223Y-119580500D01*
X129150000Y-119580500D01*
X129317776Y-119580499D01*
X129321585Y-119579741D01*
X129321589Y-119579741D01*
X129351873Y-119573717D01*
X129370428Y-119570027D01*
X129372668Y-119568530D01*
X129423754Y-119566299D01*
X129424279Y-119566490D01*
X129429572Y-119570027D01*
X129482223Y-119580500D01*
X129650000Y-119580500D01*
X129817776Y-119580499D01*
X129821585Y-119579741D01*
X129821589Y-119579741D01*
X129851873Y-119573717D01*
X129870428Y-119570027D01*
X129872668Y-119568530D01*
X129923754Y-119566299D01*
X129924279Y-119566490D01*
X129929572Y-119570027D01*
X129982223Y-119580500D01*
X130150000Y-119580500D01*
X130317776Y-119580499D01*
X130321585Y-119579741D01*
X130321589Y-119579741D01*
X130351873Y-119573717D01*
X130370428Y-119570027D01*
X130372668Y-119568530D01*
X130423754Y-119566299D01*
X130424279Y-119566490D01*
X130429572Y-119570027D01*
X130482223Y-119580500D01*
X130650000Y-119580500D01*
X130817776Y-119580499D01*
X130821585Y-119579741D01*
X130821589Y-119579741D01*
X130851873Y-119573717D01*
X130870428Y-119570027D01*
X130930133Y-119530133D01*
X130970027Y-119470428D01*
X130971546Y-119462795D01*
X130979742Y-119421588D01*
X130979742Y-119421587D01*
X130980500Y-119417777D01*
X130980499Y-118282224D01*
X130970027Y-118229572D01*
X130943814Y-118190341D01*
X130930500Y-118146452D01*
X130930500Y-115832223D01*
X134569500Y-115832223D01*
X134569501Y-117367776D01*
X134579973Y-117420428D01*
X134619867Y-117480133D01*
X134679572Y-117520027D01*
X134687201Y-117521544D01*
X134687202Y-117521545D01*
X134728407Y-117529741D01*
X134732223Y-117530500D01*
X135750000Y-117530500D01*
X136767776Y-117530499D01*
X136771585Y-117529741D01*
X136771589Y-117529741D01*
X136801873Y-117523717D01*
X136820428Y-117520027D01*
X136880133Y-117480133D01*
X136920027Y-117420428D01*
X136921546Y-117412795D01*
X136929742Y-117371588D01*
X136929742Y-117371587D01*
X136930500Y-117367777D01*
X136930500Y-117034500D01*
X136948982Y-116983720D01*
X136995782Y-116956700D01*
X137009500Y-116955500D01*
X137053640Y-116955500D01*
X137070267Y-116957270D01*
X137076638Y-116958642D01*
X137076641Y-116958642D01*
X137083022Y-116960016D01*
X137116547Y-116956048D01*
X137125833Y-116955500D01*
X137129535Y-116955500D01*
X137148307Y-116952376D01*
X137151950Y-116951858D01*
X137200553Y-116946105D01*
X137206443Y-116943276D01*
X137206627Y-116943223D01*
X137207655Y-116942989D01*
X137209149Y-116942517D01*
X137210113Y-116942122D01*
X137210308Y-116942055D01*
X137216745Y-116940984D01*
X137259813Y-116917747D01*
X137263126Y-116916059D01*
X137302758Y-116897027D01*
X137302760Y-116897026D01*
X137307241Y-116894874D01*
X137311242Y-116891511D01*
X137312380Y-116890373D01*
X137315632Y-116887628D01*
X137320902Y-116884785D01*
X137325332Y-116879992D01*
X137325334Y-116879991D01*
X137355728Y-116847110D01*
X137357879Y-116844874D01*
X138568594Y-115634159D01*
X138581595Y-115623658D01*
X138592564Y-115616575D01*
X138613471Y-115590055D01*
X138619650Y-115583103D01*
X138622261Y-115580492D01*
X138633310Y-115565030D01*
X138635544Y-115562056D01*
X138661794Y-115528758D01*
X138665835Y-115523632D01*
X138667998Y-115517475D01*
X138668102Y-115517285D01*
X138668663Y-115516393D01*
X138669366Y-115515041D01*
X138669778Y-115514056D01*
X138669868Y-115513873D01*
X138673663Y-115508561D01*
X138675533Y-115502308D01*
X138675536Y-115502302D01*
X138687691Y-115461660D01*
X138688829Y-115458155D01*
X138705049Y-115411966D01*
X138705500Y-115406759D01*
X138705500Y-115405147D01*
X138705859Y-115400910D01*
X138707575Y-115395172D01*
X138705561Y-115343918D01*
X138705500Y-115340816D01*
X138705500Y-113964450D01*
X138714110Y-113928585D01*
X138735104Y-113887382D01*
X138740461Y-113876868D01*
X138744990Y-113848278D01*
X138759582Y-113756143D01*
X138760555Y-113750000D01*
X138747500Y-113667576D01*
X138741434Y-113629273D01*
X138741433Y-113629271D01*
X138740461Y-113623132D01*
X138698186Y-113540162D01*
X138684969Y-113514222D01*
X138684968Y-113514221D01*
X138682146Y-113508682D01*
X138591318Y-113417854D01*
X138578958Y-113411556D01*
X138536080Y-113389709D01*
X138476868Y-113359539D01*
X138470729Y-113358567D01*
X138470727Y-113358566D01*
X138356143Y-113340418D01*
X138350000Y-113339445D01*
X138343857Y-113340418D01*
X138229273Y-113358566D01*
X138229271Y-113358567D01*
X138223132Y-113359539D01*
X138163920Y-113389709D01*
X138121043Y-113411556D01*
X138108682Y-113417854D01*
X138017854Y-113508682D01*
X138015032Y-113514221D01*
X138015031Y-113514222D01*
X138001814Y-113540162D01*
X137959539Y-113623132D01*
X137958567Y-113629271D01*
X137958566Y-113629273D01*
X137952500Y-113667576D01*
X137939445Y-113750000D01*
X137940418Y-113756143D01*
X137955011Y-113848278D01*
X137959539Y-113876868D01*
X137964896Y-113887382D01*
X137985890Y-113928585D01*
X137994500Y-113964450D01*
X137994500Y-115170025D01*
X137976018Y-115220805D01*
X137971361Y-115225886D01*
X137065360Y-116131887D01*
X137016384Y-116154725D01*
X136964186Y-116140739D01*
X136933191Y-116096473D01*
X136930499Y-116076026D01*
X136930499Y-115832224D01*
X136920027Y-115779572D01*
X136880133Y-115719867D01*
X136820428Y-115679973D01*
X136812799Y-115678456D01*
X136812798Y-115678455D01*
X136771588Y-115670258D01*
X136771587Y-115670258D01*
X136767777Y-115669500D01*
X136763891Y-115669500D01*
X135750001Y-115669501D01*
X134732224Y-115669501D01*
X134728415Y-115670259D01*
X134728411Y-115670259D01*
X134698127Y-115676283D01*
X134679572Y-115679973D01*
X134619867Y-115719867D01*
X134579973Y-115779572D01*
X134578456Y-115787201D01*
X134578455Y-115787202D01*
X134570258Y-115828411D01*
X134569500Y-115832223D01*
X130930500Y-115832223D01*
X130930500Y-114398909D01*
X130948982Y-114348129D01*
X130953639Y-114343048D01*
X132200118Y-113096569D01*
X132203595Y-113093568D01*
X132207638Y-113091591D01*
X132239222Y-113057543D01*
X132241279Y-113055408D01*
X132254292Y-113042395D01*
X132256351Y-113039392D01*
X132257485Y-113038028D01*
X132260328Y-113034791D01*
X132273742Y-113020331D01*
X132273744Y-113020327D01*
X132278703Y-113014982D01*
X132281404Y-113008212D01*
X132281407Y-113008207D01*
X132283239Y-113003614D01*
X132291467Y-112988204D01*
X132294262Y-112984129D01*
X132294262Y-112984128D01*
X132298390Y-112978111D01*
X132304358Y-112952964D01*
X132307844Y-112941940D01*
X132317424Y-112917927D01*
X132318000Y-112912053D01*
X132318000Y-112904722D01*
X132320135Y-112886482D01*
X132320833Y-112883540D01*
X132320833Y-112883539D01*
X132322518Y-112876439D01*
X132318722Y-112848546D01*
X132318000Y-112837893D01*
X132318000Y-111659499D01*
X132336482Y-111608719D01*
X132383282Y-111581699D01*
X132397000Y-111580499D01*
X132447702Y-111580499D01*
X132451511Y-111579741D01*
X132451515Y-111579741D01*
X132495937Y-111570905D01*
X132514937Y-111567126D01*
X132591181Y-111516181D01*
X132642126Y-111439937D01*
X132655500Y-111372703D01*
X132655499Y-111227298D01*
X132642126Y-111160063D01*
X132631320Y-111143890D01*
X132618474Y-111091401D01*
X132631319Y-111056111D01*
X132642126Y-111039937D01*
X132643645Y-111032304D01*
X132654742Y-110976514D01*
X132654742Y-110976513D01*
X132655500Y-110972703D01*
X132655499Y-110827298D01*
X132642126Y-110760063D01*
X132631320Y-110743890D01*
X132618474Y-110691401D01*
X132631319Y-110656111D01*
X132642126Y-110639937D01*
X132643645Y-110632304D01*
X132654742Y-110576514D01*
X132654742Y-110576513D01*
X132655500Y-110572703D01*
X132655499Y-110459500D01*
X132673981Y-110408720D01*
X132720780Y-110381700D01*
X132734499Y-110380500D01*
X133221091Y-110380500D01*
X133271871Y-110398982D01*
X133276952Y-110403639D01*
X133586361Y-110713048D01*
X133609199Y-110762024D01*
X133609500Y-110768909D01*
X133609500Y-111007554D01*
X133615645Y-111054231D01*
X133618200Y-111059710D01*
X133658879Y-111146945D01*
X133663412Y-111156667D01*
X133743333Y-111236588D01*
X133845769Y-111284355D01*
X133860882Y-111286345D01*
X133889876Y-111290162D01*
X133889881Y-111290162D01*
X133892446Y-111290500D01*
X134131091Y-111290500D01*
X134181871Y-111308982D01*
X134186952Y-111313639D01*
X134445451Y-111572138D01*
X134448452Y-111575615D01*
X134450429Y-111579658D01*
X134455777Y-111584619D01*
X134484477Y-111611242D01*
X134486612Y-111613299D01*
X134499625Y-111626312D01*
X134502627Y-111628372D01*
X134503997Y-111629510D01*
X134507230Y-111632349D01*
X134527038Y-111650723D01*
X134533813Y-111653426D01*
X134538404Y-111655258D01*
X134553823Y-111663492D01*
X134558783Y-111666895D01*
X134590200Y-111710863D01*
X134586003Y-111764740D01*
X134576765Y-111780129D01*
X134536609Y-111832461D01*
X134483154Y-111961512D01*
X134464922Y-112100000D01*
X134483154Y-112238488D01*
X134512822Y-112310112D01*
X134533796Y-112360748D01*
X134536154Y-112414736D01*
X134503257Y-112457608D01*
X134460810Y-112469980D01*
X134443935Y-112469980D01*
X134428525Y-112468462D01*
X134409520Y-112464682D01*
X134401888Y-112466200D01*
X134382889Y-112469979D01*
X134382881Y-112469980D01*
X134382878Y-112469980D01*
X134382873Y-112469981D01*
X134311606Y-112484157D01*
X134311605Y-112484158D01*
X134303976Y-112485675D01*
X134237085Y-112530370D01*
X134237083Y-112530372D01*
X134214501Y-112545461D01*
X134203730Y-112561580D01*
X134193908Y-112573547D01*
X133956828Y-112810627D01*
X133907852Y-112833465D01*
X133855654Y-112819479D01*
X133824659Y-112775213D01*
X133822643Y-112744455D01*
X133834402Y-112655135D01*
X133835078Y-112650000D01*
X133816846Y-112511512D01*
X133763391Y-112382461D01*
X133707876Y-112310112D01*
X133681507Y-112275748D01*
X133678357Y-112271643D01*
X133635149Y-112238488D01*
X133571650Y-112189763D01*
X133571647Y-112189761D01*
X133567539Y-112186609D01*
X133562752Y-112184626D01*
X133562750Y-112184625D01*
X133519466Y-112166696D01*
X133438488Y-112133154D01*
X133300000Y-112114922D01*
X133161512Y-112133154D01*
X133080534Y-112166696D01*
X133037250Y-112184625D01*
X133037248Y-112184626D01*
X133032461Y-112186609D01*
X133028353Y-112189761D01*
X133028350Y-112189763D01*
X132964851Y-112238488D01*
X132921643Y-112271643D01*
X132918493Y-112275748D01*
X132892125Y-112310112D01*
X132836609Y-112382461D01*
X132783154Y-112511512D01*
X132764922Y-112650000D01*
X132783154Y-112788488D01*
X132803864Y-112838486D01*
X132834337Y-112912053D01*
X132836609Y-112917539D01*
X132839761Y-112921647D01*
X132839763Y-112921650D01*
X132901503Y-113002110D01*
X132921643Y-113028357D01*
X132925748Y-113031507D01*
X133028350Y-113110237D01*
X133028353Y-113110239D01*
X133032461Y-113113391D01*
X133037248Y-113115374D01*
X133037250Y-113115375D01*
X133069560Y-113128758D01*
X133161512Y-113166846D01*
X133245006Y-113177838D01*
X133294387Y-113184339D01*
X133300000Y-113185078D01*
X133305135Y-113184402D01*
X133394455Y-113172643D01*
X133447213Y-113184339D01*
X133480110Y-113227211D01*
X133477752Y-113281199D01*
X133460627Y-113306828D01*
X132426319Y-114341136D01*
X132377345Y-114363973D01*
X132325147Y-114349987D01*
X132314599Y-114341135D01*
X132291318Y-114317854D01*
X132176868Y-114259539D01*
X132170729Y-114258567D01*
X132170727Y-114258566D01*
X132056143Y-114240418D01*
X132050000Y-114239445D01*
X132043857Y-114240418D01*
X131929273Y-114258566D01*
X131929271Y-114258567D01*
X131923132Y-114259539D01*
X131808682Y-114317854D01*
X131717854Y-114408682D01*
X131715032Y-114414221D01*
X131715031Y-114414222D01*
X131704461Y-114434968D01*
X131659539Y-114523132D01*
X131658567Y-114529271D01*
X131658566Y-114529273D01*
X131645566Y-114611354D01*
X131639445Y-114650000D01*
X131640418Y-114656143D01*
X131647445Y-114700507D01*
X131659539Y-114776868D01*
X131717854Y-114891318D01*
X131808682Y-114982146D01*
X131910469Y-115034009D01*
X131947323Y-115073530D01*
X131952630Y-115116755D01*
X131939445Y-115200000D01*
X131959539Y-115326868D01*
X131970837Y-115349041D01*
X132005899Y-115417854D01*
X132017854Y-115441318D01*
X132108682Y-115532146D01*
X132114221Y-115534968D01*
X132114222Y-115534969D01*
X132126457Y-115541203D01*
X132223132Y-115590461D01*
X132229271Y-115591433D01*
X132229273Y-115591434D01*
X132343857Y-115609582D01*
X132350000Y-115610555D01*
X132356143Y-115609582D01*
X132470727Y-115591434D01*
X132470729Y-115591433D01*
X132476868Y-115590461D01*
X132573543Y-115541203D01*
X132585778Y-115534969D01*
X132585779Y-115534968D01*
X132591318Y-115532146D01*
X132682146Y-115441318D01*
X132694102Y-115417854D01*
X132718975Y-115369037D01*
X132733504Y-115349041D01*
X134738906Y-113343639D01*
X134787882Y-113320801D01*
X134794767Y-113320500D01*
X136965580Y-113320500D01*
X136980991Y-113322018D01*
X137000000Y-113325799D01*
X137016400Y-113322537D01*
X137026640Y-113320500D01*
X137097914Y-113306323D01*
X137097915Y-113306322D01*
X137105544Y-113304805D01*
X137154667Y-113271982D01*
X137172435Y-113260110D01*
X137172437Y-113260108D01*
X137195019Y-113245019D01*
X137205790Y-113228900D01*
X137215612Y-113216933D01*
X138116929Y-112315616D01*
X138128900Y-112305791D01*
X138138553Y-112299341D01*
X138145020Y-112295020D01*
X138204806Y-112205544D01*
X138225799Y-112100000D01*
X138212507Y-112033174D01*
X138210989Y-112017762D01*
X138210989Y-111259500D01*
X138229471Y-111208720D01*
X138276271Y-111181700D01*
X138289989Y-111180500D01*
X139627075Y-111180499D01*
X139697776Y-111180499D01*
X139701585Y-111179741D01*
X139701589Y-111179741D01*
X139734082Y-111173278D01*
X139750428Y-111170027D01*
X139772775Y-111155095D01*
X139825265Y-111142250D01*
X139873731Y-111166151D01*
X139894034Y-111208193D01*
X139894027Y-111209310D01*
X139895571Y-111214711D01*
X139895571Y-111214714D01*
X139915475Y-111284355D01*
X139933817Y-111348534D01*
X140011084Y-111470994D01*
X140119615Y-111566845D01*
X140124707Y-111569236D01*
X140124709Y-111569237D01*
X140208803Y-111608719D01*
X140250686Y-111628383D01*
X140360621Y-111645500D01*
X140436297Y-111645500D01*
X140439074Y-111645102D01*
X140439078Y-111645102D01*
X140537766Y-111630969D01*
X140537768Y-111630968D01*
X140543336Y-111630171D01*
X140548457Y-111627843D01*
X140548459Y-111627842D01*
X140670021Y-111572571D01*
X140670023Y-111572570D01*
X140675149Y-111570239D01*
X140679414Y-111566564D01*
X140679417Y-111566562D01*
X140780578Y-111479395D01*
X140784843Y-111475720D01*
X140863600Y-111354213D01*
X140905088Y-111215486D01*
X140905616Y-111129150D01*
X140905939Y-111076315D01*
X140905939Y-111076312D01*
X140905973Y-111070690D01*
X140866183Y-110931466D01*
X140788916Y-110809006D01*
X140680385Y-110713155D01*
X140675293Y-110710764D01*
X140675288Y-110710761D01*
X140598935Y-110674913D01*
X140560824Y-110636602D01*
X140556256Y-110582756D01*
X140576649Y-110547542D01*
X140994139Y-110130052D01*
X141043115Y-110107214D01*
X141095313Y-110121200D01*
G37*
%TD.AperFunction*%
%TA.AperFunction,Conductor*%
G36*
X124677231Y-111562239D02*
G01*
X124678594Y-111562804D01*
X124685063Y-111567126D01*
X124752297Y-111580500D01*
X125162500Y-111580500D01*
X125572702Y-111580499D01*
X125576511Y-111579741D01*
X125576515Y-111579741D01*
X125639937Y-111567126D01*
X125640689Y-111570905D01*
X125679235Y-111569251D01*
X125722083Y-111602180D01*
X125733739Y-111654947D01*
X125732382Y-111659965D01*
X125732874Y-111660063D01*
X125719500Y-111727297D01*
X125719500Y-112619479D01*
X125719164Y-112624056D01*
X125717702Y-112628314D01*
X125718516Y-112650000D01*
X125719444Y-112674706D01*
X125719500Y-112677670D01*
X125719500Y-112696090D01*
X125720166Y-112699667D01*
X125720332Y-112701461D01*
X125720610Y-112705757D01*
X125721194Y-112721313D01*
X125721623Y-112732735D01*
X125726454Y-112743980D01*
X125731531Y-112760691D01*
X125733773Y-112772728D01*
X125737600Y-112778937D01*
X125737601Y-112778939D01*
X125747338Y-112794735D01*
X125752666Y-112804990D01*
X125762871Y-112828743D01*
X125766617Y-112833304D01*
X125771799Y-112838486D01*
X125783186Y-112852890D01*
X125788605Y-112861682D01*
X125794411Y-112866097D01*
X125811019Y-112878726D01*
X125819062Y-112885749D01*
X125896361Y-112963048D01*
X125919199Y-113012024D01*
X125919500Y-113018909D01*
X125919500Y-113257554D01*
X125925645Y-113304231D01*
X125928200Y-113309710D01*
X125952574Y-113361979D01*
X125973412Y-113406667D01*
X126053333Y-113486588D01*
X126155769Y-113534355D01*
X126170882Y-113536345D01*
X126199876Y-113540162D01*
X126199881Y-113540162D01*
X126202446Y-113540500D01*
X126557554Y-113540500D01*
X126560119Y-113540162D01*
X126560124Y-113540162D01*
X126589118Y-113536345D01*
X126604231Y-113534355D01*
X126706667Y-113486588D01*
X126786588Y-113406667D01*
X126807427Y-113361979D01*
X126831800Y-113309710D01*
X126834355Y-113304231D01*
X126840500Y-113257554D01*
X126840500Y-112842446D01*
X126840163Y-112839883D01*
X126840162Y-112839874D01*
X126839825Y-112837317D01*
X126851522Y-112784559D01*
X126894395Y-112751663D01*
X126902738Y-112749525D01*
X126918881Y-112746314D01*
X126939937Y-112742126D01*
X126956110Y-112731320D01*
X127008599Y-112718474D01*
X127043889Y-112731319D01*
X127060063Y-112742126D01*
X127067692Y-112743643D01*
X127067693Y-112743644D01*
X127109968Y-112752053D01*
X127127297Y-112755500D01*
X127131182Y-112755500D01*
X127200074Y-112755499D01*
X127272702Y-112755499D01*
X127339937Y-112742126D01*
X127356110Y-112731320D01*
X127408599Y-112718474D01*
X127443889Y-112731319D01*
X127460063Y-112742126D01*
X127467692Y-112743643D01*
X127467693Y-112743644D01*
X127509968Y-112752053D01*
X127527297Y-112755500D01*
X127531182Y-112755500D01*
X127600074Y-112755499D01*
X127672702Y-112755499D01*
X127739937Y-112742126D01*
X127756110Y-112731320D01*
X127808599Y-112718474D01*
X127843889Y-112731319D01*
X127860063Y-112742126D01*
X127867692Y-112743643D01*
X127867693Y-112743644D01*
X127909968Y-112752053D01*
X127927297Y-112755500D01*
X127931182Y-112755500D01*
X128000074Y-112755499D01*
X128072702Y-112755499D01*
X128139937Y-112742126D01*
X128156110Y-112731320D01*
X128208599Y-112718474D01*
X128243889Y-112731319D01*
X128260063Y-112742126D01*
X128267692Y-112743643D01*
X128267693Y-112743644D01*
X128309968Y-112752053D01*
X128327297Y-112755500D01*
X128342950Y-112755500D01*
X128440500Y-112755499D01*
X128491280Y-112773981D01*
X128518300Y-112820780D01*
X128519500Y-112834499D01*
X128519500Y-113361979D01*
X128519164Y-113366556D01*
X128517702Y-113370814D01*
X128518569Y-113393903D01*
X128519444Y-113417206D01*
X128519500Y-113420170D01*
X128519500Y-113438590D01*
X128520166Y-113442167D01*
X128520332Y-113443961D01*
X128520610Y-113448257D01*
X128521293Y-113466446D01*
X128521623Y-113475235D01*
X128524503Y-113481938D01*
X128526454Y-113486480D01*
X128531531Y-113503191D01*
X128533773Y-113515228D01*
X128537600Y-113521437D01*
X128537601Y-113521439D01*
X128547338Y-113537235D01*
X128552666Y-113547490D01*
X128562871Y-113571243D01*
X128566617Y-113575804D01*
X128571799Y-113580986D01*
X128583186Y-113595390D01*
X128588605Y-113604182D01*
X128594411Y-113608597D01*
X128611019Y-113621226D01*
X128619062Y-113628249D01*
X129346361Y-114355548D01*
X129369199Y-114404524D01*
X129369500Y-114411409D01*
X129369500Y-114632091D01*
X129351018Y-114682871D01*
X129304218Y-114709891D01*
X129251000Y-114700507D01*
X129234639Y-114687952D01*
X128434069Y-113887382D01*
X128431068Y-113883905D01*
X128429091Y-113879862D01*
X128395043Y-113848278D01*
X128392908Y-113846221D01*
X128379895Y-113833208D01*
X128376893Y-113831148D01*
X128375523Y-113830010D01*
X128372290Y-113827171D01*
X128357830Y-113813758D01*
X128352482Y-113808797D01*
X128341114Y-113804262D01*
X128325705Y-113796034D01*
X128315611Y-113789109D01*
X128308518Y-113787426D01*
X128308516Y-113787425D01*
X128290461Y-113783141D01*
X128279433Y-113779653D01*
X128255427Y-113770076D01*
X128249553Y-113769500D01*
X128242221Y-113769500D01*
X128223981Y-113767365D01*
X128213939Y-113764982D01*
X128206708Y-113765966D01*
X128186046Y-113768778D01*
X128175393Y-113769500D01*
X125648909Y-113769500D01*
X125598129Y-113751018D01*
X125593048Y-113746361D01*
X124591139Y-112744452D01*
X124568301Y-112695476D01*
X124568000Y-112688591D01*
X124568000Y-111635226D01*
X124586482Y-111584446D01*
X124633282Y-111557426D01*
X124677231Y-111562239D01*
G37*
%TD.AperFunction*%
%TA.AperFunction,Conductor*%
G36*
X137045363Y-108676313D02*
G01*
X137067591Y-108687638D01*
X137067592Y-108687638D01*
X137073132Y-108690461D01*
X137079271Y-108691433D01*
X137079273Y-108691434D01*
X137144805Y-108701813D01*
X137190309Y-108709020D01*
X137193857Y-108709582D01*
X137200000Y-108710555D01*
X137206143Y-108709582D01*
X137206144Y-108709582D01*
X137255197Y-108701813D01*
X137308243Y-108712124D01*
X137342251Y-108754121D01*
X137345037Y-108795251D01*
X137337156Y-108834869D01*
X137324201Y-108900000D01*
X137325719Y-108907631D01*
X137327982Y-108919008D01*
X137329500Y-108934420D01*
X137329500Y-111495226D01*
X137311018Y-111546006D01*
X137264218Y-111573026D01*
X137214635Y-111565616D01*
X137101051Y-111507742D01*
X137094912Y-111506770D01*
X137094910Y-111506769D01*
X137022028Y-111495226D01*
X136983057Y-111489054D01*
X136939555Y-111466888D01*
X136719569Y-111246902D01*
X136716568Y-111243425D01*
X136714591Y-111239382D01*
X136680543Y-111207798D01*
X136678408Y-111205741D01*
X136665395Y-111192728D01*
X136662393Y-111190668D01*
X136661023Y-111189530D01*
X136657790Y-111186691D01*
X136643330Y-111173278D01*
X136637982Y-111168317D01*
X136626614Y-111163782D01*
X136611205Y-111155554D01*
X136601111Y-111148629D01*
X136594018Y-111146946D01*
X136594016Y-111146945D01*
X136575961Y-111142661D01*
X136564933Y-111139173D01*
X136540927Y-111129596D01*
X136535053Y-111129020D01*
X136527721Y-111129020D01*
X136509481Y-111126885D01*
X136499439Y-111124502D01*
X136492208Y-111125486D01*
X136471546Y-111128298D01*
X136460893Y-111129020D01*
X136454591Y-111129020D01*
X136403811Y-111110538D01*
X136376791Y-111063738D01*
X136376267Y-111039709D01*
X136380162Y-111010124D01*
X136380162Y-111010119D01*
X136380500Y-111007554D01*
X136380500Y-110768920D01*
X136401568Y-110715209D01*
X136401708Y-110715058D01*
X136403779Y-110712908D01*
X136416792Y-110699895D01*
X136418852Y-110696893D01*
X136419990Y-110695523D01*
X136422829Y-110692290D01*
X136436242Y-110677830D01*
X136441203Y-110672482D01*
X136445738Y-110661114D01*
X136453966Y-110645705D01*
X136460891Y-110635611D01*
X136466860Y-110610460D01*
X136470348Y-110599429D01*
X136479924Y-110575427D01*
X136480500Y-110569553D01*
X136480500Y-110562226D01*
X136482635Y-110543985D01*
X136483334Y-110541039D01*
X136485019Y-110533939D01*
X136481222Y-110506041D01*
X136480500Y-110495387D01*
X136480500Y-110259499D01*
X136498982Y-110208719D01*
X136545782Y-110181699D01*
X136559500Y-110180499D01*
X136767776Y-110180499D01*
X136771585Y-110179741D01*
X136771589Y-110179741D01*
X136806978Y-110172702D01*
X136820428Y-110170027D01*
X136880133Y-110130133D01*
X136920027Y-110070428D01*
X136921546Y-110062795D01*
X136929742Y-110021588D01*
X136929742Y-110021587D01*
X136930500Y-110017777D01*
X136930499Y-108746703D01*
X136948981Y-108695923D01*
X136995781Y-108668903D01*
X137045363Y-108676313D01*
G37*
%TD.AperFunction*%
%TA.AperFunction,Conductor*%
G36*
X131043889Y-105856319D02*
G01*
X131060063Y-105867126D01*
X131067692Y-105868643D01*
X131067693Y-105868644D01*
X131123486Y-105879742D01*
X131127297Y-105880500D01*
X131131182Y-105880500D01*
X131200074Y-105880499D01*
X131272702Y-105880499D01*
X131339937Y-105867126D01*
X131340689Y-105870905D01*
X131379235Y-105869251D01*
X131422083Y-105902180D01*
X131433739Y-105954947D01*
X131432382Y-105959965D01*
X131432874Y-105960063D01*
X131420914Y-106020191D01*
X131419500Y-106027297D01*
X131419501Y-106172702D01*
X131432874Y-106239937D01*
X131443680Y-106256110D01*
X131456526Y-106308599D01*
X131443681Y-106343889D01*
X131432874Y-106360063D01*
X131431357Y-106367692D01*
X131431356Y-106367693D01*
X131425489Y-106397187D01*
X131419500Y-106427297D01*
X131419501Y-106572702D01*
X131432874Y-106639937D01*
X131443680Y-106656110D01*
X131456526Y-106708599D01*
X131443681Y-106743889D01*
X131432874Y-106760063D01*
X131431357Y-106767692D01*
X131431356Y-106767693D01*
X131420258Y-106823486D01*
X131419500Y-106827297D01*
X131419501Y-106972702D01*
X131432874Y-107039937D01*
X131443680Y-107056110D01*
X131456526Y-107108599D01*
X131443681Y-107143889D01*
X131432874Y-107160063D01*
X131431357Y-107167692D01*
X131431356Y-107167693D01*
X131428809Y-107180500D01*
X131419500Y-107227297D01*
X131419501Y-107372702D01*
X131432874Y-107439937D01*
X131443680Y-107456110D01*
X131456526Y-107508599D01*
X131443681Y-107543889D01*
X131432874Y-107560063D01*
X131431357Y-107567692D01*
X131431356Y-107567693D01*
X131428809Y-107580500D01*
X131419500Y-107627297D01*
X131419501Y-107772702D01*
X131432874Y-107839937D01*
X131443680Y-107856110D01*
X131456526Y-107908599D01*
X131443681Y-107943889D01*
X131432874Y-107960063D01*
X131431357Y-107967692D01*
X131431356Y-107967693D01*
X131425471Y-107997278D01*
X131419500Y-108027297D01*
X131419501Y-108172702D01*
X131432874Y-108239937D01*
X131443680Y-108256110D01*
X131456526Y-108308599D01*
X131443681Y-108343889D01*
X131432874Y-108360063D01*
X131431357Y-108367692D01*
X131431356Y-108367693D01*
X131424727Y-108401019D01*
X131419500Y-108427297D01*
X131419501Y-108572702D01*
X131432874Y-108639937D01*
X131443680Y-108656110D01*
X131456526Y-108708599D01*
X131443681Y-108743889D01*
X131432874Y-108760063D01*
X131431357Y-108767692D01*
X131431356Y-108767693D01*
X131423827Y-108805544D01*
X131419500Y-108827297D01*
X131419500Y-108831182D01*
X131419501Y-108900074D01*
X131419501Y-108972702D01*
X131432874Y-109039937D01*
X131443680Y-109056110D01*
X131456526Y-109108599D01*
X131443681Y-109143889D01*
X131432874Y-109160063D01*
X131431357Y-109167692D01*
X131431356Y-109167693D01*
X131428326Y-109182928D01*
X131419500Y-109227297D01*
X131419501Y-109372702D01*
X131432874Y-109439937D01*
X131443680Y-109456109D01*
X131456526Y-109508599D01*
X131443681Y-109543889D01*
X131432874Y-109560063D01*
X131431357Y-109567692D01*
X131431356Y-109567693D01*
X131431025Y-109569357D01*
X131419500Y-109627297D01*
X131419501Y-109772702D01*
X131432874Y-109839937D01*
X131443680Y-109856110D01*
X131456526Y-109908599D01*
X131443681Y-109943889D01*
X131432874Y-109960063D01*
X131431357Y-109967692D01*
X131431356Y-109967693D01*
X131422902Y-110010196D01*
X131419500Y-110027297D01*
X131419501Y-110172702D01*
X131432874Y-110239937D01*
X131443680Y-110256110D01*
X131456526Y-110308599D01*
X131443681Y-110343889D01*
X131432874Y-110360063D01*
X131431357Y-110367692D01*
X131431356Y-110367693D01*
X131428809Y-110380500D01*
X131419500Y-110427297D01*
X131419500Y-110431182D01*
X131419501Y-110500074D01*
X131419501Y-110572702D01*
X131432874Y-110639937D01*
X131443680Y-110656110D01*
X131456526Y-110708599D01*
X131443681Y-110743889D01*
X131432874Y-110760063D01*
X131431357Y-110767692D01*
X131431356Y-110767693D01*
X131421425Y-110817619D01*
X131419500Y-110827297D01*
X131419501Y-110972702D01*
X131432874Y-111039937D01*
X131443680Y-111056110D01*
X131456526Y-111108599D01*
X131443681Y-111143889D01*
X131432874Y-111160063D01*
X131431357Y-111167692D01*
X131431356Y-111167693D01*
X131423379Y-111207798D01*
X131419500Y-111227297D01*
X131419501Y-111372702D01*
X131431356Y-111432307D01*
X131432874Y-111439937D01*
X131429095Y-111440689D01*
X131430749Y-111479235D01*
X131397820Y-111522083D01*
X131345053Y-111533739D01*
X131340035Y-111532382D01*
X131339937Y-111532874D01*
X131276514Y-111520258D01*
X131276513Y-111520258D01*
X131272703Y-111519500D01*
X131268818Y-111519500D01*
X131199926Y-111519501D01*
X131127298Y-111519501D01*
X131060063Y-111532874D01*
X131043890Y-111543680D01*
X130991401Y-111556526D01*
X130956111Y-111543681D01*
X130939937Y-111532874D01*
X130932308Y-111531357D01*
X130932307Y-111531356D01*
X130876514Y-111520258D01*
X130876513Y-111520258D01*
X130872703Y-111519500D01*
X130868818Y-111519500D01*
X130799926Y-111519501D01*
X130727298Y-111519501D01*
X130660063Y-111532874D01*
X130643890Y-111543680D01*
X130591401Y-111556526D01*
X130556111Y-111543681D01*
X130539937Y-111532874D01*
X130532308Y-111531357D01*
X130532307Y-111531356D01*
X130476514Y-111520258D01*
X130476513Y-111520258D01*
X130472703Y-111519500D01*
X130468818Y-111519500D01*
X130399926Y-111519501D01*
X130327298Y-111519501D01*
X130260063Y-111532874D01*
X130243890Y-111543680D01*
X130191401Y-111556526D01*
X130156111Y-111543681D01*
X130139937Y-111532874D01*
X130132308Y-111531357D01*
X130132307Y-111531356D01*
X130076514Y-111520258D01*
X130076513Y-111520258D01*
X130072703Y-111519500D01*
X130068818Y-111519500D01*
X129999926Y-111519501D01*
X129927298Y-111519501D01*
X129860063Y-111532874D01*
X129843890Y-111543680D01*
X129791401Y-111556526D01*
X129756111Y-111543681D01*
X129739937Y-111532874D01*
X129732308Y-111531357D01*
X129732307Y-111531356D01*
X129676514Y-111520258D01*
X129676513Y-111520258D01*
X129672703Y-111519500D01*
X129668818Y-111519500D01*
X129599926Y-111519501D01*
X129527298Y-111519501D01*
X129460063Y-111532874D01*
X129443890Y-111543680D01*
X129391401Y-111556526D01*
X129356111Y-111543681D01*
X129339937Y-111532874D01*
X129332308Y-111531357D01*
X129332307Y-111531356D01*
X129276514Y-111520258D01*
X129276513Y-111520258D01*
X129272703Y-111519500D01*
X129268818Y-111519500D01*
X129199926Y-111519501D01*
X129127298Y-111519501D01*
X129060063Y-111532874D01*
X129043890Y-111543680D01*
X128991401Y-111556526D01*
X128956111Y-111543681D01*
X128939937Y-111532874D01*
X128932308Y-111531357D01*
X128932307Y-111531356D01*
X128876514Y-111520258D01*
X128876513Y-111520258D01*
X128872703Y-111519500D01*
X128868818Y-111519500D01*
X128799926Y-111519501D01*
X128727298Y-111519501D01*
X128660063Y-111532874D01*
X128643890Y-111543680D01*
X128591401Y-111556526D01*
X128556111Y-111543681D01*
X128539937Y-111532874D01*
X128532308Y-111531357D01*
X128532307Y-111531356D01*
X128476514Y-111520258D01*
X128476513Y-111520258D01*
X128472703Y-111519500D01*
X128468818Y-111519500D01*
X128399926Y-111519501D01*
X128327298Y-111519501D01*
X128260063Y-111532874D01*
X128243890Y-111543680D01*
X128191401Y-111556526D01*
X128156111Y-111543681D01*
X128139937Y-111532874D01*
X128132308Y-111531357D01*
X128132307Y-111531356D01*
X128076514Y-111520258D01*
X128076513Y-111520258D01*
X128072703Y-111519500D01*
X128068818Y-111519500D01*
X127999926Y-111519501D01*
X127927298Y-111519501D01*
X127860063Y-111532874D01*
X127843890Y-111543680D01*
X127791401Y-111556526D01*
X127756111Y-111543681D01*
X127739937Y-111532874D01*
X127732308Y-111531357D01*
X127732307Y-111531356D01*
X127676514Y-111520258D01*
X127676513Y-111520258D01*
X127672703Y-111519500D01*
X127668818Y-111519500D01*
X127599926Y-111519501D01*
X127527298Y-111519501D01*
X127460063Y-111532874D01*
X127443890Y-111543680D01*
X127391401Y-111556526D01*
X127356111Y-111543681D01*
X127339937Y-111532874D01*
X127332308Y-111531357D01*
X127332307Y-111531356D01*
X127276514Y-111520258D01*
X127276513Y-111520258D01*
X127272703Y-111519500D01*
X127268818Y-111519500D01*
X127199926Y-111519501D01*
X127127298Y-111519501D01*
X127060063Y-111532874D01*
X127043890Y-111543680D01*
X126991401Y-111556526D01*
X126956111Y-111543681D01*
X126939937Y-111532874D01*
X126932308Y-111531357D01*
X126932307Y-111531356D01*
X126876514Y-111520258D01*
X126876513Y-111520258D01*
X126872703Y-111519500D01*
X126868818Y-111519500D01*
X126799926Y-111519501D01*
X126727298Y-111519501D01*
X126660063Y-111532874D01*
X126643890Y-111543680D01*
X126591401Y-111556526D01*
X126556111Y-111543681D01*
X126539937Y-111532874D01*
X126532308Y-111531357D01*
X126532307Y-111531356D01*
X126476514Y-111520258D01*
X126476513Y-111520258D01*
X126472703Y-111519500D01*
X126468818Y-111519500D01*
X126399926Y-111519501D01*
X126327298Y-111519501D01*
X126260063Y-111532874D01*
X126243890Y-111543680D01*
X126191401Y-111556526D01*
X126156111Y-111543681D01*
X126139937Y-111532874D01*
X126132308Y-111531357D01*
X126132307Y-111531356D01*
X126076514Y-111520258D01*
X126076513Y-111520258D01*
X126072703Y-111519500D01*
X126068818Y-111519500D01*
X125999926Y-111519501D01*
X125927298Y-111519501D01*
X125860063Y-111532874D01*
X125859311Y-111529095D01*
X125820765Y-111530749D01*
X125777917Y-111497820D01*
X125766261Y-111445053D01*
X125767618Y-111440035D01*
X125767126Y-111439937D01*
X125779742Y-111376514D01*
X125779742Y-111376513D01*
X125780500Y-111372703D01*
X125780499Y-111227298D01*
X125767126Y-111160063D01*
X125756320Y-111143890D01*
X125743474Y-111091401D01*
X125756319Y-111056111D01*
X125767126Y-111039937D01*
X125768645Y-111032304D01*
X125779742Y-110976514D01*
X125779742Y-110976513D01*
X125780500Y-110972703D01*
X125780499Y-110827298D01*
X125767126Y-110760063D01*
X125756320Y-110743890D01*
X125743474Y-110691401D01*
X125756319Y-110656111D01*
X125767126Y-110639937D01*
X125768645Y-110632304D01*
X125779742Y-110576514D01*
X125779742Y-110576513D01*
X125780500Y-110572703D01*
X125780500Y-110500000D01*
X125780499Y-110431175D01*
X125780499Y-110427298D01*
X125767126Y-110360063D01*
X125756320Y-110343890D01*
X125743474Y-110291401D01*
X125756319Y-110256111D01*
X125767126Y-110239937D01*
X125768645Y-110232304D01*
X125779742Y-110176514D01*
X125779742Y-110176513D01*
X125780500Y-110172703D01*
X125780499Y-110027298D01*
X125767126Y-109960063D01*
X125756320Y-109943890D01*
X125743474Y-109891401D01*
X125756319Y-109856111D01*
X125767126Y-109839937D01*
X125768645Y-109832304D01*
X125779742Y-109776514D01*
X125779742Y-109776513D01*
X125780500Y-109772703D01*
X125780499Y-109627298D01*
X125767126Y-109560063D01*
X125756320Y-109543890D01*
X125743474Y-109491401D01*
X125756320Y-109456109D01*
X125767126Y-109439937D01*
X125768645Y-109432304D01*
X125779742Y-109376514D01*
X125779742Y-109376513D01*
X125780500Y-109372703D01*
X125780499Y-109227298D01*
X125767126Y-109160063D01*
X125756320Y-109143890D01*
X125743474Y-109091401D01*
X125756319Y-109056111D01*
X125767126Y-109039937D01*
X125768645Y-109032304D01*
X125779742Y-108976514D01*
X125779742Y-108976513D01*
X125780500Y-108972703D01*
X125780500Y-108900000D01*
X125780499Y-108831175D01*
X125780499Y-108827298D01*
X125767126Y-108760063D01*
X125756320Y-108743890D01*
X125743474Y-108691401D01*
X125756319Y-108656111D01*
X125767126Y-108639937D01*
X125768645Y-108632304D01*
X125779742Y-108576514D01*
X125779742Y-108576513D01*
X125780500Y-108572703D01*
X125780499Y-108427298D01*
X125767126Y-108360063D01*
X125756320Y-108343890D01*
X125743474Y-108291401D01*
X125756319Y-108256111D01*
X125767126Y-108239937D01*
X125768645Y-108232304D01*
X125779742Y-108176514D01*
X125779742Y-108176513D01*
X125780500Y-108172703D01*
X125780499Y-108027298D01*
X125767126Y-107960063D01*
X125756320Y-107943890D01*
X125743474Y-107891401D01*
X125756319Y-107856111D01*
X125767126Y-107839937D01*
X125768645Y-107832304D01*
X125779742Y-107776514D01*
X125779742Y-107776513D01*
X125780500Y-107772703D01*
X125780499Y-107627298D01*
X125767126Y-107560063D01*
X125756320Y-107543890D01*
X125743474Y-107491401D01*
X125756319Y-107456111D01*
X125767126Y-107439937D01*
X125768645Y-107432304D01*
X125779742Y-107376514D01*
X125779742Y-107376513D01*
X125780500Y-107372703D01*
X125780499Y-107227298D01*
X125767126Y-107160063D01*
X125756320Y-107143890D01*
X125743474Y-107091401D01*
X125756319Y-107056111D01*
X125767126Y-107039937D01*
X125768645Y-107032304D01*
X125779742Y-106976514D01*
X125779742Y-106976513D01*
X125780500Y-106972703D01*
X125780499Y-106827298D01*
X125767126Y-106760063D01*
X125756320Y-106743890D01*
X125743474Y-106691401D01*
X125756319Y-106656111D01*
X125767126Y-106639937D01*
X125768645Y-106632304D01*
X125779742Y-106576514D01*
X125779742Y-106576513D01*
X125780500Y-106572703D01*
X125780499Y-106427298D01*
X125767126Y-106360063D01*
X125756320Y-106343890D01*
X125743474Y-106291401D01*
X125756319Y-106256111D01*
X125767126Y-106239937D01*
X125768645Y-106232304D01*
X125779742Y-106176514D01*
X125779742Y-106176513D01*
X125780500Y-106172703D01*
X125780499Y-106027298D01*
X125767126Y-105960063D01*
X125770905Y-105959311D01*
X125769251Y-105920765D01*
X125802180Y-105877917D01*
X125854947Y-105866261D01*
X125859965Y-105867618D01*
X125860063Y-105867126D01*
X125914312Y-105877917D01*
X125927297Y-105880500D01*
X125931182Y-105880500D01*
X126000074Y-105880499D01*
X126072702Y-105880499D01*
X126139937Y-105867126D01*
X126156110Y-105856320D01*
X126208599Y-105843474D01*
X126243889Y-105856319D01*
X126260063Y-105867126D01*
X126267692Y-105868643D01*
X126267693Y-105868644D01*
X126323486Y-105879742D01*
X126327297Y-105880500D01*
X126331182Y-105880500D01*
X126400074Y-105880499D01*
X126472702Y-105880499D01*
X126539937Y-105867126D01*
X126556110Y-105856320D01*
X126608599Y-105843474D01*
X126643889Y-105856319D01*
X126660063Y-105867126D01*
X126667692Y-105868643D01*
X126667693Y-105868644D01*
X126723486Y-105879742D01*
X126727297Y-105880500D01*
X126731182Y-105880500D01*
X126800074Y-105880499D01*
X126872702Y-105880499D01*
X126939937Y-105867126D01*
X126956110Y-105856320D01*
X127008599Y-105843474D01*
X127043889Y-105856319D01*
X127060063Y-105867126D01*
X127067692Y-105868643D01*
X127067693Y-105868644D01*
X127123486Y-105879742D01*
X127127297Y-105880500D01*
X127131182Y-105880500D01*
X127200074Y-105880499D01*
X127272702Y-105880499D01*
X127339937Y-105867126D01*
X127356110Y-105856320D01*
X127408599Y-105843474D01*
X127443889Y-105856319D01*
X127460063Y-105867126D01*
X127467692Y-105868643D01*
X127467693Y-105868644D01*
X127523486Y-105879742D01*
X127527297Y-105880500D01*
X127531182Y-105880500D01*
X127600074Y-105880499D01*
X127672702Y-105880499D01*
X127739937Y-105867126D01*
X127756110Y-105856320D01*
X127808599Y-105843474D01*
X127843889Y-105856319D01*
X127860063Y-105867126D01*
X127867692Y-105868643D01*
X127867693Y-105868644D01*
X127923486Y-105879742D01*
X127927297Y-105880500D01*
X127931182Y-105880500D01*
X128000074Y-105880499D01*
X128072702Y-105880499D01*
X128139937Y-105867126D01*
X128156110Y-105856320D01*
X128208599Y-105843474D01*
X128243889Y-105856319D01*
X128260063Y-105867126D01*
X128267692Y-105868643D01*
X128267693Y-105868644D01*
X128323486Y-105879742D01*
X128327297Y-105880500D01*
X128331182Y-105880500D01*
X128400074Y-105880499D01*
X128472702Y-105880499D01*
X128539937Y-105867126D01*
X128556110Y-105856320D01*
X128608599Y-105843474D01*
X128643889Y-105856319D01*
X128660063Y-105867126D01*
X128667692Y-105868643D01*
X128667693Y-105868644D01*
X128723486Y-105879742D01*
X128727297Y-105880500D01*
X128731182Y-105880500D01*
X128800074Y-105880499D01*
X128872702Y-105880499D01*
X128939937Y-105867126D01*
X128956110Y-105856320D01*
X129008599Y-105843474D01*
X129043889Y-105856319D01*
X129060063Y-105867126D01*
X129067692Y-105868643D01*
X129067693Y-105868644D01*
X129123486Y-105879742D01*
X129127297Y-105880500D01*
X129131182Y-105880500D01*
X129200074Y-105880499D01*
X129272702Y-105880499D01*
X129339937Y-105867126D01*
X129356110Y-105856320D01*
X129408599Y-105843474D01*
X129443889Y-105856319D01*
X129460063Y-105867126D01*
X129467692Y-105868643D01*
X129467693Y-105868644D01*
X129523486Y-105879742D01*
X129527297Y-105880500D01*
X129531182Y-105880500D01*
X129600074Y-105880499D01*
X129672702Y-105880499D01*
X129739937Y-105867126D01*
X129756110Y-105856320D01*
X129808599Y-105843474D01*
X129843889Y-105856319D01*
X129860063Y-105867126D01*
X129867692Y-105868643D01*
X129867693Y-105868644D01*
X129923486Y-105879742D01*
X129927297Y-105880500D01*
X129931182Y-105880500D01*
X130000074Y-105880499D01*
X130072702Y-105880499D01*
X130139937Y-105867126D01*
X130156110Y-105856320D01*
X130208599Y-105843474D01*
X130243889Y-105856319D01*
X130260063Y-105867126D01*
X130267692Y-105868643D01*
X130267693Y-105868644D01*
X130323486Y-105879742D01*
X130327297Y-105880500D01*
X130331182Y-105880500D01*
X130400074Y-105880499D01*
X130472702Y-105880499D01*
X130539937Y-105867126D01*
X130556110Y-105856320D01*
X130608599Y-105843474D01*
X130643889Y-105856319D01*
X130660063Y-105867126D01*
X130667692Y-105868643D01*
X130667693Y-105868644D01*
X130723486Y-105879742D01*
X130727297Y-105880500D01*
X130731182Y-105880500D01*
X130800074Y-105880499D01*
X130872702Y-105880499D01*
X130939937Y-105867126D01*
X130956110Y-105856320D01*
X131008599Y-105843474D01*
X131043889Y-105856319D01*
G37*
%TD.AperFunction*%
%TA.AperFunction,Conductor*%
G36*
X133735361Y-108476249D02*
G01*
X133744573Y-108479924D01*
X133750447Y-108480500D01*
X133757778Y-108480500D01*
X133776018Y-108482635D01*
X133778960Y-108483333D01*
X133778961Y-108483333D01*
X133786061Y-108485018D01*
X133793292Y-108484034D01*
X133813954Y-108481222D01*
X133824607Y-108480500D01*
X134951091Y-108480500D01*
X135001871Y-108498982D01*
X135006952Y-108503639D01*
X135346361Y-108843048D01*
X135369199Y-108892024D01*
X135369500Y-108898909D01*
X135369501Y-109462618D01*
X135369501Y-110017776D01*
X135370259Y-110021585D01*
X135370259Y-110021589D01*
X135371395Y-110027298D01*
X135379973Y-110070428D01*
X135419867Y-110130133D01*
X135479572Y-110170027D01*
X135487201Y-110171544D01*
X135487202Y-110171545D01*
X135528407Y-110179741D01*
X135532223Y-110180500D01*
X135629243Y-110180500D01*
X135680023Y-110198982D01*
X135707043Y-110245782D01*
X135697659Y-110299000D01*
X135662630Y-110331098D01*
X135614388Y-110353594D01*
X135593333Y-110363412D01*
X135513412Y-110443333D01*
X135465645Y-110545769D01*
X135464856Y-110551763D01*
X135460300Y-110586372D01*
X135459500Y-110592446D01*
X135459500Y-111007554D01*
X135459838Y-111010119D01*
X135459838Y-111010124D01*
X135463733Y-111039709D01*
X135452037Y-111092467D01*
X135409164Y-111125364D01*
X135385409Y-111129020D01*
X134828429Y-111129020D01*
X134777649Y-111110538D01*
X134772568Y-111105881D01*
X134553639Y-110886952D01*
X134530801Y-110837976D01*
X134530500Y-110831091D01*
X134530500Y-110592446D01*
X134529701Y-110586372D01*
X134525144Y-110551763D01*
X134524355Y-110545769D01*
X134476588Y-110443333D01*
X134396667Y-110363412D01*
X134375613Y-110353594D01*
X134299710Y-110318200D01*
X134294231Y-110315645D01*
X134279118Y-110313655D01*
X134250124Y-110309838D01*
X134250119Y-110309838D01*
X134247554Y-110309500D01*
X134008909Y-110309500D01*
X133958129Y-110291018D01*
X133953048Y-110286361D01*
X133612326Y-109945639D01*
X133589488Y-109896663D01*
X133603474Y-109844465D01*
X133612326Y-109833917D01*
X133629425Y-109816818D01*
X133637476Y-109801018D01*
X133668310Y-109740501D01*
X133687740Y-109702368D01*
X133697407Y-109641337D01*
X133706861Y-109581643D01*
X133707834Y-109575500D01*
X133699042Y-109519990D01*
X133688713Y-109454773D01*
X133688712Y-109454771D01*
X133687740Y-109448632D01*
X133649052Y-109372702D01*
X133632248Y-109339722D01*
X133632247Y-109339721D01*
X133629425Y-109334182D01*
X133538597Y-109243354D01*
X133514695Y-109231175D01*
X133483359Y-109215209D01*
X133424147Y-109185039D01*
X133418008Y-109184067D01*
X133418006Y-109184066D01*
X133360065Y-109174889D01*
X133306153Y-109166351D01*
X133262651Y-109144185D01*
X133034478Y-108916012D01*
X133011640Y-108867036D01*
X133025626Y-108814838D01*
X133069892Y-108783843D01*
X133087374Y-108781207D01*
X133102812Y-108780627D01*
X133104706Y-108780556D01*
X133107670Y-108780500D01*
X133126090Y-108780500D01*
X133129667Y-108779834D01*
X133131461Y-108779668D01*
X133135757Y-108779390D01*
X133155442Y-108778651D01*
X133155443Y-108778651D01*
X133162735Y-108778377D01*
X133173981Y-108773546D01*
X133190691Y-108768469D01*
X133202728Y-108766227D01*
X133208937Y-108762400D01*
X133208939Y-108762399D01*
X133224735Y-108752662D01*
X133234990Y-108747334D01*
X133258166Y-108737377D01*
X133278808Y-108733131D01*
X133278619Y-108731936D01*
X133399346Y-108712815D01*
X133399348Y-108712814D01*
X133405487Y-108711842D01*
X133496272Y-108665585D01*
X133514397Y-108656350D01*
X133514398Y-108656349D01*
X133519937Y-108653527D01*
X133610765Y-108562699D01*
X133635700Y-108513761D01*
X133675222Y-108476906D01*
X133729187Y-108474078D01*
X133735361Y-108476249D01*
G37*
%TD.AperFunction*%
%TA.AperFunction,Conductor*%
G36*
X122140023Y-105698982D02*
G01*
X122167043Y-105745782D01*
X122157659Y-105799000D01*
X122122630Y-105831098D01*
X122073022Y-105854231D01*
X122053333Y-105863412D01*
X121973412Y-105943333D01*
X121970490Y-105949599D01*
X121964295Y-105962885D01*
X121925645Y-106045769D01*
X121924856Y-106051763D01*
X121920100Y-106087891D01*
X121919500Y-106092446D01*
X121919500Y-106507554D01*
X121925645Y-106554231D01*
X121928200Y-106559710D01*
X121971507Y-106652582D01*
X121977936Y-106673610D01*
X121989539Y-106746868D01*
X121992361Y-106752406D01*
X122017985Y-106802697D01*
X122024570Y-106856333D01*
X121997310Y-106895814D01*
X121998938Y-106897442D01*
X121993434Y-106902946D01*
X121986967Y-106907267D01*
X121982646Y-106913734D01*
X121947786Y-106965905D01*
X121904206Y-106997859D01*
X121850283Y-106994324D01*
X121816414Y-106965905D01*
X121781554Y-106913734D01*
X121777233Y-106907267D01*
X121717528Y-106867373D01*
X121709899Y-106865856D01*
X121709898Y-106865855D01*
X121668688Y-106857658D01*
X121668687Y-106857658D01*
X121664877Y-106856900D01*
X121660991Y-106856900D01*
X121377101Y-106856901D01*
X121089324Y-106856901D01*
X121085515Y-106857659D01*
X121085511Y-106857659D01*
X121055227Y-106863683D01*
X121036672Y-106867373D01*
X120976967Y-106907267D01*
X120937073Y-106966972D01*
X120935556Y-106974601D01*
X120935555Y-106974602D01*
X120935175Y-106976514D01*
X120926600Y-107019623D01*
X120926601Y-107595176D01*
X120937073Y-107647828D01*
X120976967Y-107707533D01*
X121036672Y-107747427D01*
X121044301Y-107748944D01*
X121044302Y-107748945D01*
X121085512Y-107757142D01*
X121089323Y-107757900D01*
X121198491Y-107757900D01*
X121249271Y-107776382D01*
X121254352Y-107781039D01*
X121918685Y-108445372D01*
X121940851Y-108488874D01*
X121942931Y-108502011D01*
X121956032Y-108584724D01*
X121959539Y-108606868D01*
X121979683Y-108646403D01*
X122013522Y-108712815D01*
X122017854Y-108721318D01*
X122108682Y-108812146D01*
X122114221Y-108814968D01*
X122114222Y-108814969D01*
X122163920Y-108840291D01*
X122223132Y-108870461D01*
X122229271Y-108871433D01*
X122229273Y-108871434D01*
X122343857Y-108889582D01*
X122350000Y-108890555D01*
X122356143Y-108889582D01*
X122470727Y-108871434D01*
X122470729Y-108871433D01*
X122476868Y-108870461D01*
X122482404Y-108867640D01*
X122482411Y-108867638D01*
X122586960Y-108814367D01*
X122640596Y-108807781D01*
X122681349Y-108831691D01*
X122684777Y-108835472D01*
X122688605Y-108841682D01*
X122694411Y-108846097D01*
X122711019Y-108858726D01*
X122719062Y-108865749D01*
X123315931Y-109462618D01*
X123318932Y-109466095D01*
X123320909Y-109470138D01*
X123326257Y-109475099D01*
X123354957Y-109501722D01*
X123357092Y-109503779D01*
X123370105Y-109516792D01*
X123373107Y-109518852D01*
X123374477Y-109519990D01*
X123377711Y-109522830D01*
X123396832Y-109540567D01*
X123421492Y-109588652D01*
X123409474Y-109641337D01*
X123398967Y-109654346D01*
X123137382Y-109915931D01*
X123133905Y-109918932D01*
X123129862Y-109920909D01*
X123124901Y-109926257D01*
X123098278Y-109954957D01*
X123096221Y-109957092D01*
X123083208Y-109970105D01*
X123081148Y-109973107D01*
X123080010Y-109974477D01*
X123077171Y-109977710D01*
X123058797Y-109997518D01*
X123054262Y-110008886D01*
X123046034Y-110024295D01*
X123039109Y-110034389D01*
X123037426Y-110041482D01*
X123037425Y-110041484D01*
X123033141Y-110059539D01*
X123029653Y-110070567D01*
X123020076Y-110094573D01*
X123019500Y-110100447D01*
X123019500Y-110107779D01*
X123017365Y-110126019D01*
X123014982Y-110136061D01*
X123015966Y-110143292D01*
X123018778Y-110163954D01*
X123019500Y-110174607D01*
X123019500Y-110740500D01*
X123001018Y-110791280D01*
X122954218Y-110818300D01*
X122940500Y-110819500D01*
X120529477Y-110819500D01*
X120511773Y-110817491D01*
X120500323Y-110814858D01*
X120491647Y-110816821D01*
X120489137Y-110816817D01*
X120476927Y-110815846D01*
X120413621Y-110805819D01*
X120390122Y-110798183D01*
X120323349Y-110764160D01*
X120303355Y-110749633D01*
X120250367Y-110696645D01*
X120235840Y-110676652D01*
X120201817Y-110609878D01*
X120194180Y-110586372D01*
X120184626Y-110526049D01*
X120184175Y-110504813D01*
X120185141Y-110500646D01*
X120185142Y-110500000D01*
X120182478Y-110488321D01*
X120180500Y-110470752D01*
X120180500Y-106029706D01*
X120182540Y-106011868D01*
X120184132Y-106004998D01*
X120185141Y-106000646D01*
X120185142Y-106000000D01*
X120184150Y-105995651D01*
X120184110Y-105995295D01*
X120184593Y-105974156D01*
X120189475Y-105943333D01*
X120194180Y-105913627D01*
X120201817Y-105890121D01*
X120205340Y-105883208D01*
X120235840Y-105823349D01*
X120250367Y-105803355D01*
X120303355Y-105750367D01*
X120323348Y-105735840D01*
X120390121Y-105701817D01*
X120413626Y-105694181D01*
X120477158Y-105684119D01*
X120489653Y-105683146D01*
X120491006Y-105683148D01*
X120499677Y-105685142D01*
X120508352Y-105683179D01*
X120508354Y-105683179D01*
X120511582Y-105682448D01*
X120529018Y-105680500D01*
X122089243Y-105680500D01*
X122140023Y-105698982D01*
G37*
%TD.AperFunction*%
%TA.AperFunction,Conductor*%
G36*
X137088446Y-105273982D02*
G01*
X137093527Y-105278639D01*
X137221361Y-105406473D01*
X137244199Y-105455449D01*
X137244500Y-105462334D01*
X137244500Y-106963095D01*
X137226018Y-107013875D01*
X137221361Y-107018956D01*
X136981406Y-107258911D01*
X136968405Y-107269412D01*
X136957436Y-107276495D01*
X136946876Y-107289890D01*
X136936529Y-107303015D01*
X136930350Y-107309967D01*
X136927739Y-107312578D01*
X136924792Y-107316702D01*
X136916691Y-107328038D01*
X136914457Y-107331012D01*
X136884165Y-107369438D01*
X136882002Y-107375595D01*
X136881898Y-107375785D01*
X136881337Y-107376677D01*
X136880634Y-107378029D01*
X136880222Y-107379014D01*
X136880132Y-107379197D01*
X136876337Y-107384509D01*
X136874467Y-107390762D01*
X136874464Y-107390768D01*
X136862309Y-107431410D01*
X136861171Y-107434915D01*
X136844951Y-107481104D01*
X136844500Y-107486311D01*
X136844500Y-107487923D01*
X136844141Y-107492160D01*
X136842425Y-107497898D01*
X136842681Y-107504421D01*
X136842681Y-107504424D01*
X136844439Y-107549152D01*
X136844500Y-107552254D01*
X136844500Y-108085550D01*
X136835890Y-108121415D01*
X136809539Y-108173132D01*
X136808567Y-108179271D01*
X136808566Y-108179273D01*
X136799832Y-108234420D01*
X136789445Y-108300000D01*
X136790418Y-108306143D01*
X136790418Y-108306144D01*
X136793902Y-108328142D01*
X136783591Y-108381189D01*
X136741594Y-108415196D01*
X136715875Y-108419500D01*
X136122811Y-108419501D01*
X135748910Y-108419501D01*
X135698130Y-108401019D01*
X135693049Y-108396362D01*
X135334069Y-108037382D01*
X135331068Y-108033905D01*
X135329091Y-108029862D01*
X135295043Y-107998278D01*
X135292908Y-107996221D01*
X135279895Y-107983208D01*
X135276893Y-107981148D01*
X135275523Y-107980010D01*
X135272290Y-107977171D01*
X135257830Y-107963758D01*
X135252482Y-107958797D01*
X135250481Y-107957999D01*
X135219117Y-107917420D01*
X135221079Y-107870637D01*
X135220027Y-107870428D01*
X135221371Y-107863673D01*
X135221371Y-107863671D01*
X135222876Y-107856108D01*
X135229742Y-107821588D01*
X135229742Y-107821587D01*
X135230500Y-107817777D01*
X135230499Y-106732200D01*
X135248981Y-106681420D01*
X135253638Y-106676339D01*
X135816338Y-106113639D01*
X135865314Y-106090801D01*
X135872199Y-106090500D01*
X136097554Y-106090500D01*
X136100119Y-106090162D01*
X136100124Y-106090162D01*
X136129118Y-106086345D01*
X136144231Y-106084355D01*
X136214124Y-106051763D01*
X136240401Y-106039510D01*
X136246667Y-106036588D01*
X136326588Y-105956667D01*
X136336769Y-105934835D01*
X136371800Y-105859710D01*
X136374355Y-105854231D01*
X136377308Y-105831802D01*
X136380162Y-105810124D01*
X136380162Y-105810119D01*
X136380500Y-105807554D01*
X136380500Y-105392446D01*
X136377528Y-105369867D01*
X136374355Y-105345769D01*
X136377288Y-105345383D01*
X136380097Y-105302667D01*
X136417475Y-105263639D01*
X136452400Y-105255500D01*
X137037666Y-105255500D01*
X137088446Y-105273982D01*
G37*
%TD.AperFunction*%
%TA.AperFunction,Conductor*%
G36*
X135438380Y-105273982D02*
G01*
X135465400Y-105320782D01*
X135464050Y-105345559D01*
X135465645Y-105345769D01*
X135462473Y-105369867D01*
X135459500Y-105392446D01*
X135459500Y-105644381D01*
X135441018Y-105695161D01*
X135436361Y-105700242D01*
X134940242Y-106196361D01*
X134891266Y-106219199D01*
X134884381Y-106219500D01*
X134853017Y-106219500D01*
X134360755Y-106219501D01*
X134309976Y-106201019D01*
X134282956Y-106154219D01*
X134292340Y-106101001D01*
X134327368Y-106068903D01*
X134345270Y-106060555D01*
X134396667Y-106036588D01*
X134476588Y-105956667D01*
X134486769Y-105934835D01*
X134521800Y-105859710D01*
X134524355Y-105854231D01*
X134527308Y-105831802D01*
X134530162Y-105810124D01*
X134530162Y-105810119D01*
X134530500Y-105807554D01*
X134530500Y-105392446D01*
X134527528Y-105369867D01*
X134524355Y-105345769D01*
X134527288Y-105345383D01*
X134530097Y-105302667D01*
X134567475Y-105263639D01*
X134602400Y-105255500D01*
X135387600Y-105255500D01*
X135438380Y-105273982D01*
G37*
%TD.AperFunction*%
%TA.AperFunction,Conductor*%
G36*
X135091280Y-101868482D02*
G01*
X135118300Y-101915282D01*
X135119500Y-101929000D01*
X135119500Y-102033766D01*
X135118922Y-102042951D01*
X135115564Y-102051700D01*
X135118678Y-102078615D01*
X135118977Y-102081200D01*
X135119500Y-102090279D01*
X135119500Y-102096993D01*
X135120781Y-102102209D01*
X135122536Y-102111960D01*
X135125757Y-102139800D01*
X135131131Y-102147708D01*
X135131924Y-102149839D01*
X135132973Y-102151846D01*
X135135253Y-102161128D01*
X135141574Y-102168297D01*
X135141575Y-102168300D01*
X135153282Y-102181579D01*
X135159708Y-102189931D01*
X135168884Y-102203664D01*
X135168891Y-102203673D01*
X135169867Y-102205133D01*
X135170399Y-102205488D01*
X135175607Y-102213152D01*
X135184032Y-102217670D01*
X135185714Y-102219184D01*
X135187580Y-102220481D01*
X135193903Y-102227653D01*
X135196958Y-102228826D01*
X135225580Y-102269400D01*
X135223912Y-102316202D01*
X135216043Y-102338693D01*
X135208366Y-102354635D01*
X135149987Y-102447543D01*
X135138957Y-102461373D01*
X135061373Y-102538957D01*
X135047543Y-102549987D01*
X134954632Y-102608368D01*
X134938699Y-102616041D01*
X134835124Y-102652282D01*
X134817880Y-102656218D01*
X134726306Y-102666536D01*
X134713718Y-102666144D01*
X134713718Y-102666373D01*
X134706805Y-102666373D01*
X134700000Y-102665173D01*
X134693194Y-102666373D01*
X134682266Y-102668300D01*
X134668548Y-102669500D01*
X133722433Y-102669500D01*
X133671653Y-102651018D01*
X133650837Y-102623889D01*
X133636588Y-102593333D01*
X133556667Y-102513412D01*
X133548362Y-102509539D01*
X133459710Y-102468200D01*
X133454231Y-102465645D01*
X133439118Y-102463655D01*
X133410124Y-102459838D01*
X133410119Y-102459838D01*
X133407554Y-102459500D01*
X132992446Y-102459500D01*
X132989881Y-102459838D01*
X132989876Y-102459838D01*
X132960882Y-102463655D01*
X132945769Y-102465645D01*
X132940290Y-102468200D01*
X132851639Y-102509539D01*
X132843333Y-102513412D01*
X132818663Y-102538082D01*
X132769691Y-102560919D01*
X132717493Y-102546934D01*
X132706943Y-102538081D01*
X132673535Y-102504673D01*
X132667273Y-102501753D01*
X132667270Y-102501751D01*
X132574182Y-102458344D01*
X132574180Y-102458343D01*
X132568702Y-102455789D01*
X132546928Y-102452922D01*
X132523503Y-102449838D01*
X132523500Y-102449838D01*
X132520934Y-102449500D01*
X132149066Y-102449500D01*
X132146500Y-102449838D01*
X132146497Y-102449838D01*
X132123072Y-102452922D01*
X132101298Y-102455789D01*
X132095820Y-102458343D01*
X132095818Y-102458344D01*
X132002730Y-102501751D01*
X132002727Y-102501753D01*
X131996465Y-102504673D01*
X131914673Y-102586465D01*
X131913243Y-102589531D01*
X131870444Y-102619497D01*
X131816611Y-102614785D01*
X131786913Y-102589867D01*
X131785327Y-102586465D01*
X131703535Y-102504673D01*
X131697273Y-102501753D01*
X131697270Y-102501751D01*
X131604182Y-102458344D01*
X131604180Y-102458343D01*
X131598702Y-102455789D01*
X131576928Y-102452922D01*
X131553503Y-102449838D01*
X131553500Y-102449838D01*
X131550934Y-102449500D01*
X131179066Y-102449500D01*
X131176500Y-102449838D01*
X131176497Y-102449838D01*
X131153072Y-102452922D01*
X131131298Y-102455789D01*
X131125820Y-102458343D01*
X131125818Y-102458344D01*
X131032730Y-102501751D01*
X131032727Y-102501753D01*
X131026465Y-102504673D01*
X130944673Y-102586465D01*
X130941753Y-102592727D01*
X130941751Y-102592730D01*
X130934460Y-102608366D01*
X130895789Y-102691298D01*
X130895000Y-102697294D01*
X130894113Y-102700335D01*
X130862159Y-102743914D01*
X130809668Y-102756758D01*
X130761202Y-102732857D01*
X130747879Y-102714093D01*
X130722469Y-102664222D01*
X130722468Y-102664221D01*
X130719646Y-102658682D01*
X130628818Y-102567854D01*
X130615208Y-102560919D01*
X130570383Y-102538080D01*
X130514368Y-102509539D01*
X130508229Y-102508567D01*
X130508227Y-102508566D01*
X130465197Y-102501751D01*
X130419416Y-102494500D01*
X129905584Y-102494500D01*
X129859803Y-102501751D01*
X129816773Y-102508566D01*
X129816771Y-102508567D01*
X129810632Y-102509539D01*
X129754617Y-102538080D01*
X129709793Y-102560919D01*
X129696182Y-102567854D01*
X129605354Y-102658682D01*
X129602532Y-102664221D01*
X129602531Y-102664222D01*
X129588735Y-102691298D01*
X129547039Y-102773132D01*
X129532000Y-102868084D01*
X129532000Y-103431916D01*
X129532485Y-103434976D01*
X129532485Y-103434980D01*
X129533614Y-103442105D01*
X129523303Y-103495152D01*
X129481307Y-103529160D01*
X129443229Y-103532491D01*
X129374893Y-103521668D01*
X129368750Y-103520695D01*
X129362607Y-103521668D01*
X129248023Y-103539816D01*
X129248021Y-103539817D01*
X129241882Y-103540789D01*
X129229543Y-103547076D01*
X129140258Y-103592569D01*
X129127432Y-103599104D01*
X129123321Y-103603215D01*
X129080054Y-103618177D01*
X129046308Y-103619444D01*
X129043344Y-103619500D01*
X129024909Y-103619500D01*
X129021333Y-103620166D01*
X129019535Y-103620332D01*
X129015249Y-103620610D01*
X129004534Y-103621012D01*
X128995553Y-103621349D01*
X128995551Y-103621349D01*
X128988264Y-103621623D01*
X128985402Y-103622852D01*
X128974912Y-103624020D01*
X127935357Y-103624020D01*
X127884577Y-103605538D01*
X127863759Y-103578407D01*
X127827010Y-103499599D01*
X127824088Y-103493333D01*
X127803081Y-103472326D01*
X127780243Y-103423350D01*
X127794229Y-103371152D01*
X127803080Y-103360604D01*
X127844929Y-103318755D01*
X127848314Y-103311497D01*
X127876990Y-103250000D01*
X127891951Y-103217917D01*
X127896357Y-103184450D01*
X127897662Y-103174539D01*
X127897662Y-103174534D01*
X127898000Y-103171969D01*
X127897999Y-102728032D01*
X127891951Y-102682083D01*
X127889397Y-102676604D01*
X127847851Y-102587511D01*
X127847850Y-102587510D01*
X127844929Y-102581245D01*
X127766255Y-102502571D01*
X127665417Y-102455549D01*
X127650679Y-102453609D01*
X127622039Y-102449838D01*
X127622034Y-102449838D01*
X127619469Y-102449500D01*
X127447567Y-102449500D01*
X127275532Y-102449501D01*
X127229583Y-102455549D01*
X127224108Y-102458102D01*
X127224105Y-102458103D01*
X127146053Y-102494500D01*
X127128745Y-102502571D01*
X127050071Y-102581245D01*
X127047151Y-102587508D01*
X127047149Y-102587510D01*
X127035624Y-102612227D01*
X126997413Y-102650438D01*
X126943580Y-102655148D01*
X126908165Y-102634701D01*
X126841318Y-102567854D01*
X126791747Y-102542596D01*
X126771753Y-102528069D01*
X126746255Y-102502571D01*
X126645417Y-102455549D01*
X126630679Y-102453609D01*
X126602039Y-102449838D01*
X126602034Y-102449838D01*
X126599469Y-102449500D01*
X126427567Y-102449500D01*
X126255532Y-102449501D01*
X126209583Y-102455549D01*
X126204108Y-102458102D01*
X126204105Y-102458103D01*
X126126053Y-102494500D01*
X126108745Y-102502571D01*
X126030071Y-102581245D01*
X126027150Y-102587510D01*
X126027149Y-102587511D01*
X126024715Y-102592730D01*
X125983049Y-102682083D01*
X125982260Y-102688077D01*
X125977339Y-102725459D01*
X125977000Y-102728031D01*
X125977001Y-103171968D01*
X125983049Y-103217917D01*
X125985602Y-103223392D01*
X125985603Y-103223395D01*
X126027149Y-103312489D01*
X126030071Y-103318755D01*
X126108745Y-103397429D01*
X126209583Y-103444451D01*
X126224321Y-103446391D01*
X126252961Y-103450162D01*
X126252966Y-103450162D01*
X126255531Y-103450500D01*
X126427433Y-103450500D01*
X126599468Y-103450499D01*
X126645417Y-103444451D01*
X126650892Y-103441898D01*
X126650895Y-103441897D01*
X126739989Y-103400351D01*
X126746255Y-103397429D01*
X126824929Y-103318755D01*
X126828314Y-103311497D01*
X126865902Y-103230889D01*
X126904113Y-103192678D01*
X126957947Y-103187968D01*
X127002213Y-103218964D01*
X127009098Y-103230889D01*
X127046687Y-103311497D01*
X127050071Y-103318755D01*
X127061920Y-103330604D01*
X127084758Y-103379580D01*
X127070772Y-103431778D01*
X127061930Y-103442315D01*
X127010912Y-103493333D01*
X126963145Y-103595769D01*
X126962356Y-103601763D01*
X126959875Y-103620611D01*
X126957000Y-103642446D01*
X126957000Y-104057554D01*
X126963145Y-104104231D01*
X126965700Y-104109710D01*
X126967391Y-104115512D01*
X126965277Y-104116128D01*
X126969200Y-104160945D01*
X126938205Y-104205212D01*
X126892891Y-104219500D01*
X126348909Y-104219500D01*
X126298129Y-104201018D01*
X126293048Y-104196361D01*
X125715937Y-103619250D01*
X125693099Y-103570274D01*
X125707085Y-103518076D01*
X125715935Y-103507529D01*
X125732146Y-103491318D01*
X125790461Y-103376868D01*
X125798892Y-103323641D01*
X125809582Y-103256143D01*
X125810555Y-103250000D01*
X125804014Y-103208702D01*
X125791434Y-103129273D01*
X125791433Y-103129271D01*
X125790461Y-103123132D01*
X125732146Y-103008682D01*
X125641318Y-102917854D01*
X125526868Y-102859539D01*
X125520729Y-102858567D01*
X125520727Y-102858566D01*
X125406143Y-102840418D01*
X125400000Y-102839445D01*
X125393857Y-102840418D01*
X125279273Y-102858566D01*
X125279271Y-102858567D01*
X125273132Y-102859539D01*
X125158682Y-102917854D01*
X125067854Y-103008682D01*
X125009539Y-103123132D01*
X125008567Y-103129271D01*
X125008566Y-103129273D01*
X124995986Y-103208702D01*
X124989445Y-103250000D01*
X124990418Y-103256143D01*
X125001109Y-103323641D01*
X125009539Y-103376868D01*
X125067854Y-103491318D01*
X125096361Y-103519825D01*
X125119199Y-103568801D01*
X125119500Y-103575686D01*
X125119500Y-103649479D01*
X125119164Y-103654056D01*
X125117702Y-103658314D01*
X125117976Y-103665604D01*
X125119444Y-103704706D01*
X125119500Y-103707670D01*
X125119500Y-103726090D01*
X125120166Y-103729667D01*
X125120332Y-103731461D01*
X125120610Y-103735757D01*
X125121623Y-103762735D01*
X125124503Y-103769438D01*
X125126454Y-103773980D01*
X125131531Y-103790691D01*
X125133773Y-103802728D01*
X125137600Y-103808937D01*
X125137601Y-103808939D01*
X125147338Y-103824735D01*
X125152666Y-103834990D01*
X125162871Y-103858743D01*
X125166617Y-103863304D01*
X125171799Y-103868486D01*
X125183186Y-103882890D01*
X125188605Y-103891682D01*
X125194411Y-103896097D01*
X125211019Y-103908726D01*
X125219062Y-103915749D01*
X125408290Y-104104977D01*
X125431128Y-104153953D01*
X125417142Y-104206151D01*
X125380699Y-104233114D01*
X125380953Y-104233612D01*
X125377979Y-104235127D01*
X125377978Y-104235128D01*
X125273560Y-104288332D01*
X125265531Y-104296361D01*
X125216555Y-104319199D01*
X125209670Y-104319500D01*
X124250521Y-104319500D01*
X124245944Y-104319164D01*
X124241686Y-104317702D01*
X124195283Y-104319444D01*
X124192319Y-104319500D01*
X124173910Y-104319500D01*
X124170334Y-104320166D01*
X124168560Y-104320330D01*
X124164262Y-104320609D01*
X124159840Y-104320775D01*
X124144555Y-104321348D01*
X124144553Y-104321348D01*
X124137265Y-104321622D01*
X124126020Y-104326453D01*
X124109305Y-104331531D01*
X124104445Y-104332436D01*
X124104440Y-104332438D01*
X124097272Y-104333773D01*
X124075266Y-104347337D01*
X124065005Y-104352667D01*
X124046381Y-104360669D01*
X124046379Y-104360670D01*
X124041257Y-104362871D01*
X124036696Y-104366617D01*
X124031514Y-104371799D01*
X124017110Y-104383186D01*
X124008318Y-104388605D01*
X124003903Y-104394411D01*
X123991274Y-104411019D01*
X123984251Y-104419062D01*
X123315361Y-105087952D01*
X123266385Y-105110790D01*
X123214187Y-105096804D01*
X123183192Y-105052538D01*
X123180500Y-105032091D01*
X123180500Y-101929000D01*
X123198982Y-101878220D01*
X123245782Y-101851200D01*
X123259500Y-101850000D01*
X135040500Y-101850000D01*
X135091280Y-101868482D01*
G37*
%TD.AperFunction*%
%TD*%
M02*
