M48
; DRILL file {KiCad 6.0.4} date 2022年06月04日 星期六 16时46分40秒
; FORMAT={-:-/ absolute / inch / decimal}
; #@! TF.CreationDate,2022-06-04T16:46:40+08:00
; #@! TF.GenerationSoftware,Kicad,Pcbnew,6.0.4
; #@! TF.FileFunction,Plated,1,2,PTH
FMAT,2
INCH
; #@! TA.AperFunction,Plated,PTH,ViaDrill
T1C0.0118
; #@! TA.AperFunction,Plated,PTH,ComponentDrill
T2C0.0118
; #@! TA.AperFunction,Plated,PTH,ViaDrill
T3C0.0157
; #@! TA.AperFunction,Plated,PTH,ViaDrill
T4C0.0197
; #@! TA.AperFunction,Plated,PTH,ComponentDrill
T5C0.0236
%
G90
G05
T1
X4.752Y-4.1831
X4.7539Y-4.3445
X4.8031Y-4.3445
X4.8169Y-4.2709
X4.8181Y-4.1976
X4.874Y-4.1909
X4.8819Y-4.0217
X4.8819Y-4.0551
X4.8819Y-4.0945
X4.8858Y-4.2244
X4.8858Y-4.248
X4.8937Y-4.1594
X4.8957Y-4.1811
X4.8957Y-4.2028
X4.8996Y-4.5748
X4.9213Y-4.0217
X4.9272Y-4.1358
X4.937Y-4.065
X4.9409Y-4.1181
X4.9469Y-4.4606
X4.9606Y-4.0217
X4.9724Y-4.0827
X4.9843Y-4.0512
X5.0Y-4.0217
X5.0059Y-4.624
X5.0165Y-4.5913
X5.0394Y-4.0217
X5.0439Y-4.5368
X5.0527Y-4.0709
X5.0591Y-4.311
X5.0591Y-4.3504
X5.0591Y-4.5571
X5.0763Y-4.0492
X5.0787Y-4.0217
X5.0787Y-4.3307
X5.0933Y-4.0918
X5.0984Y-4.311
X5.0984Y-4.3504
X5.1181Y-4.0217
X5.1321Y-4.0982
X5.1575Y-4.0217
X5.1791Y-4.6594
X5.1935Y-4.1147
X5.1969Y-4.0217
X5.1988Y-4.5138
X5.2047Y-4.1555
X5.2087Y-4.7008
X5.2106Y-4.5354
X5.2283Y-4.5748
X5.2362Y-4.0217
X5.2441Y-4.1594
X5.2472Y-4.2646
X5.2479Y-4.314
X5.252Y-4.0984
X5.252Y-4.3976
X5.2756Y-4.0217
X5.2756Y-4.0748
X5.2835Y-4.6634
X5.315Y-4.0748
X5.3189Y-4.3583
X5.3228Y-4.1535
X5.3346Y-4.2441
X5.3543Y-4.0551
X5.3543Y-4.0945
X5.378Y-4.1732
X5.378Y-4.1969
X5.3858Y-4.3563
X5.3927Y-4.4054
X5.3937Y-4.0217
X5.3937Y-4.0551
X5.3937Y-4.0945
X5.4016Y-4.2638
X5.4331Y-4.0551
X5.4331Y-4.0945
X5.4469Y-4.4783
X5.4724Y-4.0217
X5.4724Y-4.0551
X5.4887Y-4.6816
X5.5118Y-4.0217
X5.5118Y-4.0551
X5.5236Y-4.2264
X5.5256Y-4.3071
X5.5512Y-4.0217
X5.5512Y-4.0551
X5.5906Y-4.0217
X5.5906Y-4.0551
T2
X5.4193Y-4.0089
T3
X5.4902Y-4.6083
X5.5669Y-4.5945
T4
X5.248Y-4.435
X5.315Y-4.4134
T5
G00X5.485Y-4.0917
M15
G01X5.5283Y-4.0917
M16
G05
G00X5.485Y-4.4319
M15
G01X5.5283Y-4.4319
M16
G05
G00X5.6594Y-4.0917
M15
G01X5.6831Y-4.0917
M16
G05
G00X5.6594Y-4.4319
M15
G01X5.6831Y-4.4319
M16
G05
T0
M30
