%TF.GenerationSoftware,KiCad,Pcbnew,6.0.4*%
%TF.CreationDate,2022-06-04T16:46:40+08:00*%
%TF.ProjectId,holocubic,686f6c6f-6375-4626-9963-2e6b69636164,rev?*%
%TF.SameCoordinates,Original*%
%TF.FileFunction,Paste,Bot*%
%TF.FilePolarity,Positive*%
%FSLAX46Y46*%
G04 Gerber Fmt 4.6, Leading zero omitted, Abs format (unit mm)*
G04 Created by KiCad (PCBNEW 6.0.4) date 2022-06-04 16:46:40*
%MOMM*%
%LPD*%
G01*
G04 APERTURE LIST*
G04 Aperture macros list*
%AMRoundRect*
0 Rectangle with rounded corners*
0 $1 Rounding radius*
0 $2 $3 $4 $5 $6 $7 $8 $9 X,Y pos of 4 corners*
0 Add a 4 corners polygon primitive as box body*
4,1,4,$2,$3,$4,$5,$6,$7,$8,$9,$2,$3,0*
0 Add four circle primitives for the rounded corners*
1,1,$1+$1,$2,$3*
1,1,$1+$1,$4,$5*
1,1,$1+$1,$6,$7*
1,1,$1+$1,$8,$9*
0 Add four rect primitives between the rounded corners*
20,1,$1+$1,$2,$3,$4,$5,0*
20,1,$1+$1,$4,$5,$6,$7,0*
20,1,$1+$1,$6,$7,$8,$9,0*
20,1,$1+$1,$8,$9,$2,$3,0*%
G04 Aperture macros list end*
%ADD10RoundRect,0.225000X0.250000X-0.225000X0.250000X0.225000X-0.250000X0.225000X-0.250000X-0.225000X0*%
%ADD11RoundRect,0.140000X-0.140000X-0.170000X0.140000X-0.170000X0.140000X0.170000X-0.140000X0.170000X0*%
%ADD12RoundRect,0.140000X0.140000X0.170000X-0.140000X0.170000X-0.140000X-0.170000X0.140000X-0.170000X0*%
%ADD13RoundRect,0.135000X0.135000X0.185000X-0.135000X0.185000X-0.135000X-0.185000X0.135000X-0.185000X0*%
%ADD14RoundRect,0.222500X-0.222500X-0.222500X0.222500X-0.222500X0.222500X0.222500X-0.222500X0.222500X0*%
%ADD15RoundRect,0.062500X-0.375000X-0.062500X0.375000X-0.062500X0.375000X0.062500X-0.375000X0.062500X0*%
%ADD16RoundRect,0.062500X-0.062500X-0.375000X0.062500X-0.375000X0.062500X0.375000X-0.062500X0.375000X0*%
%ADD17RoundRect,0.140000X0.170000X-0.140000X0.170000X0.140000X-0.170000X0.140000X-0.170000X-0.140000X0*%
%ADD18RoundRect,0.135000X-0.135000X-0.185000X0.135000X-0.185000X0.135000X0.185000X-0.135000X0.185000X0*%
%ADD19RoundRect,0.225000X-0.250000X0.225000X-0.250000X-0.225000X0.250000X-0.225000X0.250000X0.225000X0*%
%ADD20RoundRect,0.140000X-0.170000X0.140000X-0.170000X-0.140000X0.170000X-0.140000X0.170000X0.140000X0*%
%ADD21RoundRect,0.075000X0.350000X0.075000X-0.350000X0.075000X-0.350000X-0.075000X0.350000X-0.075000X0*%
%ADD22RoundRect,0.075000X0.075000X-0.350000X0.075000X0.350000X-0.075000X0.350000X-0.075000X-0.350000X0*%
G04 APERTURE END LIST*
D10*
%TO.C,C4*%
X139750000Y-115575000D03*
X139750000Y-114025000D03*
%TD*%
D11*
%TO.C,C14*%
X124220000Y-111250000D03*
X125180000Y-111250000D03*
%TD*%
D12*
%TO.C,C21*%
X131980000Y-113980000D03*
X131020000Y-113980000D03*
%TD*%
D13*
%TO.C,R4*%
X125210000Y-110350000D03*
X124190000Y-110350000D03*
%TD*%
D12*
%TO.C,C19*%
X130180000Y-113980000D03*
X129220000Y-113980000D03*
%TD*%
D14*
%TO.C,U3*%
X128150000Y-110400000D03*
X128150000Y-109300000D03*
X129250000Y-110400000D03*
X129250000Y-111500000D03*
X130350000Y-110400000D03*
X128150000Y-111500000D03*
X129250000Y-109300000D03*
X130350000Y-111500000D03*
X130350000Y-109300000D03*
D15*
X126812500Y-112150000D03*
X126812500Y-111650000D03*
X126812500Y-111150000D03*
X126812500Y-110650000D03*
X126812500Y-110150000D03*
X126812500Y-109650000D03*
X126812500Y-109150000D03*
X126812500Y-108650000D03*
D16*
X127500000Y-107962500D03*
X128000000Y-107962500D03*
X128500000Y-107962500D03*
X129000000Y-107962500D03*
X129500000Y-107962500D03*
X130000000Y-107962500D03*
X130500000Y-107962500D03*
X131000000Y-107962500D03*
D15*
X131687500Y-108650000D03*
X131687500Y-109150000D03*
X131687500Y-109650000D03*
X131687500Y-110150000D03*
X131687500Y-110650000D03*
X131687500Y-111150000D03*
X131687500Y-111650000D03*
X131687500Y-112150000D03*
D16*
X131000000Y-112837500D03*
X130500000Y-112837500D03*
X130000000Y-112837500D03*
X129500000Y-112837500D03*
X129000000Y-112837500D03*
X128500000Y-112837500D03*
X128000000Y-112837500D03*
X127500000Y-112837500D03*
%TD*%
D17*
%TO.C,C23*%
X133100000Y-114680000D03*
X133100000Y-113720000D03*
%TD*%
D11*
%TO.C,C13*%
X124220000Y-112100000D03*
X125180000Y-112100000D03*
%TD*%
D18*
%TO.C,R2*%
X140540000Y-109500000D03*
X141560000Y-109500000D03*
%TD*%
D11*
%TO.C,C20*%
X129020000Y-106800000D03*
X129980000Y-106800000D03*
%TD*%
%TO.C,C15*%
X124220000Y-109450000D03*
X125180000Y-109450000D03*
%TD*%
%TO.C,C16*%
X124220000Y-108550000D03*
X125180000Y-108550000D03*
%TD*%
D19*
%TO.C,C1*%
X139750000Y-117025000D03*
X139750000Y-118575000D03*
%TD*%
D20*
%TO.C,C12*%
X123350000Y-108520000D03*
X123350000Y-109480000D03*
%TD*%
%TO.C,C22*%
X133090476Y-116130000D03*
X133090476Y-117090000D03*
%TD*%
D21*
%TO.C,U4*%
X138200000Y-114550000D03*
X138200000Y-115050000D03*
X138200000Y-115550000D03*
X138200000Y-116050000D03*
X138200000Y-116550000D03*
X138200000Y-117050000D03*
D22*
X137500000Y-117750000D03*
X137000000Y-117750000D03*
X136500000Y-117750000D03*
X136000000Y-117750000D03*
X135500000Y-117750000D03*
X135000000Y-117750000D03*
D21*
X134300000Y-117050000D03*
X134300000Y-116550000D03*
X134300000Y-116050000D03*
X134300000Y-115550000D03*
X134300000Y-115050000D03*
X134300000Y-114550000D03*
D22*
X135000000Y-113850000D03*
X135500000Y-113850000D03*
X136000000Y-113850000D03*
X136500000Y-113850000D03*
X137000000Y-113850000D03*
X137500000Y-113850000D03*
%TD*%
D18*
%TO.C,R3*%
X140540000Y-106550000D03*
X141560000Y-106550000D03*
%TD*%
D12*
%TO.C,C24*%
X136580000Y-118900000D03*
X135620000Y-118900000D03*
%TD*%
D11*
%TO.C,C18*%
X127420000Y-113980000D03*
X128380000Y-113980000D03*
%TD*%
M02*
