%TF.GenerationSoftware,KiCad,Pcbnew,6.0.4*%
%TF.CreationDate,2022-06-17T00:24:20+08:00*%
%TF.ProjectId,holocubic,686f6c6f-6375-4626-9963-2e6b69636164,rev?*%
%TF.SameCoordinates,Original*%
%TF.FileFunction,Other,Comment*%
%FSLAX46Y46*%
G04 Gerber Fmt 4.6, Leading zero omitted, Abs format (unit mm)*
G04 Created by KiCad (PCBNEW 6.0.4) date 2022-06-17 00:24:20*
%MOMM*%
%LPD*%
G01*
G04 APERTURE LIST*
%ADD10C,0.040000*%
G04 APERTURE END LIST*
D10*
%TO.C,U4*%
X135507142Y-115790476D02*
X135507142Y-115590476D01*
X135621428Y-115790476D01*
X135621428Y-115590476D01*
X135745238Y-115790476D02*
X135726190Y-115780952D01*
X135716666Y-115771428D01*
X135707142Y-115752380D01*
X135707142Y-115695238D01*
X135716666Y-115676190D01*
X135726190Y-115666666D01*
X135745238Y-115657142D01*
X135773809Y-115657142D01*
X135792857Y-115666666D01*
X135802380Y-115676190D01*
X135811904Y-115695238D01*
X135811904Y-115752380D01*
X135802380Y-115771428D01*
X135792857Y-115780952D01*
X135773809Y-115790476D01*
X135745238Y-115790476D01*
X136164285Y-115771428D02*
X136154761Y-115780952D01*
X136126190Y-115790476D01*
X136107142Y-115790476D01*
X136078571Y-115780952D01*
X136059523Y-115761904D01*
X136050000Y-115742857D01*
X136040476Y-115704761D01*
X136040476Y-115676190D01*
X136050000Y-115638095D01*
X136059523Y-115619047D01*
X136078571Y-115600000D01*
X136107142Y-115590476D01*
X136126190Y-115590476D01*
X136154761Y-115600000D01*
X136164285Y-115609523D01*
X136278571Y-115790476D02*
X136259523Y-115780952D01*
X136250000Y-115771428D01*
X136240476Y-115752380D01*
X136240476Y-115695238D01*
X136250000Y-115676190D01*
X136259523Y-115666666D01*
X136278571Y-115657142D01*
X136307142Y-115657142D01*
X136326190Y-115666666D01*
X136335714Y-115676190D01*
X136345238Y-115695238D01*
X136345238Y-115752380D01*
X136335714Y-115771428D01*
X136326190Y-115780952D01*
X136307142Y-115790476D01*
X136278571Y-115790476D01*
X136430952Y-115657142D02*
X136430952Y-115857142D01*
X136430952Y-115666666D02*
X136450000Y-115657142D01*
X136488095Y-115657142D01*
X136507142Y-115666666D01*
X136516666Y-115676190D01*
X136526190Y-115695238D01*
X136526190Y-115752380D01*
X136516666Y-115771428D01*
X136507142Y-115780952D01*
X136488095Y-115790476D01*
X136450000Y-115790476D01*
X136430952Y-115780952D01*
X136611904Y-115657142D02*
X136611904Y-115857142D01*
X136611904Y-115666666D02*
X136630952Y-115657142D01*
X136669047Y-115657142D01*
X136688095Y-115666666D01*
X136697619Y-115676190D01*
X136707142Y-115695238D01*
X136707142Y-115752380D01*
X136697619Y-115771428D01*
X136688095Y-115780952D01*
X136669047Y-115790476D01*
X136630952Y-115790476D01*
X136611904Y-115780952D01*
X136869047Y-115780952D02*
X136850000Y-115790476D01*
X136811904Y-115790476D01*
X136792857Y-115780952D01*
X136783333Y-115761904D01*
X136783333Y-115685714D01*
X136792857Y-115666666D01*
X136811904Y-115657142D01*
X136850000Y-115657142D01*
X136869047Y-115666666D01*
X136878571Y-115685714D01*
X136878571Y-115704761D01*
X136783333Y-115723809D01*
X136964285Y-115790476D02*
X136964285Y-115657142D01*
X136964285Y-115695238D02*
X136973809Y-115676190D01*
X136983333Y-115666666D01*
X137002380Y-115657142D01*
X137021428Y-115657142D01*
X135221428Y-116140476D02*
X135221428Y-115940476D01*
X135269047Y-115940476D01*
X135297619Y-115950000D01*
X135316666Y-115969047D01*
X135326190Y-115988095D01*
X135335714Y-116026190D01*
X135335714Y-116054761D01*
X135326190Y-116092857D01*
X135316666Y-116111904D01*
X135297619Y-116130952D01*
X135269047Y-116140476D01*
X135221428Y-116140476D01*
X135421428Y-116140476D02*
X135421428Y-116007142D01*
X135421428Y-115940476D02*
X135411904Y-115950000D01*
X135421428Y-115959523D01*
X135430952Y-115950000D01*
X135421428Y-115940476D01*
X135421428Y-115959523D01*
X135516666Y-116140476D02*
X135516666Y-116007142D01*
X135516666Y-116045238D02*
X135526190Y-116026190D01*
X135535714Y-116016666D01*
X135554761Y-116007142D01*
X135573809Y-116007142D01*
X135716666Y-116130952D02*
X135697619Y-116140476D01*
X135659523Y-116140476D01*
X135640476Y-116130952D01*
X135630952Y-116111904D01*
X135630952Y-116035714D01*
X135640476Y-116016666D01*
X135659523Y-116007142D01*
X135697619Y-116007142D01*
X135716666Y-116016666D01*
X135726190Y-116035714D01*
X135726190Y-116054761D01*
X135630952Y-116073809D01*
X135897619Y-116130952D02*
X135878571Y-116140476D01*
X135840476Y-116140476D01*
X135821428Y-116130952D01*
X135811904Y-116121428D01*
X135802380Y-116102380D01*
X135802380Y-116045238D01*
X135811904Y-116026190D01*
X135821428Y-116016666D01*
X135840476Y-116007142D01*
X135878571Y-116007142D01*
X135897619Y-116016666D01*
X135954761Y-116007142D02*
X136030952Y-116007142D01*
X135983333Y-115940476D02*
X135983333Y-116111904D01*
X135992857Y-116130952D01*
X136011904Y-116140476D01*
X136030952Y-116140476D01*
X136126190Y-116140476D02*
X136107142Y-116130952D01*
X136097619Y-116111904D01*
X136097619Y-115940476D01*
X136183333Y-116007142D02*
X136230952Y-116140476D01*
X136278571Y-116007142D02*
X136230952Y-116140476D01*
X136211904Y-116188095D01*
X136202380Y-116197619D01*
X136183333Y-116207142D01*
X136573809Y-116035714D02*
X136602380Y-116045238D01*
X136611904Y-116054761D01*
X136621428Y-116073809D01*
X136621428Y-116102380D01*
X136611904Y-116121428D01*
X136602380Y-116130952D01*
X136583333Y-116140476D01*
X136507142Y-116140476D01*
X136507142Y-115940476D01*
X136573809Y-115940476D01*
X136592857Y-115950000D01*
X136602380Y-115959523D01*
X136611904Y-115978571D01*
X136611904Y-115997619D01*
X136602380Y-116016666D01*
X136592857Y-116026190D01*
X136573809Y-116035714D01*
X136507142Y-116035714D01*
X136783333Y-116130952D02*
X136764285Y-116140476D01*
X136726190Y-116140476D01*
X136707142Y-116130952D01*
X136697619Y-116111904D01*
X136697619Y-116035714D01*
X136707142Y-116016666D01*
X136726190Y-116007142D01*
X136764285Y-116007142D01*
X136783333Y-116016666D01*
X136792857Y-116035714D01*
X136792857Y-116054761D01*
X136697619Y-116073809D01*
X136907142Y-116140476D02*
X136888095Y-116130952D01*
X136878571Y-116111904D01*
X136878571Y-115940476D01*
X137011904Y-116140476D02*
X136992857Y-116130952D01*
X136983333Y-116121428D01*
X136973809Y-116102380D01*
X136973809Y-116045238D01*
X136983333Y-116026190D01*
X136992857Y-116016666D01*
X137011904Y-116007142D01*
X137040476Y-116007142D01*
X137059523Y-116016666D01*
X137069047Y-116026190D01*
X137078571Y-116045238D01*
X137078571Y-116102380D01*
X137069047Y-116121428D01*
X137059523Y-116130952D01*
X137040476Y-116140476D01*
X137011904Y-116140476D01*
X137145238Y-116007142D02*
X137183333Y-116140476D01*
X137221428Y-116045238D01*
X137259523Y-116140476D01*
X137297619Y-116007142D01*
X135583333Y-116421428D02*
X135573809Y-116430952D01*
X135545238Y-116440476D01*
X135526190Y-116440476D01*
X135497619Y-116430952D01*
X135478571Y-116411904D01*
X135469047Y-116392857D01*
X135459523Y-116354761D01*
X135459523Y-116326190D01*
X135469047Y-116288095D01*
X135478571Y-116269047D01*
X135497619Y-116250000D01*
X135526190Y-116240476D01*
X135545238Y-116240476D01*
X135573809Y-116250000D01*
X135583333Y-116259523D01*
X135697619Y-116440476D02*
X135678571Y-116430952D01*
X135669047Y-116421428D01*
X135659523Y-116402380D01*
X135659523Y-116345238D01*
X135669047Y-116326190D01*
X135678571Y-116316666D01*
X135697619Y-116307142D01*
X135726190Y-116307142D01*
X135745238Y-116316666D01*
X135754761Y-116326190D01*
X135764285Y-116345238D01*
X135764285Y-116402380D01*
X135754761Y-116421428D01*
X135745238Y-116430952D01*
X135726190Y-116440476D01*
X135697619Y-116440476D01*
X135850000Y-116440476D02*
X135850000Y-116307142D01*
X135850000Y-116326190D02*
X135859523Y-116316666D01*
X135878571Y-116307142D01*
X135907142Y-116307142D01*
X135926190Y-116316666D01*
X135935714Y-116335714D01*
X135935714Y-116440476D01*
X135935714Y-116335714D02*
X135945238Y-116316666D01*
X135964285Y-116307142D01*
X135992857Y-116307142D01*
X136011904Y-116316666D01*
X136021428Y-116335714D01*
X136021428Y-116440476D01*
X136116666Y-116307142D02*
X136116666Y-116507142D01*
X136116666Y-116316666D02*
X136135714Y-116307142D01*
X136173809Y-116307142D01*
X136192857Y-116316666D01*
X136202380Y-116326190D01*
X136211904Y-116345238D01*
X136211904Y-116402380D01*
X136202380Y-116421428D01*
X136192857Y-116430952D01*
X136173809Y-116440476D01*
X136135714Y-116440476D01*
X136116666Y-116430952D01*
X136326190Y-116440476D02*
X136307142Y-116430952D01*
X136297619Y-116421428D01*
X136288095Y-116402380D01*
X136288095Y-116345238D01*
X136297619Y-116326190D01*
X136307142Y-116316666D01*
X136326190Y-116307142D01*
X136354761Y-116307142D01*
X136373809Y-116316666D01*
X136383333Y-116326190D01*
X136392857Y-116345238D01*
X136392857Y-116402380D01*
X136383333Y-116421428D01*
X136373809Y-116430952D01*
X136354761Y-116440476D01*
X136326190Y-116440476D01*
X136478571Y-116307142D02*
X136478571Y-116440476D01*
X136478571Y-116326190D02*
X136488095Y-116316666D01*
X136507142Y-116307142D01*
X136535714Y-116307142D01*
X136554761Y-116316666D01*
X136564285Y-116335714D01*
X136564285Y-116440476D01*
X136735714Y-116430952D02*
X136716666Y-116440476D01*
X136678571Y-116440476D01*
X136659523Y-116430952D01*
X136650000Y-116411904D01*
X136650000Y-116335714D01*
X136659523Y-116316666D01*
X136678571Y-116307142D01*
X136716666Y-116307142D01*
X136735714Y-116316666D01*
X136745238Y-116335714D01*
X136745238Y-116354761D01*
X136650000Y-116373809D01*
X136830952Y-116307142D02*
X136830952Y-116440476D01*
X136830952Y-116326190D02*
X136840476Y-116316666D01*
X136859523Y-116307142D01*
X136888095Y-116307142D01*
X136907142Y-116316666D01*
X136916666Y-116335714D01*
X136916666Y-116440476D01*
X136983333Y-116307142D02*
X137059523Y-116307142D01*
X137011904Y-116240476D02*
X137011904Y-116411904D01*
X137021428Y-116430952D01*
X137040476Y-116440476D01*
X137059523Y-116440476D01*
X135630952Y-115390476D02*
X135630952Y-115190476D01*
X135745238Y-115390476D02*
X135659523Y-115276190D01*
X135745238Y-115190476D02*
X135630952Y-115304761D01*
X135830952Y-115285714D02*
X135897619Y-115285714D01*
X135926190Y-115390476D02*
X135830952Y-115390476D01*
X135830952Y-115190476D01*
X135926190Y-115190476D01*
X136011904Y-115285714D02*
X136078571Y-115285714D01*
X136107142Y-115390476D02*
X136011904Y-115390476D01*
X136011904Y-115190476D01*
X136107142Y-115190476D01*
X136192857Y-115390476D02*
X136192857Y-115190476D01*
X136269047Y-115190476D01*
X136288095Y-115200000D01*
X136297619Y-115209523D01*
X136307142Y-115228571D01*
X136307142Y-115257142D01*
X136297619Y-115276190D01*
X136288095Y-115285714D01*
X136269047Y-115295238D01*
X136192857Y-115295238D01*
X136430952Y-115190476D02*
X136469047Y-115190476D01*
X136488095Y-115200000D01*
X136507142Y-115219047D01*
X136516666Y-115257142D01*
X136516666Y-115323809D01*
X136507142Y-115361904D01*
X136488095Y-115380952D01*
X136469047Y-115390476D01*
X136430952Y-115390476D01*
X136411904Y-115380952D01*
X136392857Y-115361904D01*
X136383333Y-115323809D01*
X136383333Y-115257142D01*
X136392857Y-115219047D01*
X136411904Y-115200000D01*
X136430952Y-115190476D01*
X136602380Y-115190476D02*
X136602380Y-115352380D01*
X136611904Y-115371428D01*
X136621428Y-115380952D01*
X136640476Y-115390476D01*
X136678571Y-115390476D01*
X136697619Y-115380952D01*
X136707142Y-115371428D01*
X136716666Y-115352380D01*
X136716666Y-115190476D01*
X136783333Y-115190476D02*
X136897619Y-115190476D01*
X136840476Y-115390476D02*
X136840476Y-115190476D01*
%TD*%
M02*
